<svg width="356" height="182" viewBox="0 0 356 182" fill="none" xmlns="http://www.w3.org/2000/svg">
<path d="M110.099 0L356 0L245.739 182H0L110.099 0Z" fill="white"/>
<path d="M121.5 132.2L132.5 113.2L143.5 132.2H161L132.5 82.9L104 132.2H121.5Z" fill="#36495E"/>
<path d="M132.5 82.9V113.2L143.5 132.2H161L132.5 82.9Z" fill="url(#paint0_linear)"/>
<path d="M200.5 132.2L189.5 113.2L178.5 132.2H161L189.5 82.9L218 132.2H200.5Z" fill="#36495E"/>
<path d="M189.5 82.9V113.2L178.5 132.2H161L189.5 82.9Z" fill="url(#paint1_linear)"/>
<path d="M189.5 50L161 99.3L132.5 50L85 132.2H104L132.5 82.9L161 132.2L189.5 82.9L218 132.2H237L189.5 50Z" fill="url(#paint2_linear)"/>
<defs>
<linearGradient id="paint0_linear" x1="146.762" y1="132.244" x2="146.762" y2="82.8712" gradientUnits="userSpaceOnUse">
<stop stop-color="#36495E"/>
<stop offset="1" stop-color="#0A1C33"/>
</linearGradient>
<linearGradient id="paint1_linear" x1="175.267" y1="132.244" x2="175.267" y2="82.8712" gradientUnits="userSpaceOnUse">
<stop stop-color="#36495E"/>
<stop offset="1" stop-color="#0A1C33"/>
</linearGradient>
<linearGradient id="paint2_linear" x1="161.014" y1="132.244" x2="161.014" y2="49.9561" gradientUnits="userSpaceOnUse">
<stop offset="0.2" stop-color="#41B782"/>
<stop offset="1" stop-color="#86D169"/>
</linearGradient>
</defs>
</svg>
