<svg fill="none" height="230" viewBox="0 0 843 230" width="843" xmlns="http://www.w3.org/2000/svg"><rect fill="#fff" height="230" rx="24" width="843"/><path d="m21 17h30.448l30.865 89.884 5.422 19.186h1.668l5.84-19.186 32.116-89.884h30.448l-54.431 149.319h-29.614zm211.258 135.972h-1.669c-3.197 5.144-7.507 9.211-12.93 12.2-5.422 2.989-11.609 4.484-18.56 4.484-12.93 0-22.558-3.962-28.884-11.887s-9.489-18.491-9.489-31.699v-61.938h27.32v58.601c0 7.369 1.633 12.826 4.901 16.371 3.267 3.545 8.029 5.318 14.285 5.318 3.754 0 7.056-.799 9.906-2.398s5.283-3.754 7.299-6.465 3.545-5.909 4.588-9.593c1.043-3.685 1.564-7.612 1.564-11.783v-50.051h27.32v102.187h-25.651zm141.603-11.261c-4.727 8.342-11.088 15.085-19.082 20.229-7.995 5.144-17.761 7.716-29.301 7.716-7.786 0-14.981-1.355-21.585-4.067-6.604-2.711-12.339-6.499-17.205-11.365s-8.654-10.601-11.365-17.205c-2.712-6.604-4.067-13.869-4.067-21.794 0-7.368 1.321-14.355 3.962-20.959 2.642-6.603 6.326-12.373 11.053-17.309 4.727-4.935 10.323-8.863 16.788-11.783 6.465-2.919 13.59-4.379 21.376-4.379 8.203 0 15.502 1.355 21.898 4.066 6.395 2.712 11.748 6.465 16.058 11.262s7.577 10.462 9.801 16.996c2.225 6.535 3.337 13.626 3.337 21.272v2.503c-.132.758-.202 1.525-.208 2.294-.145.756-.215 1.524-.209 2.294h-76.954c.556 4.171 1.703 7.751 3.441 10.74s3.893 5.492 6.465 7.508 5.388 3.475 8.446 4.379c3.047.902 6.208 1.359 9.385 1.356 6.256 0 11.435-1.425 15.537-4.276 4.101-2.85 7.334-6.43 9.697-10.74zm-24.817-39.624c-.139-1.807-.73-3.823-1.773-6.048-1.043-2.224-2.572-4.31-4.588-6.256-2.016-1.947-4.518-3.546-7.508-4.797-2.989-1.251-6.569-1.877-10.74-1.877-5.839 0-10.983 1.669-15.432 5.005-4.449 3.337-7.577 7.995-9.385 13.973z" fill="#18ca84"/><g fill="#2c3e50"><path clip-rule="evenodd" d="m481.471 17v101.979c0 8.342-1.286 15.676-3.858 22.002s-6.048 11.609-10.428 15.849c-4.379 4.241-9.523 7.439-15.432 9.594s-12.27 3.232-19.082 3.232c-11.818 0-22.141-3.198-30.969-9.593-8.829-6.395-14.981-15.224-18.457-26.485l25.86-10.636c1.808 6.673 4.727 11.678 8.759 15.015s8.968 5.005 14.807 5.005c6.534 0 11.609-2.085 15.224-6.256s5.422-10.011 5.422-17.518v-74.034h-44.134v-28.154zm92.827 146.928c-1.205.597-2.43 1.151-3.674 1.661-6.604 2.712-13.868 4.067-21.793 4.067-7.924 0-15.189-1.355-21.793-4.067-6.604-2.711-12.304-6.465-17.101-11.261-4.796-4.797-8.55-10.532-11.261-17.205-2.711-6.674-4.067-13.973-4.067-21.898 0-7.924 1.356-15.223 4.067-21.897 2.711-6.673 6.465-12.408 11.261-17.205 4.797-4.797 10.497-8.55 17.101-11.262 6.604-2.711 13.869-4.066 21.793-4.066 7.925 0 15.189 1.355 21.793 4.066 6.604 2.712 12.305 6.465 17.101 11.262 4.797 4.797 8.551 10.532 11.262 17.205 2.711 6.674 4.066 13.973 4.066 21.897 0 7.925-1.355 15.224-4.066 21.898-2.711 6.673-6.465 12.408-11.262 17.205-.413.414-.834.819-1.261 1.217l9.594 14.669c1.564.161 3.072.668 4.414 1.485 1.343.818 2.486 1.925 3.347 3.24l20.487 31.321c.256.392.433.831.52 1.291s.082.933-.014 1.391c-.096.459-.281.894-.545 1.281s-.602.718-.994.974l-12.933 8.46c-.392.256-.831.433-1.291.52s-.933.082-1.391-.014c-.459-.096-.894-.281-1.281-.545s-.718-.602-.974-.994l-20.487-31.321c-.86-1.316-1.416-2.807-1.627-4.364-.211-1.558-.071-3.143.408-4.64zm-25.467-19.506c3.476 0 6.848-.66 10.115-1.981 3.244-1.306 6.188-3.257 8.655-5.735 2.502-2.503 4.483-5.562 5.943-9.176 1.46-3.615 2.19-7.717 2.19-12.305s-.73-8.689-2.19-12.304-3.441-6.673-5.943-9.176c-2.467-2.4782-5.411-4.4293-8.655-5.735-3.211-1.3099-6.647-1.9827-10.115-1.981-3.614 0-7.021.66-10.218 1.981-3.198 1.321-6.048 3.233-8.551 5.735-2.502 2.503-4.484 5.561-5.943 9.176-1.46 3.615-2.19 7.716-2.19 12.304s.73 8.69 2.19 12.305c1.459 3.614 3.441 6.673 5.943 9.176 2.503 2.502 5.353 4.414 8.551 5.735 3.197 1.321 6.604 1.981 10.218 1.981z" fill-rule="evenodd"/><path d="m616.4 17h27.32v44.838l-1.668 14.598h1.668c2.503-4.31 6.395-7.995 11.679-11.053 5.283-3.059 11.817-4.588 19.603-4.588 6.534 0 12.756 1.355 18.665 4.066 5.909 2.712 11.122 6.465 15.641 11.262 4.518 4.797 8.098 10.532 10.74 17.205 2.642 6.674 3.962 13.973 3.962 21.897 0 7.925-1.32 15.224-3.962 21.898-2.642 6.673-6.222 12.408-10.74 17.205-4.519 4.796-9.732 8.55-15.641 11.261-5.909 2.712-12.131 4.067-18.665 4.067-7.786 0-14.32-1.529-19.603-4.588-5.284-3.059-9.176-6.743-11.679-11.053h-1.668v12.304h-25.652zm52.971 127.422c3.615 0 7.056-.695 10.323-2.086 3.235-1.368 6.175-3.351 8.655-5.839 2.503-2.502 4.518-5.561 6.048-9.176 1.529-3.615 2.294-7.647 2.294-12.096s-.765-8.48-2.294-12.095c-1.53-3.615-3.545-6.674-6.048-9.176-2.48-2.4878-5.42-4.471-8.655-5.84-3.267-1.39-6.708-2.085-10.323-2.085s-7.056.66-10.323 1.981c-3.244 1.3057-6.188 3.2568-8.655 5.735-2.502 2.503-4.518 5.561-6.047 9.176-1.53 3.615-2.294 7.716-2.294 12.304s.764 8.69 2.294 12.305c1.529 3.614 3.545 6.673 6.047 9.176 2.467 2.478 5.411 4.429 8.655 5.735 3.267 1.321 6.708 1.981 10.323 1.981zm108.444 25.234c-6.673 0-12.617-.834-17.83-2.502-5.214-1.669-9.732-3.859-13.556-6.57-3.823-2.711-7.056-5.839-9.697-9.384-2.642-3.546-4.658-7.126-6.048-10.74l24.4-10.428c2.363 5.283 5.526 9.211 9.489 11.783 3.962 2.572 8.376 3.858 13.242 3.858 5.006 0 8.968-.903 11.888-2.711 2.919-1.807 4.379-3.962 4.379-6.465 0-2.78-1.216-5.04-3.65-6.778-2.433-1.737-6.638-3.302-12.617-4.692l-14.389-3.128c-3.198-.695-6.5-1.807-9.906-3.337-3.355-1.497-6.48-3.463-9.281-5.839-2.78-2.364-5.074-5.214-6.882-8.551-1.807-3.336-2.711-7.229-2.711-11.678 0-5.005 1.078-9.454 3.233-13.347s5.109-7.195 8.863-9.906 8.168-4.797 13.243-6.256c5.074-1.46 10.531-2.19 16.371-2.19 9.732 0 18.421 1.911 26.068 5.735 7.647 3.823 13.277 9.906 16.892 18.248l-23.566 9.593c-1.946-4.032-4.796-6.952-8.55-8.759-3.754-1.808-7.508-2.711-11.261-2.711-3.893 0-7.3.799-10.219 2.398-2.92 1.599-4.38 3.65-4.38 6.152 0 2.364 1.217 4.241 3.65 5.631s5.735 2.641 9.906 3.754l15.641 3.754c10.427 2.502 18.178 6.499 23.253 11.991 5.074 5.492 7.612 11.991 7.612 19.499 0 4.449-1.043 8.69-3.129 12.721-2.085 4.032-5.039 7.612-8.863 10.741-3.823 3.128-8.411 5.596-13.764 7.403s-11.296 2.711-17.831 2.711z"/></g></svg>