<svg fill="none" height="520" viewBox="0 0 408 520" width="408" xmlns="http://www.w3.org/2000/svg" xmlns:xlink="http://www.w3.org/1999/xlink"><linearGradient id="a"><stop offset="0" stop-color="#52ce63"/><stop offset="1" stop-color="#51a256"/></linearGradient><linearGradient id="b" gradientUnits="userSpaceOnUse" x1="68.5172" x2="85.0979" xlink:href="#a" y1="90.0774" y2="170.543"/><linearGradient id="c" gradientUnits="userSpaceOnUse" x1="359.841" x2="279.366" xlink:href="#a" y1="134.702" y2="151.265"/><linearGradient id="d" gradientUnits="userSpaceOnUse" x1="219.235" x2="203.754" y1="22.7747" y2="148.86"><stop offset="0" stop-color="#8ae99c"/><stop offset="1" stop-color="#52ce63"/></linearGradient><linearGradient id="e" gradientUnits="userSpaceOnUse" x1="196.803" x2="171.815" y1="244.222" y2="518.625"><stop offset="0" stop-color="#ffe56c"/><stop offset="1" stop-color="#ffc63a"/></linearGradient><g clip-rule="evenodd" fill-rule="evenodd"><path d="m178.604 253.684c32.273-30.748 22.425-68.777-6.804-114.859-29.229-46.0827-88.0657-62.4772-99.0421-52.0193-10.9765 10.458-13.4095 85.2283 15.8191 131.3103 29.229 46.082 57.754 66.316 90.027 35.568z" fill="url(#b)"/><path d="m206.508 257.94c23.876 37.642 55.795 23.879 95.303-13.764 39.509-37.642 55.891-109.748 47.771-122.551s-69.83-12.161-109.339 25.482c-39.509 37.642-57.61 73.191-33.735 110.833z" fill="url(#c)"/><path d="m193.454 237.231c39.645 4.868 55.235-31.757 62.504-90.959 7.269-59.2022-22.696-121.775-36.18-123.4306-13.483-1.6556-58.783 51.6758-66.052 110.8776-7.269 59.203.084 98.645 39.728 103.512z" fill="url(#d)"/><path d="m192.63 519.038c83.118 0 150.526-24.145 150.526-133.645s-67.408-199.355-150.526-199.355c-83.119 0-150.474 89.855-150.474 199.355s67.355 133.645 150.474 133.645z" fill="url(#e)"/><path d="m310.811 401.034c-2.19-2.104-5.672-2.035-7.777.155l-74 77c-2.104 2.19-2.035 5.672.155 7.777 2.19 2.104 5.672 2.035 7.777-.155l74-77c2.104-2.19 2.035-5.672-.155-7.777z" fill="#ecb732"/><path d="m239.233 409.993c-2.213 2.08-2.321 5.561-.24 7.774l47 50c2.08 2.213 5.561 2.321 7.774.24 2.213-2.08 2.321-5.561.24-7.774l-47-50c-2.08-2.213-5.561-2.321-7.774-.24z" fill="#ecb732"/><path d="m225.889 225.111c2.148 2.148 2.148 5.63 0 7.778l-49 49c-2.148 2.148-5.63 2.148-7.778 0s-2.148-5.63 0-7.778l49-49c2.148-2.148 5.63-2.148 7.778 0z" fill="#ffc73b"/><path d="m215.889 281.889c2.148-2.148 2.148-5.63 0-7.778l-49-49c-2.148-2.148-5.63-2.148-7.778 0s-2.148 5.63 0 7.778l49 49c2.148 2.148 5.63 2.148 7.778 0z" fill="#ffc73b"/></g><path d="m111.34 359.471c11.785 1.447 21.885-1.823 22.558-7.305s-8.335-11.099-20.121-12.546c-11.785-1.447-21.8852 1.824-22.5583 7.305-.6731 5.482 8.3354 11.099 20.1213 12.546z" fill="#eaadcc"/><path d="m263.558 365.546c11.875 0 21.5-4.477 21.5-10s-9.625-10-21.5-10c-11.874 0-21.5 4.477-21.5 10s9.626 10 21.5 10z" fill="#eaadcc"/><path d="m150.023 321.156c-.51 14.627-12.782 26.07-27.408 25.559-14.627-.51-26.07-12.782-25.5593-27.408.5108-14.627 12.7823-26.07 27.4083-25.559 14.627.51 26.07 12.782 25.559 27.408z" fill="#fff"/><path d="m141.046 320.343c-.327 9.383-8.199 16.724-17.583 16.396-9.383-.328-16.724-8.2-16.396-17.583s8.2-16.724 17.583-16.396c9.383.327 16.724 8.199 16.396 17.583z" fill="#000"/><path d="m125.161 316.786c-.135 3.864-3.377 6.886-7.24 6.751-3.864-.134-6.887-3.376-6.752-7.24.135-3.863 3.377-6.886 7.24-6.751 3.864.135 6.887 3.376 6.752 7.24z" fill="#fff"/><path d="m279.944 325.693c-.511 14.627-12.782 26.07-27.408 25.559-14.627-.51-26.07-12.782-25.559-27.408.51-14.627 12.782-26.07 27.408-25.559 14.627.51 26.07 12.782 25.559 27.408z" fill="#fff"/><path d="m270.967 324.879c-.327 9.384-8.2 16.725-17.583 16.397s-16.724-8.2-16.396-17.583 8.2-16.724 17.583-16.396c9.383.327 16.724 8.199 16.396 17.582z" fill="#000"/><path d="m255.082 321.323c-.135 3.864-3.377 6.886-7.24 6.751-3.864-.135-6.887-3.376-6.752-7.24.135-3.863 3.377-6.886 7.24-6.751 3.864.135 6.887 3.376 6.752 7.24z" fill="#fff"/><path clip-rule="evenodd" d="m70.1889 401.034c2.1901-2.104 5.6719-2.035 7.7767.155l74.0004 77c2.104 2.19 2.035 5.672-.155 7.777-2.19 2.104-5.672 2.035-7.777-.155l-73.9996-77c-2.1048-2.19-2.0356-5.672.1545-7.777z" fill="#ecb732" fill-rule="evenodd"/><path clip-rule="evenodd" d="m141.767 409.993c2.213 2.08 2.321 5.561.24 7.774l-46.9996 50c-2.0804 2.213-5.5612 2.321-7.7744.24-2.2133-2.08-2.3209-5.561-.2405-7.774l47.0005-50c2.08-2.213 5.561-2.321 7.774-.24z" fill="#ecb732" fill-rule="evenodd"/><path clip-rule="evenodd" d="m163.323 337.658c-1.374.926-1.737 2.79-.811 4.164 4.664 6.921 11.809 10.81 20.998 11.86 9.257 1.058 17.541-1.307 24.654-7.088 1.286-1.045 1.481-2.934.436-4.22s-2.934-1.481-4.22-.436c-5.828 4.737-12.493 6.662-20.189 5.783-7.766-.887-13.188-4.035-16.703-9.252-.926-1.374-2.791-1.737-4.165-.811z" fill="#000" fill-rule="evenodd"/></svg>