<svg height="1000" viewBox="0 0 2733 1000" width="2733" xmlns="http://www.w3.org/2000/svg"><g fill="none" fill-rule="evenodd"><path d="m1085.46579 479.908451v-75.360156c11.27593-.235501 24.66611-.235501 38.52612-1.177503 30.77392-2.590505 62.48749-22.843547 62.48749-58.639621 0-28.73106-19.73289-57.93312-64.36681-58.639622l-76.11259.235501v193.581401zm-.521-110.15493v-49.5c13.65448 0 26.6027.469194 38.37381 2.111375 16.47956 2.111374 22.12969 8.914691 22.12969 22.755924 0 12.902843-8.71062 20.879147-23.07137 22.755924-11.77111 1.407583-24.95476 1.876777-37.43213 1.876777zm151.08637 110.15493 15.44738-39.328582h77.93906l15.68144 39.328582h42.36327l-80.74768-193.816902h-32.53312l-80.74768 193.816902zm79.10512-75.295775h-48.68098l24.22291-59.260563zm153.7033 77.387324c35.58989 0 65.32617-26.103233 68.1359-53.852616.46829-1.881314.70243-3.762629.70243-5.643943 0-55.263601-93.1893-58.791065-93.1893-80.896506.23414-10.582392 9.83404-20.224127 25.75584-19.988963 13.81449.235165 22.47782.940657 33.0143 12.228542l27.1607-20.929619c-12.87792-17.872484-42.14592-28.219712-64.15545-28.219712-34.88746 0-60.40915 29.160369-60.40915 57.850409.23414 49.619659 90.14543 53.382288 90.14543 81.366835 0 12.69887-10.77062 19.28347-28.33142 19.28347-17.32665 0-35.35574-8.701078-43.55078-16.696663l-26.22413 23.046098c15.68765 15.285677 45.42394 32.452668 70.94563 32.452668zm155.0837 0c35.58989 0 65.32617-26.103233 68.1359-53.852616.46829-1.881314.70243-3.762629.70243-5.643943 0-55.263601-93.18931-58.791065-93.18931-80.896506.23415-10.582392 9.83405-20.224127 25.75584-19.988963 13.8145.235165 22.47783.940657 33.01431 12.228542l27.1607-20.929619c-12.87792-17.872484-42.14592-28.219712-64.15545-28.219712-34.88746 0-60.40915 29.160369-60.40915 57.850409.23414 49.619659 90.14543 53.382288 90.14543 81.366835 0 12.69887-10.77062 19.28347-28.33142 19.28347-17.32666 0-35.35574-8.701078-43.55078-16.696663l-26.22413 23.046098c15.68765 15.285677 45.42394 32.452668 70.94563 32.452668zm129.34184-2.091549v-193.816902h-39.64023v193.816902zm114.16931 2.091549c51.57188 0 93.76802-46.145065 93.76802-99.117717.23345-52.737218-42.19614-98.882283-93.5336-98.882283-51.33747.235434-94.2359 45.909631-94.2359 98.882283s42.66401 99.117717 94.00148 99.117717zm-.11673-41.135435c-29.70444.234748-52.15819-24.883287-52.15819-57.982755 0-32.86472 22.45375-57.748007 52.39209-57.748007 29.70444 0 51.9243 24.883287 51.9243 57.748007 0 33.099468-22.21986 57.982755-52.1582 57.982755zm154.21674 39.043886v-110.449729l89.50939 96.084199 28.19193 14.36553v-193.816902h-39.23378l-.46986 110.68523-89.50939-96.3197-27.957-14.36553v193.816902zm169.3394 0 15.44738-39.328582h77.93907l15.68143 39.328582h42.36328l-80.74768-193.816902h-32.53313l-80.74768 193.816902zm79.10513-75.295775h-48.68099l24.22291-59.260563zm168.63965 75.295775v-157.549827h51.12021v-36.267075h-141.87029v36.267075h51.3547v157.549827zm194.38138 0v-36.267075h-83.77836v-42.625589h69.97131v-36.267075h-69.97131v-42.390088h83.77836v-36.267075h-123.09334v193.816902zm-1546.74356 238v-75.360156c11.21613-.235501 24.53528-.235501 38.32176-1.177503 30.61068-2.590505 62.15603-22.843547 62.15603-58.639621 0-28.73106-19.62822-57.93312-64.02538-58.639622l-75.70885.235501v193.581401zm-.32551-110.15493v-49.5c13.64963 0 26.59325.469194 38.36017 2.111375 16.47369 2.111374 22.12181 8.914691 22.12181 22.755924 0 12.902843-8.70752 20.879147-23.06317 22.755924-11.76692 1.407583-24.94587 1.876777-37.41881 1.876777zm244.01351 110.15493v-36.267075h-83.74855v-42.625589h69.94642v-36.267075h-69.94642v-42.390088h83.74855v-36.267075h-123.04955v193.816902zm109.26233 2.091549c51.55354 0 93.73467-46.145065 93.73467-99.117717.23337-52.737218-42.18113-98.882283-93.50033-98.882283-51.3192.235434-94.20237 45.909631-94.20237 98.882283s42.64883 99.117717 93.96803 99.117717zm-.11668-41.135435c-29.69388.234748-52.13964-24.883287-52.13964-57.982755 0-32.86472 22.44576-57.748007 52.37345-57.748007 29.69388 0 51.90583 24.883287 51.90583 57.748007 0 33.099468-22.21195 57.982755-52.13964 57.982755zm153.96365 39.043886v-75.360156c11.21612-.235501 24.53527-.235501 38.32176-1.177503 30.61068-2.590505 62.15603-22.843547 62.15603-58.639621 0-28.73106-19.62822-57.93312-64.02538-58.639622l-75.70885.235501v193.581401zm-.32551-110.15493v-49.5c13.64963 0 26.59324.469194 38.36017 2.111375 16.47369 2.111374 22.12181 8.914691 22.12181 22.755924 0 12.902843-8.70752 20.879147-23.06317 22.755924-11.76692 1.407583-24.94587 1.876777-37.41881 1.876777zm236.36636 110.15493v-36.267075h-75.9967v-157.549827h-39.4057v193.816902zm143.90541 0v-36.267075h-83.74855v-42.625589h69.94641v-36.267075h-69.94641v-42.390088h83.74855v-36.267075h-123.04955v193.816902z" fill="#2d2d2d" fill-rule="nonzero"/><path d="m512.309369 134.254256c-153.723808.697247-292.72579 98.319724-345.913999 242.9402-53.122336 144.440154-7.329973 313.554407 111.36088 411.255024 58.891296 48.474637 130.761752 77.171927 207.84623 82.988323 77.399874 5.860474 152.615927-12.007461 217.499755-51.624267 64.718144-39.516627 115.161606-97.854893 145.872832-168.713537 30.665314-70.744439 38.917521-147.583772 23.868322-222.211151-29.82093-147.896331-154.131029-267.115407-302.297472-289.924173-19.754195-3.039432-39.346699-4.624265-58.236548-4.710419" fill="#fff"/><path d="m515.903075 514.19223c-39.08503 0-70.770147-31.806828-70.770147-71.041994s31.685117-71.039991 70.770147-71.039991 70.768152 31.804825 70.768152 71.039991-31.683122 71.041994-70.768152 71.041994m166.418211-189.064018.051887.010017-38.103164-34.150721 18.817092 18.632947c-32.367634-22.952121-71.865766-36.440524-114.507065-36.440524-109.739429 0-198.70003 89.304326-198.70003 199.465293 0 4.858069.181605 9.674068.520867 14.445994l-.005987-.004007.015966.172286c.259436 3.591966.606681 7.157889 1.055704 10.693761l12.496833 127.024977 7.020737 71.32847-24.26924 16.311091 31.303946 28.234896c4.985163 5.537196 14.195141 6.522833 20.094316.298495l73.314616-77.376515 5.332407-5.104478c22.275574 8.672404 46.492926 13.43832 71.819865 13.43832 109.737434 0 198.700031-89.302323 198.700031-199.46329 0-58.455088-25.049543-111.034418-64.958781-147.517012" fill="#5bcca7"/><path d="m516.082338 514.512987c-39.055527 0-70.716726-31.806684-70.716726-71.041673s31.661199-71.03967 70.716726-71.03967 70.714733 31.804681 70.714733 71.03967-31.659206 71.041673-70.714733 71.041673m.075778-270.544129c-109.656592 0-198.550042 89.30192-198.550042 199.462389 0 7.055688.368919 14.025232 1.082826 20.890604l12.99192 131.43571 10.628847 108.062995c1.150627 11.691366 15.436754 16.621532 23.495135 8.109433l73.259274-77.376166 5.027265-5.212634c22.342513 8.746487 46.643286 13.552448 72.064775 13.552448 109.654598 0 198.550042-89.30192 198.550042-199.46239 0-110.160469-88.895444-199.462389-198.550042-199.462389" fill="#382c63"/><path d="m527.209594 126.628455c-154.718487.699168-294.627175 98.957206-348.163998 244.516213-53.472954 145.386718-7.378953 315.612906 112.09341 413.953082 59.27113 48.791455 131.605621 77.675677 209.185414 83.531453 77.899142 5.877813 153.612742-12.088181 218.929543-51.970764 65.143155-39.774402 115.91362-98.494433 146.822588-169.809491 30.861066-71.200868 39.168126-148.53798 24.021015-223.653383-30.016788-148.868531-155.14362-268.872875-304.287475-291.8292-19.873472-3.057104-39.591262-4.651766-58.600497-4.73791m1.987946 769.721026c-10.247103 0-20.530134-.388649-30.863062-1.16795-83.044649-6.266462-160.510675-37.214128-224.019163-89.493406-128.070829-105.419996-177.4820659-287.902645-120.156967-443.764852 57.353041-155.938334 207.247365-261.198062 372.993364-261.923273h.113768c20.334532.088147 41.383607 1.786983 62.56641 5.046425 159.921875 24.615094 294.088273 153.269879 326.270645 312.868324 16.228905 80.490376 7.341029 163.326669-25.697596 239.555931-33.104491 76.379513-87.52152 139.292545-157.365089 181.93774-61.400787 37.492592-131.324194 56.941061-203.84231 56.941061" fill="#382c63"/><path d="m498.45168 125.604203c-156.453916.709383-297.937263 100.153233-352.072676 247.472408-54.0735758 147.152851-7.462345 319.444707 113.351444 418.978733 59.938129 49.380259 133.083471 78.613244 211.528854 84.538795 78.78449 5.951601 155.338853-12.237856 221.390879-52.602541 65.878483-40.258477 117.221251-99.69033 148.476927-171.867027 31.207801-72.058467 39.605682-150.331046 24.288027-226.355244-30.356045-150.673714-156.890765-272.134482-307.713513-295.369776-20.093077-3.096035-40.026574-4.70918-59.249942-4.795348m1.998736 776.309292c-10.2889 0-20.621685-.388758-30.998354-1.174289-83.4123-6.300282-161.215375-37.408923-225.005358-89.961366-128.627209-105.972576-178.2525014-289.410159-120.678146-446.087576 57.602281-156.759578 208.155738-262.571843 374.629264-263.299261h.103727c20.426199.088172 41.570507 1.795501 62.852453 5.071887 160.616951 24.746239 295.362046 154.07234 327.684911 314.503074 16.301064 80.911725 7.376571 164.186055-25.808024 240.819439-33.254412 76.77967-87.904469 140.026961-158.051708 182.89252-61.667574 37.685462-131.892608 57.235572-204.728765 57.235572" fill="#5bcca7"/><path d="m512.309369 134.254256c-153.723808.697247-292.72579 98.319724-345.913999 242.9402-53.122336 144.440154-7.329973 313.554407 111.36088 411.255024 58.891296 48.474637 130.761752 77.171927 207.84623 82.988323 77.399874 5.860474 152.615927-12.007461 217.499755-51.624267 64.718144-39.516627 115.161606-97.854893 145.872832-168.713537 30.665314-70.744439 38.917521-147.583772 23.868322-222.211151-29.82093-147.896331-154.131029-267.115407-302.297472-289.924173-19.754195-3.039432-39.346699-4.624265-58.236548-4.710419m1.986199 769.745744c-10.302284 0-20.656469-.390698-31.044588-1.176102-83.544116-6.305269-161.478966-37.440917-225.37668-90.03692-128.859393-106.069575-178.5742498-289.671722-120.894635-446.492002 57.699576-156.886399 208.506965-262.783666 375.261834-263.512969h.13574c20.450862.088157 41.620348 1.795208 62.921582 5.073067 160.906063 24.768267 295.899715 154.213621 328.279747 314.788612 16.328751 80.984742 7.389858 164.325695-25.848531 241.012755-33.308256 76.84334-88.057478 140.136462-158.332987 183.043148-61.785756 37.727429-132.133127 57.300411-205.101482 57.300411" fill="#2d2d2d"/></g></svg>