<svg width="1600" height="72" viewBox="0 0 1600 72" xmlns="http://www.w3.org/2000/svg" xmlns:xlink="http://www.w3.org/1999/xlink">
    <defs>
        <linearGradient x1="89.414%" y1="61.013%" x2="12.037%" y2="61.013%" id="d482newe7b">
            <stop stop-color="#282F64" offset="0%"/>
            <stop stop-color="#191E3F" offset="100%"/>
        </linearGradient>
        <linearGradient x1="89.414%" y1="61.013%" x2="12.037%" y2="61.013%" id="d99hf5iw4d">
            <stop stop-color="#2E3570" offset="0%"/>
            <stop stop-color="#191E3F" offset="100%"/>
        </linearGradient>
        <linearGradient x1="89.414%" y1="61.013%" x2="12.037%" y2="61.013%" id="ev27gpsgke">
            <stop stop-color="#2E3570" offset="0%"/>
            <stop stop-color="#191E3F" stop-opacity="0" offset="100%"/>
        </linearGradient>
        <linearGradient x1="50%" y1="0%" x2="50%" y2="100%" id="saa7qmgvhg">
            <stop stop-color="#403F9F" stop-opacity="0" offset="0%"/>
            <stop stop-opacity=".2" offset="100%"/>
        </linearGradient>
        <linearGradient x1="0%" y1="32.091%" x2="100%" y2="67.909%" id="ce5gxpf76i">
            <stop stop-opacity=".3" offset="0%"/>
            <stop stop-color="#1F1845" stop-opacity="0" offset="100%"/>
        </linearGradient>
        <linearGradient x1="50%" y1="0%" x2="50%" y2="100%" id="le5mg3xf6k">
            <stop stop-color="#FFC62C" stop-opacity="0" offset="0%"/>
            <stop stop-color="#FF6663" stop-opacity=".3" offset="100%"/>
        </linearGradient>
        <linearGradient x1="50%" y1="0%" x2="50%" y2="100%" id="06rcssgl7m">
            <stop stop-color="#A7A7EE" stop-opacity="0" offset="0%"/>
            <stop stop-color="#4C55A0" stop-opacity=".2" offset="100%"/>
        </linearGradient>
        <linearGradient x1="50%" y1="0%" x2="50%" y2="100%" id="7q9jn06kho">
            <stop stop-color="#A7A7EE" stop-opacity="0" offset="0%"/>
            <stop stop-color="#4C55A0" stop-opacity=".2" offset="100%"/>
        </linearGradient>
        <linearGradient x1="50%" y1="0%" x2="50%" y2="100%" id="ezcb32jf6q">
            <stop stop-color="#403F9F" stop-opacity="0" offset="0%"/>
            <stop stop-opacity=".2" offset="100%"/>
        </linearGradient>
        <linearGradient x1="50%" y1="0%" x2="50%" y2="100%" id="txlzgcqvys">
            <stop stop-color="#FFC62C" stop-opacity="0" offset="0%"/>
            <stop stop-color="#FF6663" stop-opacity=".3" offset="100%"/>
        </linearGradient>
        <linearGradient x1="98.428%" y1="50%" x2="1.572%" y2="100%" id="ufuctnxgnt">
            <stop stop-opacity=".2" offset="0%"/>
            <stop stop-color="#FFC42C" stop-opacity="0" offset="100%"/>
        </linearGradient>
        <linearGradient x1="50%" y1="0%" x2="50%" y2="100%" id="lrpq226fxv">
            <stop stop-color="#403F9F" stop-opacity="0" offset="0%"/>
            <stop stop-opacity=".2" offset="100%"/>
        </linearGradient>
        <linearGradient x1="50%" y1="0%" x2="50%" y2="100%" id="2hrf3zwz1x">
            <stop stop-color="#FFC62C" stop-opacity="0" offset="0%"/>
            <stop stop-color="#FF6663" stop-opacity=".3" offset="100%"/>
        </linearGradient>
        <linearGradient x1="100%" y1="38.311%" x2="0%" y2="61.689%" id="zw29mcq42y">
            <stop stop-opacity=".15" offset="0%"/>
            <stop stop-color="#FFC42C" stop-opacity="0" offset="100%"/>
        </linearGradient>
        <linearGradient x1="50%" y1="0%" x2="50%" y2="100%" id="ug2qg3glsA">
            <stop stop-color="#FFC62C" stop-opacity="0" offset="0%"/>
            <stop stop-color="#FF6663" stop-opacity=".3" offset="100%"/>
        </linearGradient>
        <linearGradient x1="76.207%" y1="4.524%" x2="5.77%" y2="136.106%" id="qs3xaqlfhB">
            <stop stop-color="#F3ECD7" offset="0%"/>
            <stop stop-color="#FFD24B" offset="100%"/>
        </linearGradient>
        <linearGradient x1="50%" y1="0%" x2="50%" y2="100%" id="pclbq5xneC">
            <stop stop-color="#52C761" offset="0%"/>
            <stop stop-color="#51A256" offset="100%"/>
        </linearGradient>
        <linearGradient x1="50%" y1="0%" x2="50%" y2="100%" id="2gwsduzgaD">
            <stop stop-color="#FFE56C" offset="0%"/>
            <stop stop-color="#FFC73A" offset="100%"/>
        </linearGradient>
        <linearGradient x1="50%" y1="0%" x2="50%" y2="100%" id="5r2vls0e8E">
            <stop stop-color="#89E99B" offset="0%"/>
            <stop stop-color="#53CE63" offset="100%"/>
        </linearGradient>
        <linearGradient x1="50%" y1="0%" x2="50%" y2="100%" id="pfjfs4qvjF">
            <stop stop-color="#51C861" offset="0%"/>
            <stop stop-color="#51A256" offset="100%"/>
        </linearGradient>
        <linearGradient x1="50%" y1="0%" x2="50%" y2="100%" id="gq2p1x81pG">
            <stop stop-color="#D2A732" offset="0%"/>
            <stop stop-color="#A17C1D" offset="100%"/>
        </linearGradient>
        <linearGradient x1="50%" y1="0%" x2="50%" y2="100%" id="cyjvslt1sI">
            <stop stop-color="#348B70" offset="0%"/>
            <stop stop-color="#288384" offset="100%"/>
        </linearGradient>
        <linearGradient x1="84.661%" y1="26.487%" x2="50%" y2="58.486%" id="6x10eg2iiH">
            <stop stop-color="#52D5B3" offset="0%"/>
            <stop stop-color="#2F8977" offset="100%"/>
        </linearGradient>
        <linearGradient x1="34.164%" y1="4.57%" x2="101.204%" y2="265.256%" id="c1596p1blJ">
            <stop stop-color="#DEFFF0" offset="0%"/>
            <stop stop-color="#3EAF7D" offset="100%"/>
        </linearGradient>
        <linearGradient x1="24.492%" y1="9.15%" x2="58.635%" y2="100%" id="nryep7r8dK">
            <stop stop-color="#263E7B" offset="0%"/>
            <stop stop-color="#253867" offset="100%"/>
        </linearGradient>
        <linearGradient x1="101.462%" y1="124.814%" x2="19.296%" y2="50%" id="2s4xkdxeqN">
            <stop stop-color="#243B74" offset="0%"/>
            <stop stop-color="#2357BD" offset="100%"/>
        </linearGradient>
        <linearGradient x1="69.68%" y1="5.498%" x2="24.256%" y2="96.98%" id="9qa78t1wxO">
            <stop stop-color="#0075C4" offset="0%"/>
            <stop stop-color="#005F9F" offset="100%"/>
        </linearGradient>
        <linearGradient x1="50%" y1="0%" x2="50%" y2="100%" id="7812l4nxyQ">
            <stop stop-color="#348B70" offset="0%"/>
            <stop stop-color="#288384" offset="100%"/>
        </linearGradient>
        <linearGradient x1="84.661%" y1="26.487%" x2="50%" y2="58.486%" id="1zyyvdzupP">
            <stop stop-color="#52D5B3" offset="0%"/>
            <stop stop-color="#2F8977" offset="100%"/>
        </linearGradient>
        <linearGradient x1="34.164%" y1="4.57%" x2="82.543%" y2="143.256%" id="68oz963z5R">
            <stop stop-color="#E2FFF2" offset="0%"/>
            <stop stop-color="#3EAF7D" offset="100%"/>
        </linearGradient>
        <path id="qtgw17kl6a" d="M0 0h1600v72H0z"/>
        <path d="M10.623 44.566c-7.19-5.77-13.431-18.727-9.295-31.037 4.085-12.22 18.46-17.497 29.61-10.213 10.98 7.358 11.03 14.663 26.292 17.906 15.16 3.305 20.9 23.4 6.905 31.037-14.108 7.764-46.326-1.938-53.512-7.693z" id="sxlwjl92ff"/>
        <path d="M62.944 52.854c-11.35 5.147-32.317.706-44.44-4.16-3.082-2.792-6.093-6.098-8.944-9.964-5.085-6.8-5.75-13.432-1.991-19.896h22.706c4.497 3.822 8.17 6.563 11.021 8.224 4.36 2.422 17.316 4.66 22.042 9.948 3.955 4.485 2.801 10.893-.394 15.848z" id="hdrilhddah"/>
        <path d="M8.233 47.219c-3.551-.35-5.543-1.279-5.976-2.786-.619-2.295-2.853-4.867-2.124-5.836.824-.885 1.978 2.062 2.655 2.388.896.359.518-9.696 3.851-7.163 3.334 2.616 2.558 4.848 2.125 7.826a84.416 84.416 0 0 0-.531 5.57z" id="ow1x3npuoj"/>
        <path d="M37.445 37.138c-6.631 0-28.923 4.929-30.142 5.173-1.274.294-1.866 3.545 0 4.642 1.81 1.18 24.636.684 26.026.663 1.484.021 10.805-10.478 4.116-10.478z" id="22c0oozldl"/>
        <path d="M37.445 37.138h37.578c3.657 0 2.67 5.637 0 5.704-1.761-.012-23.104 3.171-23.104 4.244 0 .715.885 6.109 2.655 16.182l-17.129 2.785c-4.68-6.876-8.365-12.476-8.365-17.375 0-4.9 1.936-11.54 8.365-11.54z" id="9j5y2nnz4n"/>
        <path d="M38.64 67.512c-1.887 4.96-2.348 13.133 0 16.314 2.33 3.2 15.092 18.299 16.997 19.233 1.903.996 4.78-1.203 4.78-3.316 0-2.157-6.58-14.599-11.685-19.63-5.108-4.866-8.223-17.409-10.092-12.601z" id="sx3yrisb7p"/>
        <path d="M20.98 71.756c.997 5.395 9.097 8.755 24.3 10.08 1.033-.123 1.785-.742 2.257-1.856.83-1.731.843-3.01.797-3.05 8.338.04 11.748-10.553 6.108-16.978-5.568-6.348-34.772 3.668-33.462 11.804z" id="5hs00ybdgu"/>
        <path d="M50.06 18.834c2.971.053 4.21 1.335 3.718 3.847-.47 2.827-1.5 5.463-3.851 5.173-2.551 4.684-5.653 7.56-11.685 7.56-5.968 0-8.848-5.675-9.295-8.754-1.164-3.123-.053-14.26.398-15.386.858-2.676 6.328 2.174 12.35 3.98 3.912 1.308 6.7 2.502 8.365 3.58z" id="26itinqodw"/>
        <path d="M75.023 42.842c-3.184 0-3.69-9.75-2.39-9.816 1.327.066.466 3.934 1.726 3.98 1.274-.046.57-9.201 3.984-8.622 3.353.638 3.752 7.398 2.125 10.478-1.605 3.052-2.378 3.98-5.445 3.98z" id="b4i1jt3viz"/>
        <path d="m37.643 36.727-15.43-1.15c-.113 0-.224-.02-.338-.036l-.108-.018-.227-.036-.131-.028-.204-.044-.14-.036-.195-.057-.142-.044-.193-.064-.142-.052-.194-.074-.136-.06-.196-.087c-.044-.021-.088-.039-.132-.062l-.211-.106-.113-.06a3.074 3.074 0 0 1-.258-.149l-.054-.018a5.775 5.775 0 0 1-.315-.196l-.095-.062-.217-.15-.118-.084c-.062-.047-.127-.09-.189-.14l-.126-.097-.175-.142-.127-.106-.17-.147-.124-.11-.146-.14-.18-.173-.132-.131a5.875 5.875 0 0 1-.176-.183l-.129-.137-.17-.196a3.056 3.056 0 0 1-.121-.136l-.175-.214-.106-.132-.19-.258-.083-.108a13.312 13.312 0 0 1-.258-.369l-.041-.062a22.07 22.07 0 0 1-.207-.317c-.028-.046-.054-.092-.082-.136a8.46 8.46 0 0 1-.152-.258c-.05-.088-.06-.106-.088-.16-.028-.054-.09-.16-.134-.24-.044-.08-.057-.116-.088-.172a6.746 6.746 0 0 1-.118-.238l-.085-.18-.124-.24a5.628 5.628 0 0 0-.08-.183 2.651 2.651 0 0 1-.098-.258c-.03-.095-.049-.123-.072-.185l-.093-.258-.062-.183c-.03-.088-.056-.178-.085-.258l-.054-.173c-.028-.1-.054-.198-.08-.299l-.041-.147c-.036-.152-.072-.301-.103-.453L9.817 7.842a10.377 10.377 0 0 1-.116-.665c0-.072-.015-.142-.023-.214a13.036 13.036 0 0 1-.046-.433c0-.083 0-.163-.013-.245 0-.129-.013-.258-.013-.387v-.611c0-.108 0-.16.018-.237 0-.124.026-.242.041-.36 0-.073.018-.145.031-.217.02-.13.05-.258.078-.382 0-.057.02-.11.033-.165.044-.178.093-.353.15-.516 0-.023.018-.04.025-.064.05-.144.104-.286.163-.425a3.25 3.25 0 0 1 .162-.34 4.046 4.046 0 0 1 .242-.425l.073-.11c.054-.082.11-.162.17-.242l.098-.121c.057-.07.113-.137.173-.201.059-.065.072-.08.108-.116a7.24 7.24 0 0 1 .188-.183l.114-.103.216-.173.106-.08c.11-.081.225-.157.343-.227l-9.59 5.53a3.702 3.702 0 0 0-.344.222l-.105.08c-.073.054-.147.11-.217.173l-.116.103-.186.18c-.036.039-.074.078-.11.119a8.899 8.899 0 0 0-.17.2c-.057.07-.068.08-.099.122-.03.041-.116.16-.17.242-.023.037-.049.07-.072.109a4.368 4.368 0 0 0-.242.425c-.052.1-.103.201-.147.304l-.016.036c-.059.137-.113.281-.165.426 0 .02-.015.041-.023.064-.057.168-.106.34-.15.516l-.036.167A7.104 7.104 0 0 0 .106 10c-.013.072-.02.144-.031.217-.016.118-.031.237-.041.358 0 .08-.013.16-.019.237 0 .121-.012.242-.015.366v.258c0 .126 0 .258.013.387 0 .08 0 .162.013.258 0 .141.028.288.046.433 0 .072 0 .141.023.214.031.218.07.44.116.665L4.1 32.298c.031.152.067.302.103.451l.039.147.082.302.055.173c.025.09.054.18.085.257l.062.183.092.258c.024.062.047.124.073.186l.098.245c.033.082.051.121.08.183l.108.24.085.177c.039.08.077.16.118.24l.088.17.132.243.09.16c.049.085.1.17.152.257l.082.134c.067.109.137.217.21.323l.038.059c.082.124.17.258.258.369l.08.105c.064.085.126.17.19.258l.109.132c.056.072.116.141.175.214l.119.136c.056.067.116.132.172.196l.13.137.172.183.134.131.18.173c.024.026.05.05.075.072l.072.067.124.111.17.147.127.106.175.142.126.098.189.139.118.085c.072.052.144.1.217.147l.095.064c.103.067.209.134.315.196l.051.031.258.15.116.06c.067.035.137.071.209.105l.131.062.196.087.137.057c.064.028.129.052.193.077l.142.052.193.064.142.044.194.054.139.036c.07.018.136.034.206.047l.131.028.225.036.11.018c.114 0 .225.026.338.034l15.43 1.145a4.71 4.71 0 0 0 2.746-.586l9.59-5.53a4.71 4.71 0 0 1-2.727.562z" id="knh48u1foL"/>
        <filter x="-33.4%" y="-32.4%" width="166.9%" height="164.7%" filterUnits="objectBoundingBox" id="gn1twrq42M">
            <feGaussianBlur stdDeviation="6.5" in="SourceAlpha" result="shadowBlurInner1"/>
            <feOffset dx="14" dy="-10" in="shadowBlurInner1" result="shadowOffsetInner1"/>
            <feComposite in="shadowOffsetInner1" in2="SourceAlpha" operator="arithmetic" k2="-1" k3="1" result="shadowInnerInner1"/>
            <feColorMatrix values="0 0 0 0 0.117647059 0 0 0 0 0.321568627 0 0 0 0 0.725490196 0 0 0 0.430732354 0" in="shadowInnerInner1"/>
        </filter>
        <rect id="uhfyv47b4r" x="0" y="0" width="7.702" height="11.539" rx="3.851"/>
    </defs>
    <g fill="none" fill-rule="evenodd">
        <mask id="yvguywbp7c" fill="#fff">
            <use xlink:href="#qtgw17kl6a"/>
        </mask>
        <path d="M1658-22.28c-17.701 126.926-90.423 176.371-218.164 148.335C1248.224 84.002 1323.675 231 1036 231V-85h622v62.72z" fill="url(#d482newe7b)" mask="url(#yvguywbp7c)" transform="rotate(180 1347 73)"/>
        <path d="M1658-17.28c-17.701 126.926-90.423 176.371-218.164 148.335C1248.224 89.002 1323.675 236 1036 236V-80h622v62.72z" fill="url(#d99hf5iw4d)" mask="url(#yvguywbp7c)" transform="rotate(180 1347 78)"/>
        <path d="M622-2.28c-17.701 126.926-90.423 176.371-218.164 148.335C212.224 104.002 287.675 251 0 251V-65h622v62.72z" fill="url(#ev27gpsgke)" mask="url(#yvguywbp7c)" transform="rotate(180 311 93)"/>
        <g mask="url(#yvguywbp7c)">
            <path d="M1269.784 93.19c.217-.04.436-.077.474-.357-.09-.174-.177-.35-.271-.523-1-1.82-1.537-3.76-1.5-5.85.007-.358.03-.551.441-.285.225.146.513.162.794.167 1.155.02 2.24-.293 3.301-.698 2.429-.928 4.672-2.18 6.636-3.91.701-.603 1.337-1.265 1.66-2.154.263-.72.04-1.095-.691-1.322-.527-.164-1.038-.02-1.555.037-.212.03-.43.032-.634.091-3.727 1.076-7.07 2.792-9.605 5.848-.059.07-.1.192-.223.12-.098-.058-.083-.159-.064-.261.13-.691.232-1.388.383-2.074.747-3.382 2.19-6.542 3.111-9.87.05-.178.12-.346.365-.21.583.322 1.22.206 1.84.217 1.957-.386 3.777-1.14 5.504-2.118 1.742-.986 3.421-2.068 4.673-3.682.407-.525.895-1.105.524-1.809-.35-.66-1.07-.565-1.687-.526-1.202.076-2.337.447-3.438.913-2.432 1.029-4.695 2.332-6.599 4.2-.19.187-.36.395-.618.68.196-1.26.124-2.41.118-3.558-.014-2.457-.64-4.803-1.326-7.136-.056-.189-.123-.373-.187-.559-.097-.284-.054-.426.291-.512 1.012-.253 1.658-1.048 2.266-1.8 1.947-2.408 3.333-5.116 4.051-8.15a7.033 7.033 0 0 0 .192-1.985c-.058-1.137-.836-1.57-1.808-.956-.887.56-1.58 1.342-2.193 2.19-1.798 2.513-3.141 5.234-3.735 8.444-.2-.549-.35-.95-.493-1.354-.727-2.05-1.47-4.095-1.898-6.237-.036-.18-.092-.326.065-.483.77-.772 1.01-1.783 1.27-2.796.225-.872.248-1.772.437-2.646.037-2.1.063-4.201-.462-6.26-.185-.725-.422-1.433-.803-2.082-.583-.992-1.472-.997-2.03.013-.626 1.13-.93 2.353-1.062 3.643-.107 1.034-.246 2.06-.22 3.104.016.567.21 1.122.107 1.696.037 1.609.347 3.154 1.071 4.6.096.19.195.424.36.526.604.374.695.983.842 1.595.463 1.93 1.131 3.795 1.79 5.664.062.175.179.348.09.653-.64-.604-1.25-1.17-1.925-1.651-2.186-1.553-4.497-2.84-7.149-3.408-.429-.092-.86-.085-1.284-.045-.79.076-1.095.61-.854 1.387.186.6.566 1.07.984 1.513 2.408 2.553 5.325 4.273 8.646 5.329.13.041.256.095.383.143.752.038 1.505.28 2.252-.055.215-.096.261.127.306.261a36.205 36.205 0 0 1 1.307 5.417c.251 1.516.122 3.053.129 4.582 0 .212.015.428-.215.604-.076-.12-.148-.228-.217-.34a15.521 15.521 0 0 0-2.487-3.035c-1.03-.988-2.154-1.868-3.312-2.702-1.132-.616-2.219-1.333-3.51-1.594a2.866 2.866 0 0 0-.52-.064c-.923-.013-1.311.508-1.08 1.41.277 1.08.924 1.955 1.613 2.775 1.91 2.275 4.16 4.136 6.859 5.407.583.274 1.178.535 1.837.561.323.013.33.155.256.422-.391 1.42-.917 2.795-1.39 4.188-.73 2.152-1.498 4.292-1.863 6.536-.251.072-.282-.126-.366-.241-2.017-2.787-4.585-4.909-7.676-6.389-.58-.278-1.196-.488-1.854-.495-.892-.008-1.287.506-1.071 1.374.274 1.101.935 1.993 1.638 2.828 1.911 2.273 4.163 4.133 6.864 5.4.6.281 1.213.562 1.897.552.398-.006.376.252.367.514-.082 2.335.679 4.436 1.767 6.446.027.05.076.088.114.132M1231.784 93.19c.217-.04.436-.077.474-.357-.09-.174-.177-.35-.271-.523-1-1.82-1.537-3.76-1.5-5.85.007-.358.03-.551.441-.285.225.146.513.162.794.167 1.155.02 2.24-.293 3.301-.698 2.429-.928 4.672-2.18 6.636-3.91.701-.603 1.337-1.265 1.66-2.154.263-.72.04-1.095-.691-1.322-.527-.164-1.038-.02-1.555.037-.212.03-.43.032-.634.091-3.727 1.076-7.07 2.792-9.605 5.848-.059.07-.1.192-.223.12-.098-.058-.083-.159-.064-.261.13-.691.232-1.388.383-2.074.747-3.382 2.19-6.542 3.111-9.87.05-.178.12-.346.365-.21.583.322 1.22.206 1.84.217 1.957-.386 3.777-1.14 5.504-2.118 1.742-.986 3.421-2.068 4.673-3.682.407-.525.895-1.105.524-1.809-.35-.66-1.07-.565-1.687-.526-1.202.076-2.337.447-3.438.913-2.432 1.029-4.695 2.332-6.599 4.2-.19.187-.36.395-.618.68.196-1.26.124-2.41.118-3.558-.014-2.457-.64-4.803-1.326-7.136-.056-.189-.123-.373-.187-.559-.097-.284-.054-.426.291-.512 1.012-.253 1.658-1.048 2.266-1.8 1.947-2.408 3.333-5.116 4.051-8.15a7.033 7.033 0 0 0 .192-1.985c-.058-1.137-.836-1.57-1.808-.956-.887.56-1.58 1.342-2.193 2.19-1.798 2.513-3.141 5.234-3.735 8.444-.2-.549-.35-.95-.493-1.354-.727-2.05-1.47-4.095-1.898-6.237-.036-.18-.092-.326.065-.483.77-.772 1.01-1.783 1.27-2.796.225-.872.248-1.772.437-2.646.037-2.1.063-4.201-.462-6.26-.185-.725-.422-1.433-.803-2.082-.583-.992-1.472-.997-2.03.013-.626 1.13-.93 2.353-1.062 3.643-.107 1.034-.246 2.06-.22 3.104.016.567.21 1.122.107 1.696.037 1.609.347 3.154 1.071 4.6.096.19.195.424.36.526.604.374.695.983.842 1.595.463 1.93 1.131 3.795 1.79 5.664.062.175.179.348.09.653-.64-.604-1.25-1.17-1.925-1.651-2.186-1.553-4.497-2.84-7.149-3.408-.429-.092-.86-.085-1.284-.045-.79.076-1.095.61-.854 1.387.186.6.566 1.07.984 1.513 2.408 2.553 5.325 4.273 8.646 5.329.13.041.256.095.383.143.752.038 1.505.28 2.252-.055.215-.096.261.127.306.261a36.205 36.205 0 0 1 1.307 5.417c.251 1.516.122 3.053.129 4.582 0 .212.015.428-.215.604-.076-.12-.148-.228-.217-.34a15.521 15.521 0 0 0-2.487-3.035c-1.03-.988-2.154-1.868-3.312-2.702-1.132-.616-2.219-1.333-3.51-1.594a2.866 2.866 0 0 0-.52-.064c-.923-.013-1.311.508-1.08 1.41.277 1.08.924 1.955 1.613 2.775 1.91 2.275 4.16 4.136 6.859 5.407.583.274 1.178.535 1.837.561.323.013.33.155.256.422-.391 1.42-.917 2.795-1.39 4.188-.73 2.152-1.498 4.292-1.863 6.536-.251.072-.282-.126-.366-.241-2.017-2.787-4.585-4.909-7.676-6.389-.58-.278-1.196-.488-1.854-.495-.892-.008-1.287.506-1.071 1.374.274 1.101.935 1.993 1.638 2.828 1.911 2.273 4.163 4.133 6.864 5.4.6.281 1.213.562 1.897.552.398-.006.376.252.367.514-.082 2.335.679 4.436 1.767 6.446.027.05.076.088.114.132" fill="#454E90"/>
            <path d="M1256.02 102.19c-.325-.058-.652-.113-.71-.523.136-.256.266-.515.407-.767 1.501-2.67 2.305-5.515 2.249-8.582-.01-.524-.045-.807-.661-.416-.338.214-.769.238-1.19.245-1.733.028-3.362-.43-4.953-1.024-3.643-1.361-7.008-3.199-9.954-5.734-1.051-.886-2.005-1.856-2.49-3.16-.394-1.055-.059-1.606 1.037-1.939.791-.24 1.557-.029 2.333.055.317.042.646.047.95.133 5.591 1.578 10.606 4.095 14.408 8.577.088.103.151.281.335.175.147-.084.124-.232.096-.383-.195-1.013-.348-2.035-.575-3.041-1.12-4.96-3.285-9.595-4.666-14.475-.074-.261-.18-.509-.547-.31-.875.473-1.83.304-2.76.32-2.936-.566-5.666-1.673-8.257-3.107-2.613-1.447-5.132-3.033-7.01-5.401-.61-.77-1.342-1.62-.785-2.652.524-.968 1.605-.829 2.53-.772 1.803.111 3.505.656 5.157 1.34 3.648 1.508 7.043 3.419 9.898 6.16.285.274.54.578.928.997-.294-1.847-.186-3.534-.177-5.218.021-3.605.96-7.046 1.99-10.468.082-.276.184-.547.28-.82.145-.415.08-.623-.438-.75-1.517-.371-2.487-1.536-3.398-2.639-2.92-3.532-5-7.504-6.077-11.954a10.095 10.095 0 0 1-.288-2.911c.087-1.669 1.255-2.303 2.713-1.402 1.33.822 2.368 1.967 3.288 3.212 2.697 3.685 4.712 7.676 5.604 12.384.3-.805.523-1.394.738-1.986 1.09-3.007 2.207-6.006 2.848-9.148.054-.263.137-.478-.098-.708-1.154-1.132-1.515-2.615-1.906-4.1-.336-1.28-.371-2.6-.654-3.882-.056-3.081-.094-6.162.693-9.18.277-1.064.633-2.102 1.204-3.054.875-1.456 2.208-1.463 3.046.019.938 1.657 1.393 3.45 1.592 5.343.16 1.517.37 3.021.329 4.552-.023.832-.313 1.646-.16 2.487-.055 2.36-.52 4.626-1.607 6.747-.143.28-.29.622-.539.772-.906.549-1.043 1.44-1.263 2.339-.695 2.83-1.697 5.566-2.684 8.306-.093.258-.269.511-.135.959.96-.887 1.873-1.718 2.887-2.422 3.28-2.277 6.745-4.164 10.723-4.998.643-.135 1.291-.125 1.926-.066 1.186.11 1.643.894 1.281 2.034-.28.88-.85 1.57-1.476 2.22-3.612 3.743-7.987 6.266-12.97 7.815-.194.06-.382.14-.574.21-1.127.056-2.257.412-3.377-.08-.323-.142-.392.185-.459.383-.875 2.595-1.504 5.252-1.96 7.944-.378 2.223-.183 4.478-.194 6.72-.001.312-.022.628.322.886.114-.175.223-.335.326-.498 1.041-1.648 2.31-3.12 3.73-4.452 1.544-1.449 3.231-2.74 4.968-3.963 1.698-.903 3.329-1.955 5.266-2.337.256-.05.52-.09.78-.094 1.384-.02 1.966.745 1.62 2.066-.416 1.585-1.387 2.869-2.42 4.072-2.864 3.336-6.24 6.066-10.289 7.93-.874.402-1.767.785-2.755.823-.484.018-.495.226-.385.619.587 2.083 1.376 4.1 2.085 6.143 1.096 3.155 2.248 6.294 2.795 9.585.377.105.423-.184.549-.354 3.026-4.086 6.877-7.199 11.514-9.37.871-.408 1.795-.716 2.782-.726 1.338-.012 1.93.743 1.606 2.015-.412 1.616-1.402 2.923-2.457 4.148-2.867 3.334-6.245 6.062-10.296 7.92-.9.412-1.82.824-2.846.81-.596-.01-.564.37-.55.754.123 3.423-1.019 6.505-2.651 9.453-.04.073-.113.13-.171.194" fill="#6B73AB"/>
            <path d="M1291.752 80.19c-.364-.065-.731-.126-.795-.583.151-.285.297-.573.456-.854 1.679-2.974 2.579-6.141 2.516-9.557-.011-.583-.05-.899-.74-.463-.378.238-.86.265-1.332.272-1.938.031-3.762-.478-5.542-1.14-4.076-1.516-7.843-3.562-11.139-6.385-1.176-.986-2.243-2.067-2.787-3.52-.44-1.174-.065-1.787 1.161-2.159.885-.267 1.742-.032 2.61.061.355.048.723.052 1.064.148 6.257 1.758 11.869 4.56 16.123 9.552.098.116.169.313.375.196.164-.095.139-.26.107-.427-.218-1.128-.39-2.267-.644-3.387-1.253-5.523-3.676-10.686-5.221-16.12-.083-.29-.2-.566-.612-.345-.979.527-2.047.338-3.09.356-3.284-.63-6.34-1.862-9.239-3.46-2.923-1.61-5.742-3.377-7.843-6.014-.683-.858-1.503-1.805-.88-2.954.587-1.078 1.797-.923 2.832-.86 2.017.124 3.922.731 5.77 1.492 4.083 1.68 7.882 3.808 11.077 6.861.32.305.604.643 1.038 1.11-.329-2.057-.208-3.936-.197-5.811.023-4.014 1.073-7.846 2.225-11.657.093-.307.207-.61.314-.913.163-.463.09-.695-.49-.836-1.698-.413-2.782-1.71-3.802-2.939-3.268-3.933-5.595-8.356-6.8-13.312a11.19 11.19 0 0 1-.322-3.242c.097-1.858 1.403-2.565 3.035-1.561 1.488.915 2.65 2.19 3.68 3.577 3.018 4.104 5.273 8.548 6.27 13.791.336-.897.586-1.552.827-2.212 1.22-3.348 2.47-6.688 3.187-10.188.06-.292.153-.531-.11-.788-1.291-1.26-1.696-2.912-2.133-4.566-.376-1.425-.415-2.894-.732-4.322-.063-3.432-.105-6.862.775-10.224.31-1.185.709-2.34 1.349-3.401.978-1.621 2.47-1.63 3.408.021 1.05 1.845 1.559 3.843 1.782 5.95.178 1.69.413 3.365.367 5.07-.025.926-.35 1.833-.178 2.77-.063 2.627-.582 5.151-1.798 7.513-.16.311-.326.692-.604.86-1.014.61-1.167 1.604-1.413 2.604-.778 3.152-1.9 6.2-3.004 9.25-.104.288-.3.57-.151 1.068 1.074-.987 2.096-1.912 3.231-2.697 3.67-2.535 7.548-4.637 11.999-5.566.72-.15 1.445-.14 2.156-.073 1.327.123 1.838.995 1.433 2.265-.313.98-.95 1.748-1.652 2.472-4.041 4.169-8.938 6.978-14.513 8.703-.218.068-.428.156-.643.234-1.261.063-2.525.459-3.78-.09-.36-.157-.438.207-.513.427-.978 2.89-1.683 5.85-2.194 8.847-.422 2.476-.204 4.987-.216 7.485-.002.346-.025.698.36.986.128-.195.25-.374.365-.556 1.165-1.834 2.585-3.475 4.174-4.957 1.728-1.613 3.616-3.05 5.56-4.413 1.9-1.006 3.724-2.178 5.892-2.603.287-.056.582-.1.873-.105 1.549-.021 2.2.83 1.813 2.302-.466 1.764-1.553 3.194-2.708 4.534-3.205 3.716-6.983 6.755-11.514 8.831-.978.448-1.977.874-3.083.916-.542.02-.554.253-.43.69.657 2.32 1.54 4.565 2.333 6.84 1.225 3.514 2.515 7.01 3.128 10.675.421.117.473-.205.613-.394 3.387-4.55 7.697-8.017 12.885-10.435.975-.454 2.009-.797 3.113-.808 1.497-.014 2.16.827 1.798 2.244-.461 1.799-1.57 3.254-2.75 4.62-3.208 3.712-6.988 6.75-11.522 8.818-1.007.46-2.036.92-3.184.902-.668-.01-.632.412-.616.84.138 3.813-1.14 7.245-2.967 10.528-.045.082-.126.144-.191.216" fill="#6B73AB"/>
            <g transform="translate(1137.05 3)">
                <use fill="#464D89" xlink:href="#sxlwjl92ff"/>
                <use fill="url(#saa7qmgvhg)" xlink:href="#sxlwjl92ff"/>
                <use fill="url(#ce5gxpf76i)" xlink:href="#hdrilhddah"/>
            </g>
            <g transform="translate(1117 3)">
                <use fill="#FFC62C" xlink:href="#ow1x3npuoj"/>
                <use fill="url(#le5mg3xf6k)" xlink:href="#ow1x3npuoj"/>
            </g>
            <g transform="translate(1117 3)">
                <use fill="#EFEFFF" xlink:href="#22c0oozldl"/>
                <use fill="url(#06rcssgl7m)" xlink:href="#22c0oozldl"/>
            </g>
            <g transform="translate(1117 3)">
                <use fill="#EFEFFF" xlink:href="#9j5y2nnz4n"/>
                <use fill="url(#7q9jn06kho)" xlink:href="#9j5y2nnz4n"/>
            </g>
            <g fill-rule="nonzero">
                <path d="M1155.772 52.254c-.46-2.276-.024-3.77-.024-3.77s-.116.91.8 2.375c-.01 1.817.347 2.765.347 2.765l.073-.054-.073.064s-.544-.444-1.123-1.38zM1157.94 51.932c.22.222.426.375.574.448l-.002-.001s.166.06.196.02c.203-.215.252-.616.117-1.37-.774-.441-.872-1.13-.872-1.13s-.14.956-.013 2.033z" fill="#364FDE"/>
                <path d="M1155.748 48.484s-.637 2.182.441 5.289c.03.09 0 .19-.078.249l-1.137.797c-.108.08-.265.03-.314-.1-.303-.826-1.136-3.565-.293-6.563.039-.12.166-.19.284-.14l1.097.468z" fill="#56D8FF"/>
                <path d="m1157.924 52.867-1.03.757s-.548-1.455-.264-4.213a.213.213 0 0 1 .323-.16l1 .648s-.196 1.344.088 2.639c.03.13-.02.259-.117.329zM1159.825 51.183l-.95-.627c-.06-.04-.148.02-.128.09.225 1.006.196 1.504-.04 1.753-.029.04-.195-.02-.195-.02.156.08.196.04.196.04.156-.12.744-.548 1.117-.807.147-.11.147-.329 0-.429z" fill="#667DFF"/>
            </g>
            <g transform="translate(1117 3)">
                <use fill="#464D89" xlink:href="#sx3yrisb7p"/>
                <use fill="url(#ezcb32jf6q)" xlink:href="#sx3yrisb7p"/>
            </g>
            <g transform="translate(1153.117 33.241)">
                <use fill="#FFC62C" xlink:href="#uhfyv47b4r"/>
                <use fill="url(#txlzgcqvys)" xlink:href="#uhfyv47b4r"/>
            </g>
            <path d="M7.702 6.715c-1.543.723-3.363 1.11-5.577 1.11A8.675 8.675 0 0 1 0 7.569V3.846A3.849 3.849 0 0 1 3.85 0a3.849 3.849 0 0 1 3.852 3.846v2.87z" fill="url(#ufuctnxgnt)" transform="translate(1153.117 33.241)"/>
            <g transform="translate(1117 3)">
                <use fill="#464D89" xlink:href="#5hs00ybdgu"/>
                <use fill="url(#lrpq226fxv)" xlink:href="#5hs00ybdgu"/>
            </g>
            <g transform="translate(1117 3)">
                <use fill="#FFC62C" xlink:href="#26itinqodw"/>
                <use fill="url(#2hrf3zwz1x)" xlink:href="#26itinqodw"/>
            </g>
            <path d="M29.76 15.784h16.698c2.172 0 4.133 2.702 4.133 6.035s-1.96 6.035-4.133 6.035H29.76c-2.172 0-4.133-2.702-4.133-6.035s1.961-6.035 4.133-6.035z" fill="url(#zw29mcq42y)" transform="translate(1117 3)"/>
            <path d="M1146.76 17.457h16.698c2.172 0 4.133 2.702 4.133 6.035s-1.96 6.035-4.133 6.035h-16.698c-2.172 0-4.133-2.702-4.133-6.035s1.961-6.035 4.133-6.035z" fill="#D6DFEA"/>
            <path d="M1144.731 19.049h18.1c2.355 0 2.768 1.99 2.768 4.443 0 2.454-.413 4.444-2.767 4.444h-18.101c-2.355 0-2.767-1.99-2.767-4.444 0-2.454.412-4.443 2.767-4.443z" fill="#1F1845"/>
            <path d="m1164.802 20.375 1.516.076a1.2 1.2 0 0 1 1.14 1.199v.184l-2.656 2.123v-3.582z" fill="#1F1845"/>
            <path d="M1151.122 20.508h3.858a3.05 3.05 0 0 1 0 6.101h-3.858a3.05 3.05 0 0 1 0-6.101z" fill="#7BC1EB" opacity=".3"/>
            <path d="M1151.124 22.498h3.854a1.061 1.061 0 0 1 0 2.122h-3.854a1.061 1.061 0 0 1 0-2.122z" fill="#7BC1EB"/>
            <path d="M1148.683 71.235a.199.199 0 1 1 .105-.385c2.077.563 3.9 1.521 6.368 3.202.55.375 2.475 1.725 2.52 1.756 3.044 2.114 5.184 3.313 7.853 4.198a.199.199 0 1 1-.125.377c-2.713-.898-4.883-2.114-7.956-4.249-.046-.031-1.969-1.38-2.516-1.753-2.434-1.658-4.222-2.598-6.249-3.146z" fill="#FFF" fill-rule="nonzero"/>
            <g transform="translate(1117 3)">
                <use fill="#FFC62C" xlink:href="#b4i1jt3viz"/>
                <use fill="url(#ug2qg3glsA)" xlink:href="#b4i1jt3viz"/>
            </g>
        </g>
        <g fill-rule="nonzero" mask="url(#yvguywbp7c)">
            <path d="M38.443 10.282c1.038-.337 1.989-.443 2.82-.336.819.104 1.517.417 2.058.915 1.103 1.017 1.528 2.773 1.118 4.983L41.706 30.85c-.428 2.35-1.716 4.766-3.441 6.775-1.722 2.004-3.883 3.608-6.084 4.321l-14.057 4.561c-1.04.337-1.99.443-2.822.337-.818-.105-1.517-.417-2.059-.916-1.105-1.017-1.534-2.775-1.132-4.986l2.733-15.003c.428-2.351 1.715-4.765 3.44-6.772 1.722-2.005 3.884-3.61 6.086-4.324z" stroke="#FFF9E3" fill="url(#qs3xaqlfhB)" transform="translate(1359.819 7.257)"/>
            <path d="M17.402 4.078c.506-.05.86.025.965.208.352.625-.902 4.706-3.17 7.14l-.063.067a6.113 6.113 0 0 0-2.391-2.708c.243-.738.444-1.49.602-2.251.05-.227.087-.452.119-.675 1.405-1.123 2.957-1.683 3.938-1.78z" fill="url(#pclbq5xneC)" transform="translate(1380.284 20.62)"/>
            <path d="M1391.923 35.378a.262.262 0 0 1 .295.304.537.537 0 0 1-.391.462h-.044a.265.265 0 0 1-.296-.304.537.537 0 0 1 .392-.46l.044-.002z" fill="#CDCDCD"/>
            <g fill="#ECB732">
                <path d="m1388.384 33.826.929-1.043.312.304-.925 1.037z"/>
                <path d="m1388.494 31.168 1.206 1.177.313.306.75.73-.392.43-.746-.724-.312-.304-1.21-1.181z"/>
            </g>
            <path fill="#ECB732" d="m1391.2 30.664.316.298-1.503 1.69-.313-.307zM1394.618 39.09l.32.295-1.945 2.218-.304-.312zM1390.319 43.997l1.987-2.269.304.315-1.973 2.25z"/>
            <path d="M1393.141 36.988c.556-.054.956.077.931.327-.031.285-.61.625-1.298.752-.09.016-.179.029-.262.037-.554.054-.954-.075-.929-.325.03-.287.61-.625 1.298-.754.09-.016.177-.029.26-.037z" fill="#EAADCC"/>
            <path d="M1393.147 35.663a1.418 1.418 0 0 1-1.041 1.216l-.117.02a.698.698 0 0 1-.783-.805 1.414 1.414 0 0 1 1.041-1.216.81.81 0 0 1 .117-.021.696.696 0 0 1 .783.806zm-1.32.481a.537.537 0 0 0 .391-.462.262.262 0 0 0-.295-.304h-.044a.537.537 0 0 0-.392.46.265.265 0 0 0 .296.304h.044" fill="#000"/>
            <path fill="#ECB732" d="m1384.943 43.105 1.593 1.598-.393.429-1.581-1.583zM1382.693 41.676l.394-.429 1.548 1.55-.382.441z"/>
            <path fill="#ECB732" d="m1386.032 41.178.323.29-1.412 1.637-.381.444-.946 1.095-.323-.29.96-1.116.382-.441z"/>
            <path d="M1387.434 37.796a.065.065 0 0 1 .062.03c.17.268.448.389.867.362h.05a1.808 1.808 0 0 0 1.087-.534.117.117 0 0 1 .067-.03.058.058 0 0 1 .058.022c.024.044.013.1-.027.131-.324.331-.752.541-1.212.596h-.054c-.456.033-.794-.106-.985-.417a.11.11 0 0 1 .037-.133.096.096 0 0 1 .05-.027z" fill="#000"/>
            <path d="M1384.437 37.988c.203.17.469.245.73.208a1.393 1.393 0 0 0 .342-.081.31.31 0 0 1 .157.325c-.06.289-.559.554-1.13.61h-.087c-.608.037-1.041-.181-.98-.486.055-.239.468-.491.968-.576z" fill="#EAADCC"/>
            <path d="M1385.157 36.355a.265.265 0 0 1 .296.304.535.535 0 0 1-.391.46h-.044a.265.265 0 0 1-.298-.304.537.537 0 0 1 .394-.46h.043z" fill="#CDCDCD"/>
            <path d="M1386.382 36.638a1.412 1.412 0 0 1-1.041 1.216l-.117.019a.698.698 0 0 1-.775-.798 1.414 1.414 0 0 1 1.042-1.216l.116-.019a.698.698 0 0 1 .775.798zm-1.32.481a.535.535 0 0 0 .391-.46.265.265 0 0 0-.296-.304h-.043a.537.537 0 0 0-.394.46.265.265 0 0 0 .298.304h.044" fill="#000"/>
            <path d="M1386.697 36.567a1.897 1.897 0 0 1-1.188 1.556 1.393 1.393 0 0 1-.341.081.933.933 0 0 1-.731-.208 1.006 1.006 0 0 1-.306-.848c.081-.77.627-1.41 1.374-1.612l.154-.025c.63-.069 1.081.38 1.038 1.056zm-1.352 1.287c.566-.15.98-.634 1.041-1.216a.698.698 0 0 0-.783-.804l-.116.019c-.566.15-.98.634-1.042 1.216a.698.698 0 0 0 .783.804l.117-.019" fill="#FFF9E3"/>
            <path d="M15.134 11.491a6.113 6.113 0 0 0-2.391-2.708 5.013 5.013 0 0 0-3.05-.624 6.873 6.873 0 0 0-1.922.492c-1.373.574-2.676 1.59-3.81 2.903a16.806 16.806 0 0 0-3.855 9.072C-.43 25.89 2.15 27.037 5.763 26.68c.502-.048 1.02-.127 1.556-.227 4.397-.833 8.096-2.81 8.706-8.804.246-2.404-.102-4.526-.891-6.157zm-1.346 5.207c-.03.286-.61.625-1.297.752-.09.017-.18.03-.263.038-.554.054-.954-.075-.929-.325.03-.288.61-.625 1.298-.754.09-.017.177-.03.26-.038.557-.054.956.077.931.327m-1.647-2.787c.625-.062 1.085.386 1.041 1.065a1.875 1.875 0 0 1-1.374 1.612l-.157.025c-.624.06-1.08-.388-1.041-1.067a1.875 1.875 0 0 1 1.375-1.61c.05-.012.1-.02.152-.025m-3.93-3.357 1.205 1.177 1.5-1.683.317.297-1.504 1.69.75.729-.392.43-.746-.724-.924 1.041-.317-.3.929-1.04-1.21-1.182.391-.431M5.855 24.513 4.274 22.93l-.941 1.094-.323-.28.96-1.116-1.56-1.562.394-.43 1.547 1.55 1.398-1.618.322.29-1.412 1.637 1.594 1.597-.394.43m.554-8.565a1.897 1.897 0 0 1-1.187 1.556.31.31 0 0 1 .156.324c-.06.29-.558.555-1.129.61h-.087c-.609.038-1.042-.18-.981-.485.056-.264.468-.506.968-.591a1.006 1.006 0 0 1-.306-.848c.082-.77.628-1.41 1.375-1.612l.154-.025c.625-.06 1.083.387 1.041 1.064m2.902 1.206c-.325.331-.752.541-1.213.596h-.054c-.456.033-.793-.106-.985-.416a.11.11 0 0 1 .038-.134.096.096 0 0 1 .056-.027.065.065 0 0 1 .062.03c.169.268.448.389.867.362h.05a1.808 1.808 0 0 0 1.087-.534.117.117 0 0 1 .067-.03.058.058 0 0 1 .058.022c.024.045.013.1-.027.131m3.38 3.827.769.791-.398.427-.754-.779-1.972 2.25-.319-.296 1.987-2.268-1.127-1.163.396-.416 1.114 1.15 1.929-2.202.32.298-1.945 2.208" fill="url(#2gwsduzgaD)" transform="translate(1380.284 20.62)"/>
            <path fill="#ECB732" d="m1391.575 40.141 1.114 1.15.304.312.769.792-.398.427-.754-.78-.304-.314-1.127-1.162z"/>
            <path d="M1393.464 35.592a1.875 1.875 0 0 1-1.375 1.612l-.156.025c-.625.06-1.081-.387-1.041-1.066a1.875 1.875 0 0 1 1.374-1.61c.05-.012.101-.02.152-.025.638-.063 1.092.385 1.046 1.064zm-1.352 1.287a1.418 1.418 0 0 0 1.041-1.216.696.696 0 0 0-.78-.806.81.81 0 0 0-.117.02c-.566.152-.98.635-1.042 1.217a.698.698 0 0 0 .783.804l.117-.019" fill="#FFF9E3"/>
            <path d="M12.13.169c.657-.04 1.756 2.662 1.334 5.694a8.825 8.825 0 0 1-.12.675 20.279 20.279 0 0 1-.601 2.252 5.013 5.013 0 0 0-3.05-.625 6.873 6.873 0 0 0-1.922.492c.065-.548.17-1.153.31-1.804.057-.27.127-.538.209-.804.912-3.004 3.19-5.818 3.84-5.88z" fill="url(#5r2vls0e8E)" transform="translate(1380.284 20.62)"/>
            <path d="M4.911 4.79A4.564 4.564 0 0 1 8.29 6.04a9.306 9.306 0 0 0-.209.804 19.46 19.46 0 0 0-.31 1.804c-1.373.575-2.676 1.591-3.81 2.903-.935-2.29-.428-5.846.155-6.473.225-.183.505-.284.795-.287z" fill="url(#pfjfs4qvjF)" transform="translate(1380.284 20.62)"/>
            <path d="m29.47.5 11.271 8.429h-.668c-.668.087-.888.126-1.052.161l-.087.02-14.88 4.784c-.202.068-.405.144-.61.223-.347.14-.552.228-.754.326-.246.121-.423.211-.597.308-.332.17-.528.286-.725.406-1.422 1.009-1.667 1.211-1.902 1.412-.252.215-.435.384-.613.553-.278.265-.447.43-.61.597-.437.475-.52.567-.553.605l-.013.016c-2.073 2.842-2.18 3.028-2.28 3.213l-.31.613-.107.215a9.716 9.716 0 0 0-.255.539c-.115.274-.209.508-.293.742L11.12 40.755c-.238 1.326-.205 2.503.052 3.495l-.01-.04-9.249-7.645c-.533-.443-.927-1.05-1.162-1.792l-.072-.252c-.225-.87-.244-1.902-.032-3.062L3.38 16.454c.659-2.08.757-2.338.868-2.592.727-1.498.825-1.666.923-1.834.77-1.164.937-1.4 1.045-1.545l.033-.043.359-.393.319-.347a64.462 64.462 0 0 1 1.45-1.55l.068-.069c.04-.04.074-.071.102-.097l.04-.036.054-.047c.263-.222.494-.413.728-.592 1.92-1.227 2.087-1.312 2.258-1.396.244-.116.428-.197.605-.27.32-.125.507-.194.695-.255L27.004.826 29.471.5z" stroke="#AF8822" fill="url(#gq2p1x81pG)" transform="translate(1359.819 7.257)"/>
            <g>
                <path d="m10.417.525 14.787 4.9c2.633 1.537 2.832 1.691 2.987 1.839.487.508.674.712.79.848l1.82 17.275-6.265 7.4.955-14.332-.073-1.035c-1.987-4.163-2.134-4.31-2.269-4.46-.2-.231-.35-.384-.51-.538a12.448 12.448 0 0 0-.645-.57L5.96 5.689l-1.558-.223L7.67 1.387l2.748-.862z" stroke="url(#6x10eg2iiH)" fill="url(#cyjvslt1sI)" transform="translate(1351 28.95)"/>
                <path d="M1.951 6.816c.946-.586 2.258-.668 3.701-.169l13.29 4.606c1.527.53 2.912 1.608 3.92 2.918.995 1.295 1.628 2.82 1.637 4.273l.089 12.775c.01 1.347-.532 2.387-1.452 2.957-.946.585-2.257.667-3.7.167l-13.29-4.606c-1.528-.53-2.912-1.608-3.92-2.918C1.23 25.525.599 24 .59 22.546L.5 9.771c-.01-1.346.531-2.386 1.451-2.955z" stroke="#74EFC9" fill="url(#c1596p1blJ)" transform="translate(1351 28.95)"/>
                <path d="M1362.927 42.182c.46.152.824.505.992.959l1.125 2.997-4.897 5.47c-.386.429-.32 1.092.04 1.578l-4.073-1.3c-.957-.305-1.412-1.519-.818-2.183l6.468-7.252a1.081 1.081 0 0 1 1.163-.27z" fill="#80EEC0"/>
                <path d="M1367.905 45.933c.38.124.684.412.827.785l3.295 8.672c.303.797-.31 1.476-1.103 1.223l-8.64-2.754c-.792-.253-1.169-1.248-.68-1.792l5.34-5.916a.894.894 0 0 1 .961-.218z" fill="#00DC82"/>
            </g>
        </g>
        <g fill-rule="nonzero" mask="url(#yvguywbp7c)">
            <g transform="translate(478.44 7)">
                <use fill="url(#nryep7r8dK)" xlink:href="#knh48u1foL"/>
                <use fill="#000" filter="url(#gn1twrq42M)" xlink:href="#knh48u1foL"/>
                <path stroke="url(#2s4xkdxeqN)" d="m9.757 2.559-.012.029-.061.139c-.059.14-.114.282-.164.427a.602.602 0 0 0-.048.128 6.341 6.341 0 0 0-.148.517l-.01.037c-.017.06-.03.12-.037.182-.027.12-.053.244-.073.368l-.008.04a1.55 1.55 0 0 0-.03.222l-.01.064a2.516 2.516 0 0 0-.03.28c-.017.087-.02.162-.02.295v.62l.014.43c.014.066.012.128.012.193v.023l.002.022a13.223 13.223 0 0 0 .059.532c.003.024.008.046.008.07a.21.21 0 0 1-.001.024 10.507 10.507 0 0 0 .128.742L13.2 26.834c.029.143.062.284.096.426l.012.05.025.09.017.06c.027.106.055.21.085.317l.06.19.038.117c.015.048.031.098.047.14l.065.193.095.264c.011.031.022.056.033.082.01.02.019.043.032.083.037.115.084.237.119.311.028.063.054.123.08.186l.13.25.083.177c.042.087.096.197.13.259l.023.047c.017.035.035.073.065.127l.068.121.061.11.08.147.014.025c.052.093.107.183.161.273l.008.012.041.068.036.06c.07.11.142.22.216.332l.042.064c.088.13.177.256.275.392l.078.103.197.266.115.142.076.094.102.124c.043.051.088.103.134.151l.17.197.132.139c.061.067.126.134.19.198l.14.14.182.174.152.144.135.122.177.152.132.11.184.149.122.095c.044.034.088.067.133.099l.074.054.126.09.223.154.093.06c.127.086.258.165.388.24l.048.016.087.053.152.084.121.063.207.104c.037.019.074.036.108.051l.048.022.2.09.147.063.212.082.148.054.205.068.156.048.202.06.157.04.213.046.145.03.237.038.114.02.074.01c.107.016.212.03.32.031l15.345 1.143-7.003 4.04a4.213 4.213 0 0 1-2.205.538l-.259-.016-15.433-1.145c-.035-.002-.07-.008-.106-.012a2.268 2.268 0 0 0-.22-.022l-.077-.012-.211-.034-.126-.028a2.442 2.442 0 0 1-.179-.04l-.13-.033-.187-.052-.13-.04-.181-.061-.13-.048-.06-.023c-.037-.014-.073-.028-.118-.048l-.13-.054-.182-.08-.134-.064a3.68 3.68 0 0 1-.191-.097l-.105-.053-.24-.14-.056-.033a7.444 7.444 0 0 1-.287-.179l-.105-.07a4.842 4.842 0 0 1-.195-.133l-.113-.081-.18-.132-.118-.092-.168-.137-.12-.1-.164-.141-.117-.105-.08-.074a.487.487 0 0 1-.05-.048l-.188-.18-.127-.125-.166-.176-.124-.132-.055-.062-.109-.123-.11-.128-.057-.068c-.038-.045-.075-.09-.118-.145l-.1-.12-.032-.045a16.85 16.85 0 0 0-.155-.208l-.086-.114c-.071-.09-.141-.197-.21-.299l-.066-.101a8.064 8.064 0 0 1-.196-.303l-.078-.126-.058-.098-.089-.151-.086-.153-.126-.233-.088-.17c-.04-.076-.076-.152-.112-.226l-.08-.168-.11-.243-.006-.012c-.022-.048-.038-.083-.065-.15l-.045-.114-.055-.135-.063-.163-.09-.249-.066-.197a2.168 2.168 0 0 1-.075-.227l-.054-.172-.038-.138a11.992 11.992 0 0 0-.04-.148l-.037-.137c-.034-.144-.07-.287-.1-.435L.702 13.292a10.312 10.312 0 0 1-.12-.698.063.063 0 0 1-.01-.02c-.006-.02.001-.04.001-.06 0-.018-.005-.035-.003-.053a3.715 3.715 0 0 0-.018-.133c-.012-.083-.025-.166-.025-.247v-.034a.839.839 0 0 1-.005-.033c-.01-.071-.008-.132-.008-.191v-.027l-.003-.023c-.01-.112-.01-.227-.01-.337v-.252c.001-.048.004-.095.007-.142.004-.07.008-.14.008-.21l.006-.055c.006-.059.011-.118.012-.177.01-.108.024-.213.037-.317l.01-.074c.006-.04.01-.08.019-.127a6.585 6.585 0 0 1 .088-.44l.015-.07c.04-.162.085-.322.138-.476l-.005.013.02-.049.016-.052c.045-.123.091-.247.143-.366l.016-.037c.04-.092.086-.182.132-.272l.018-.04v-.001l.006-.01c.06-.115.123-.224.192-.33l.006-.009a.29.29 0 0 1 .004-.006l.024-.037a5.465 5.465 0 0 1 .19-.271l.038-.048.047-.057c.053-.065.125-.15.159-.188.019-.022.039-.042.06-.064l.03-.032.17-.166.108-.096c.06-.052.123-.1.186-.147l7.357-4.272z" stroke-linejoin="square"/>
            </g>
            <path d="m14.585.501.272.013 15.43 1.142c1.768.13 3.54 1.143 4.987 2.645 1.477 1.533 2.616 3.585 3.068 5.792l3.89 18.905c.441 2.148.152 4.047-.709 5.373a4.057 4.057 0 0 1-1.633 1.468c-.643.311-1.39.45-2.215.39l-15.425-1.15c-1.769-.131-3.54-1.143-4.987-2.646-1.477-1.534-2.617-3.586-3.068-5.794L10.307 7.74c-.445-2.146-.158-4.043.7-5.367A4.054 4.054 0 0 1 12.64.906c.644-.312 1.391-.452 2.217-.392z" stroke="#6097FF" fill="url(#9qa78t1wxO)" transform="translate(478.44 7)"/>
            <g fill="#F9F9F9">
                <path d="M514.678 26.25c.746 1.116 1.062 2.881.764 4.215-.34 1.455-1.412 2.454-3.055 2.804a5.634 5.634 0 0 1-.989.087 7.788 7.788 0 0 1-1.3-.074 6.055 6.055 0 0 1-3.233-1.795c-.311-.343-.934-1.261-.91-1.323l.265-.211 1.052-.773.79-.588.226.301c.34.486.762.907 1.249 1.246.45.246.956.372 1.469.366.588-.01 1.124-.21 1.443-.588.246-.29.353-.672.294-1.047a1.58 1.58 0 0 0-.312-.882c-.276-.378-.787-.682-2.204-1.353-1.626-.735-2.332-1.21-3.02-1.946a5.713 5.713 0 0 1-.994-1.719c-.162-.501-.319-1.73-.262-2.226.147-1.74 1.167-2.973 2.752-3.347a3.82 3.82 0 0 1 .813-.081c.493-.017.987.027 1.47.13.764.209 1.452.634 1.982 1.225.311.342.781.942.827 1.097 0 .052-1.193 1.088-1.925 1.665-.049 0-.173-.137-.304-.342-.453-.635-.882-.907-1.505-.948h-.147c-.815.013-1.297.558-1.213 1.415.018.23.086.455.2.657.248.473.65.754 1.871 1.322 2.247 1.029 3.246 1.714 3.906 2.713zM498.722 17.68c2.887-.048 5.263-.08 5.263-.054.033.016.094.648.17 1.43l.136 1.387-3.901.064 1.256 12.825-2.767.047-1.252-12.83-3.898.066-.138-1.414-.115-1.412 5.246-.109z"/>
            </g>
            <g>
                <path d="m12.118.525 17.24 5.713c1.903 1.031 2.494 1.363 2.727 1.51l.073.049c.04.027.064.047.089.067.244.196.43.362.607.531.223.217.383.378.529.536.207.232.353.403.494.578l1.931 4.948.103 15.047-6.915 8.16.575-16.264c-1.258-4.034-1.503-4.661-1.615-4.858l-.015-.026-.014-.022-.014-.02c-.737-.99-.892-1.172-1.048-1.346a9.145 9.145 0 0 0-.587-.62 14.582 14.582 0 0 0-.677-.6 16.592 16.592 0 0 0-.536-.419L6.91 6.695l-1.942-.278 3.904-4.874L12.118.525z" stroke="url(#1zyyvdzupP)" fill="url(#7812l4nxyQ)" transform="translate(471.875 25.343)"/>
                <path d="M22.223 12.54c3.762 1.304 6.832 5.295 6.856 8.91l.103 14.86c.026 3.61-3.004 5.491-6.765 4.187L6.958 35.14C3.197 33.835.126 29.844.103 26.23L0 11.37c-.026-3.61 3.004-5.49 6.765-4.187l15.458 5.357z" fill="url(#68oz963z5R)" transform="translate(471.875 25.343)"/>
                <path fill="#3EB17E" d="m495.092 45.454-9.793 11.365-9.257-17.71 3.762 1.254 5.601 10.683 5.877-6.86z"/>
                <path fill="#33465A" d="m491.282 44.186-5.877 6.86-5.601-10.683 3.523 1.173 2.178 4.118 2.252-2.642z"/>
            </g>
        </g>
    </g>
</svg>
