<svg width="768" height="72" viewBox="0 0 768 72" xmlns="http://www.w3.org/2000/svg" xmlns:xlink="http://www.w3.org/1999/xlink">
    <defs>
        <linearGradient x1="89.414%" y1="61.013%" x2="12.037%" y2="61.013%" id="x4z7rncnjb">
            <stop stop-color="#282F64" offset="0%"/>
            <stop stop-color="#191E3F" offset="100%"/>
        </linearGradient>
        <linearGradient x1="89.414%" y1="61.013%" x2="12.037%" y2="61.013%" id="eqs2eehfbd">
            <stop stop-color="#2E3570" offset="0%"/>
            <stop stop-color="#191E3F" offset="100%"/>
        </linearGradient>
        <linearGradient x1="89.414%" y1="61.013%" x2="12.037%" y2="61.013%" id="ac2qp08yee">
            <stop stop-color="#2E3570" offset="0%"/>
            <stop stop-color="#191E3F" stop-opacity="0" offset="100%"/>
        </linearGradient>
        <linearGradient x1="50%" y1="0%" x2="50%" y2="100%" id="9iaagghgbg">
            <stop stop-color="#403F9F" stop-opacity="0" offset="0%"/>
            <stop stop-opacity=".2" offset="100%"/>
        </linearGradient>
        <linearGradient x1="0%" y1="32.091%" x2="100%" y2="67.909%" id="7ted8bby6i">
            <stop stop-opacity=".3" offset="0%"/>
            <stop stop-color="#1F1845" stop-opacity="0" offset="100%"/>
        </linearGradient>
        <linearGradient x1="50%" y1="0%" x2="50%" y2="100%" id="wtnv1zwigk">
            <stop stop-color="#FFC62C" stop-opacity="0" offset="0%"/>
            <stop stop-color="#FF6663" stop-opacity=".3" offset="100%"/>
        </linearGradient>
        <linearGradient x1="50%" y1="0%" x2="50%" y2="100%" id="r65pzzurym">
            <stop stop-color="#A7A7EE" stop-opacity="0" offset="0%"/>
            <stop stop-color="#4C55A0" stop-opacity=".2" offset="100%"/>
        </linearGradient>
        <linearGradient x1="50%" y1="0%" x2="50%" y2="100%" id="yf5gdjpoqo">
            <stop stop-color="#A7A7EE" stop-opacity="0" offset="0%"/>
            <stop stop-color="#4C55A0" stop-opacity=".2" offset="100%"/>
        </linearGradient>
        <linearGradient x1="50%" y1="0%" x2="50%" y2="100%" id="40qi6pxfaq">
            <stop stop-color="#403F9F" stop-opacity="0" offset="0%"/>
            <stop stop-opacity=".2" offset="100%"/>
        </linearGradient>
        <linearGradient x1="50%" y1="0%" x2="50%" y2="100%" id="cknulgfsvs">
            <stop stop-color="#FFC62C" stop-opacity="0" offset="0%"/>
            <stop stop-color="#FF6663" stop-opacity=".3" offset="100%"/>
        </linearGradient>
        <linearGradient x1="98.428%" y1="50%" x2="1.572%" y2="100%" id="uwqzm8w77t">
            <stop stop-opacity=".2" offset="0%"/>
            <stop stop-color="#FFC42C" stop-opacity="0" offset="100%"/>
        </linearGradient>
        <linearGradient x1="50%" y1="0%" x2="50%" y2="100%" id="u1e053vxjv">
            <stop stop-color="#403F9F" stop-opacity="0" offset="0%"/>
            <stop stop-opacity=".2" offset="100%"/>
        </linearGradient>
        <linearGradient x1="50%" y1="0%" x2="50%" y2="100%" id="qw72fgzeyx">
            <stop stop-color="#FFC62C" stop-opacity="0" offset="0%"/>
            <stop stop-color="#FF6663" stop-opacity=".3" offset="100%"/>
        </linearGradient>
        <linearGradient x1="100%" y1="38.311%" x2="0%" y2="61.689%" id="qwkvpwu3uy">
            <stop stop-opacity=".15" offset="0%"/>
            <stop stop-color="#FFC42C" stop-opacity="0" offset="100%"/>
        </linearGradient>
        <linearGradient x1="50%" y1="0%" x2="50%" y2="100%" id="aqlkonu3vA">
            <stop stop-color="#FFC62C" stop-opacity="0" offset="0%"/>
            <stop stop-color="#FF6663" stop-opacity=".3" offset="100%"/>
        </linearGradient>
        <linearGradient x1="24.492%" y1="9.15%" x2="58.635%" y2="100%" id="wkogocufwB">
            <stop stop-color="#263E7B" offset="0%"/>
            <stop stop-color="#253867" offset="100%"/>
        </linearGradient>
        <linearGradient x1="101.462%" y1="124.814%" x2="19.296%" y2="50%" id="pdas88f3lE">
            <stop stop-color="#243B74" offset="0%"/>
            <stop stop-color="#2357BD" offset="100%"/>
        </linearGradient>
        <linearGradient x1="69.68%" y1="5.498%" x2="24.256%" y2="96.98%" id="t5ezqjzkaF">
            <stop stop-color="#0075C4" offset="0%"/>
            <stop stop-color="#005F9F" offset="100%"/>
        </linearGradient>
        <linearGradient x1="50%" y1="0%" x2="50%" y2="100%" id="m5b2clgzlH">
            <stop stop-color="#348B70" offset="0%"/>
            <stop stop-color="#288384" offset="100%"/>
        </linearGradient>
        <linearGradient x1="84.661%" y1="26.487%" x2="50%" y2="58.486%" id="thyx1mi5hG">
            <stop stop-color="#52D5B3" offset="0%"/>
            <stop stop-color="#2F8977" offset="100%"/>
        </linearGradient>
        <linearGradient x1="34.164%" y1="4.57%" x2="82.543%" y2="143.256%" id="48qeiozz2I">
            <stop stop-color="#E2FFF2" offset="0%"/>
            <stop stop-color="#3EAF7D" offset="100%"/>
        </linearGradient>
        <linearGradient x1="76.207%" y1="4.524%" x2="5.77%" y2="136.106%" id="r4mim3vrfJ">
            <stop stop-color="#F3ECD7" offset="0%"/>
            <stop stop-color="#FFD24B" offset="100%"/>
        </linearGradient>
        <linearGradient x1="50%" y1="0%" x2="50%" y2="100%" id="fqv2xsmtxK">
            <stop stop-color="#52C761" offset="0%"/>
            <stop stop-color="#51A256" offset="100%"/>
        </linearGradient>
        <linearGradient x1="50%" y1="0%" x2="50%" y2="100%" id="ha6z8uam8L">
            <stop stop-color="#FFE56C" offset="0%"/>
            <stop stop-color="#FFC73A" offset="100%"/>
        </linearGradient>
        <linearGradient x1="50%" y1="0%" x2="50%" y2="100%" id="9405biog1M">
            <stop stop-color="#89E99B" offset="0%"/>
            <stop stop-color="#53CE63" offset="100%"/>
        </linearGradient>
        <linearGradient x1="50%" y1="0%" x2="50%" y2="100%" id="v1x4ocgd3N">
            <stop stop-color="#51C861" offset="0%"/>
            <stop stop-color="#51A256" offset="100%"/>
        </linearGradient>
        <linearGradient x1="50%" y1="0%" x2="50%" y2="100%" id="2oxz7tuj2O">
            <stop stop-color="#D2A732" offset="0%"/>
            <stop stop-color="#A17C1D" offset="100%"/>
        </linearGradient>
        <linearGradient x1="50%" y1="0%" x2="50%" y2="100%" id="gjzz4cvncQ">
            <stop stop-color="#348B70" offset="0%"/>
            <stop stop-color="#288384" offset="100%"/>
        </linearGradient>
        <linearGradient x1="84.661%" y1="26.487%" x2="50%" y2="58.486%" id="t09k17sy3P">
            <stop stop-color="#52D5B3" offset="0%"/>
            <stop stop-color="#2F8977" offset="100%"/>
        </linearGradient>
        <linearGradient x1="34.164%" y1="4.57%" x2="101.204%" y2="265.256%" id="uaaoloz60R">
            <stop stop-color="#DEFFF0" offset="0%"/>
            <stop stop-color="#3EAF7D" offset="100%"/>
        </linearGradient>
        <path id="2oh40rkdka" d="M0 0h768v72H0z"/>
        <path d="M10.623 44.566c-7.19-5.77-13.431-18.727-9.295-31.037 4.085-12.22 18.46-17.497 29.61-10.213 10.98 7.358 11.03 14.663 26.292 17.906 15.16 3.305 20.9 23.4 6.905 31.037-14.108 7.764-46.326-1.938-53.512-7.693z" id="okqxruqc7f"/>
        <path d="M62.944 52.854c-11.35 5.147-32.317.706-44.44-4.16-3.082-2.792-6.093-6.098-8.944-9.964-5.085-6.8-5.75-13.432-1.991-19.896h22.706c4.497 3.822 8.17 6.563 11.021 8.224 4.36 2.422 17.316 4.66 22.042 9.948 3.955 4.485 2.801 10.893-.394 15.848z" id="ynse5dl70h"/>
        <path d="M8.233 47.219c-3.551-.35-5.543-1.279-5.976-2.786-.619-2.295-2.853-4.867-2.124-5.836.824-.885 1.978 2.062 2.655 2.388.896.359.518-9.696 3.851-7.163 3.334 2.616 2.558 4.848 2.125 7.826a84.416 84.416 0 0 0-.531 5.57z" id="7a2p9s6ibj"/>
        <path d="M37.445 37.138c-6.631 0-28.923 4.929-30.142 5.173-1.274.294-1.866 3.545 0 4.642 1.81 1.18 24.636.684 26.026.663 1.484.021 10.805-10.478 4.116-10.478z" id="tuhv8e6m7l"/>
        <path d="M37.445 37.138h37.578c3.657 0 2.67 5.637 0 5.704-1.761-.012-23.104 3.171-23.104 4.244 0 .715.885 6.109 2.655 16.182l-17.129 2.785c-4.68-6.876-8.365-12.476-8.365-17.375 0-4.9 1.936-11.54 8.365-11.54z" id="elu74fr56n"/>
        <path d="M38.64 67.512c-1.887 4.96-2.348 13.133 0 16.314 2.33 3.2 15.092 18.299 16.997 19.233 1.903.996 4.78-1.203 4.78-3.316 0-2.157-6.58-14.599-11.685-19.63-5.108-4.866-8.223-17.409-10.092-12.601z" id="ya8y778jfp"/>
        <path d="M20.98 71.756c.997 5.395 9.097 8.755 24.3 10.08 1.033-.123 1.785-.742 2.257-1.856.83-1.731.843-3.01.797-3.05 8.338.04 11.748-10.553 6.108-16.978-5.568-6.348-34.772 3.668-33.462 11.804z" id="7r6n8f2p7u"/>
        <path d="M50.06 18.834c2.971.053 4.21 1.335 3.718 3.847-.47 2.827-1.5 5.463-3.851 5.173-2.551 4.684-5.653 7.56-11.685 7.56-5.968 0-8.848-5.675-9.295-8.754-1.164-3.123-.053-14.26.398-15.386.858-2.676 6.328 2.174 12.35 3.98 3.912 1.308 6.7 2.502 8.365 3.58z" id="lfs4twtkgw"/>
        <path d="M75.023 42.842c-3.184 0-3.69-9.75-2.39-9.816 1.327.066.466 3.934 1.726 3.98 1.274-.046.57-9.201 3.984-8.622 3.353.638 3.752 7.398 2.125 10.478-1.605 3.052-2.378 3.98-5.445 3.98z" id="3x1f6l92vz"/>
        <path d="m33.126 32.32-13.579-1.012c-.1 0-.197-.018-.297-.032l-.095-.015-.2-.032-.115-.025-.18-.039-.122-.032-.173-.05-.124-.038-.17-.057-.125-.045-.17-.066-.12-.052-.173-.077c-.039-.018-.077-.034-.116-.055l-.186-.093-.1-.052a2.705 2.705 0 0 1-.227-.131l-.047-.016a5.082 5.082 0 0 1-.277-.173l-.084-.054-.19-.132-.105-.075c-.054-.04-.111-.08-.165-.122l-.112-.086-.154-.125-.111-.093-.15-.13-.109-.097-.129-.123-.159-.152-.116-.115a5.17 5.17 0 0 1-.154-.161l-.113-.12-.15-.173a2.689 2.689 0 0 1-.107-.12l-.154-.189-.093-.115-.168-.227-.072-.095a11.715 11.715 0 0 1-.227-.325l-.037-.054a19.422 19.422 0 0 1-.181-.28c-.025-.04-.048-.081-.073-.12-.045-.075-.09-.15-.134-.227l-.077-.14c-.025-.048-.08-.14-.118-.211-.038-.07-.05-.102-.077-.152a5.936 5.936 0 0 1-.104-.209l-.075-.159-.109-.21a4.953 4.953 0 0 0-.07-.162 2.333 2.333 0 0 1-.086-.227c-.028-.084-.044-.109-.064-.163l-.082-.227-.054-.161c-.027-.077-.05-.156-.075-.227l-.048-.152a11.286 11.286 0 0 1-.07-.263c-.011-.043-.025-.086-.036-.13-.032-.133-.064-.265-.091-.399L8.639 6.901a9.131 9.131 0 0 1-.102-.585c0-.064-.013-.125-.02-.189-.016-.127-.03-.256-.041-.38 0-.073 0-.144-.011-.216 0-.114-.012-.227-.012-.34v-.538c0-.096 0-.14.016-.209 0-.109.023-.213.036-.318 0-.063.016-.127.028-.19.018-.114.043-.227.068-.336 0-.05.018-.098.03-.145.038-.157.081-.311.13-.454 0-.02.017-.036.024-.057.043-.127.091-.251.142-.374.052-.122.1-.222.143-.3a3.56 3.56 0 0 1 .213-.374l.064-.095c.048-.073.098-.143.15-.213l.086-.107c.05-.061.1-.12.152-.177l.095-.102c.032-.032.11-.109.166-.161l.1-.09.19-.153.093-.07c.098-.072.198-.138.302-.2l-8.44 4.867c-.104.06-.204.124-.301.195l-.093.07c-.064.048-.13.098-.19.152l-.103.09-.163.16c-.032.034-.066.068-.098.104a7.83 7.83 0 0 0-.15.177c-.05.061-.059.07-.086.107a5.38 5.38 0 0 0-.15.213c-.02.032-.043.061-.063.095a3.844 3.844 0 0 0-.213.374C.585 7.221.54 7.31.5 7.4l-.013.032c-.052.12-.1.247-.145.374 0 .018-.014.037-.02.057-.05.147-.094.3-.132.454-.012.047-.02.097-.032.147a6.252 6.252 0 0 0-.066.336c-.011.064-.018.127-.027.19a7.047 7.047 0 0 0-.037.316c0 .07-.01.14-.015.209 0 .106-.012.213-.014.322v.227c0 .11 0 .227.011.34 0 .07 0 .143.012.227 0 .125.025.254.04.381 0 .064 0 .125.02.188.028.192.062.388.103.586l3.421 16.636c.028.134.06.266.091.397l.034.13.073.265.047.152c.023.08.048.159.075.227l.055.161.081.227c.02.054.041.109.064.163.023.055.057.143.086.216.03.072.045.106.07.16l.096.212.075.156c.034.07.068.141.104.211l.077.15.116.213.08.141c.042.075.088.15.133.227l.073.118c.059.095.12.19.183.284l.034.052c.073.109.15.227.227.324l.07.093c.057.075.112.15.168.227l.096.116c.05.063.102.125.154.188l.104.12c.05.06.103.116.152.173l.114.12.152.161.118.116.159.152c.02.022.042.043.065.063l.064.06.109.097.15.13.11.092.155.125.111.086.166.123.104.075c.064.045.127.088.19.129l.085.057c.09.059.183.118.276.172l.046.027.227.132.102.052c.059.032.12.063.184.093l.115.054.173.078.12.05c.057.024.113.045.17.068l.125.045.17.057.125.038.17.048.123.032c.06.015.12.03.181.04l.116.025.197.032.098.016c.1 0 .197.023.297.03l13.578 1.007a4.145 4.145 0 0 0 2.416-.515l8.44-4.867a4.145 4.145 0 0 1-2.4.495z" id="0lsw7fzhqC"/>
        <filter x="-38%" y="-36.8%" width="176%" height="173.6%" filterUnits="objectBoundingBox" id="loh5jfkkcD">
            <feGaussianBlur stdDeviation="6.5" in="SourceAlpha" result="shadowBlurInner1"/>
            <feOffset dx="14" dy="-10" in="shadowBlurInner1" result="shadowOffsetInner1"/>
            <feComposite in="shadowOffsetInner1" in2="SourceAlpha" operator="arithmetic" k2="-1" k3="1" result="shadowInnerInner1"/>
            <feColorMatrix values="0 0 0 0 0.117647059 0 0 0 0 0.321568627 0 0 0 0 0.725490196 0 0 0 0.430732354 0" in="shadowInnerInner1"/>
        </filter>
        <rect id="w3atceajtr" x="0" y="0" width="7.702" height="11.539" rx="3.851"/>
    </defs>
    <g fill="none" fill-rule="evenodd">
        <mask id="8e1knp26yc" fill="#fff">
            <use xlink:href="#2oh40rkdka"/>
        </mask>
        <path d="M1153-22.28c-17.701 126.926-90.423 176.371-218.164 148.335C743.224 84.002 818.675 231 531 231V-85h622v62.72z" fill="url(#x4z7rncnjb)" mask="url(#8e1knp26yc)" transform="rotate(180 842 73)"/>
        <path d="M1153-17.28c-17.701 126.926-90.423 176.371-218.164 148.335C743.224 89.002 818.675 236 531 236V-80h622v62.72z" fill="url(#eqs2eehfbd)" mask="url(#8e1knp26yc)" transform="rotate(180 842 78)"/>
        <path d="M531-2.28c-17.701 126.926-90.423 176.371-218.164 148.335C121.224 104.002 196.675 251-91 251V-65h622v62.72z" fill="url(#ac2qp08yee)" mask="url(#8e1knp26yc)" transform="rotate(180 220 93)"/>
        <path d="M767.373 93.19c-.217-.04-.435-.077-.473-.357.09-.174.177-.35.271-.523 1-1.82 1.537-3.76 1.5-5.85-.007-.358-.03-.551-.442-.285-.225.146-.512.162-.793.167-1.155.02-2.24-.293-3.301-.698-2.43-.928-4.673-2.18-6.637-3.91-.7-.603-1.336-1.265-1.66-2.154-.262-.72-.039-1.095.692-1.322.527-.164 1.038-.02 1.555.037.211.03.43.032.633.091 3.728 1.076 7.071 2.792 9.606 5.848.058.07.1.192.223.12.098-.058.083-.159.064-.261-.13-.691-.232-1.388-.384-2.074-.747-3.382-2.19-6.542-3.11-9.87-.05-.178-.12-.346-.365-.21-.583.322-1.22.206-1.84.217-1.957-.386-3.777-1.14-5.505-2.118-1.741-.986-3.42-2.068-4.672-3.682-.407-.525-.896-1.105-.524-1.809.349-.66 1.07-.565 1.687-.526 1.201.076 2.337.447 3.438.913 2.432 1.029 4.695 2.332 6.599 4.2.19.187.359.395.618.68-.196-1.26-.124-2.41-.118-3.558.014-2.457.64-4.803 1.326-7.136.055-.189.123-.373.187-.559.097-.284.054-.426-.292-.512-1.011-.253-1.658-1.048-2.265-1.8-1.947-2.408-3.334-5.116-4.051-8.15a7.033 7.033 0 0 1-.192-1.985c.058-1.137.836-1.57 1.808-.956.887.56 1.58 1.342 2.192 2.19 1.798 2.513 3.142 5.234 3.736 8.444.2-.549.35-.95.493-1.354.726-2.05 1.47-4.095 1.898-6.237.036-.18.091-.326-.066-.483-.769-.772-1.01-1.783-1.27-2.796-.224-.872-.247-1.772-.436-2.646-.037-2.1-.063-4.201.462-6.26.185-.725.422-1.433.803-2.082.583-.992 1.472-.997 2.03.013.625 1.13.93 2.353 1.062 3.643.106 1.034.246 2.06.219 3.104-.015.567-.209 1.122-.107 1.696-.037 1.609-.346 3.154-1.07 4.6-.096.19-.195.424-.36.526-.605.374-.695.983-.842 1.595-.464 1.93-1.132 3.795-1.79 5.664-.062.175-.179.348-.09.653.64-.604 1.249-1.17 1.925-1.651 2.186-1.553 4.497-2.84 7.148-3.408.43-.092.861-.085 1.285-.045.79.076 1.095.61.854 1.387-.187.6-.567 1.07-.984 1.513-2.408 2.553-5.325 4.273-8.646 5.329-.13.041-.256.095-.384.143-.75.038-1.504.28-2.251-.055-.216-.096-.262.127-.306.261a36.205 36.205 0 0 0-1.307 5.417c-.251 1.516-.122 3.053-.129 4.582 0 .212-.015.428.215.604.076-.12.148-.228.217-.34a15.521 15.521 0 0 1 2.487-3.035c1.03-.988 2.154-1.868 3.311-2.702 1.133-.616 2.22-1.333 3.511-1.594.171-.034.347-.061.52-.064.923-.013 1.311.508 1.08 1.41-.277 1.08-.925 1.955-1.613 2.775-1.91 2.275-4.16 4.136-6.86 5.407-.582.274-1.177.535-1.836.561-.323.013-.33.155-.257.422.392 1.42.918 2.795 1.39 4.188.73 2.152 1.499 4.292 1.864 6.536.251.072.282-.126.365-.241 2.018-2.787 4.586-4.909 7.676-6.389.581-.278 1.197-.488 1.855-.495.892-.008 1.287.506 1.071 1.374-.274 1.101-.935 1.993-1.638 2.828-1.911 2.273-4.163 4.133-6.864 5.4-.6.281-1.213.562-1.897.552-.398-.006-.377.252-.367.514.082 2.335-.68 4.436-1.767 6.446-.027.05-.076.088-.115.132" fill="#454E90" mask="url(#8e1knp26yc)" transform="matrix(-1 0 0 1 1532.158 0)"/>
        <path d="M729.373 93.19c-.217-.04-.435-.077-.473-.357.09-.174.177-.35.271-.523 1-1.82 1.537-3.76 1.5-5.85-.007-.358-.03-.551-.442-.285-.225.146-.512.162-.793.167-1.155.02-2.24-.293-3.301-.698-2.43-.928-4.673-2.18-6.637-3.91-.7-.603-1.336-1.265-1.66-2.154-.262-.72-.039-1.095.692-1.322.527-.164 1.038-.02 1.555.037.211.03.43.032.633.091 3.728 1.076 7.071 2.792 9.606 5.848.058.07.1.192.223.12.098-.058.083-.159.064-.261-.13-.691-.232-1.388-.384-2.074-.747-3.382-2.19-6.542-3.11-9.87-.05-.178-.12-.346-.365-.21-.583.322-1.22.206-1.84.217-1.957-.386-3.777-1.14-5.505-2.118-1.741-.986-3.42-2.068-4.672-3.682-.407-.525-.896-1.105-.524-1.809.349-.66 1.07-.565 1.687-.526 1.201.076 2.337.447 3.438.913 2.432 1.029 4.695 2.332 6.599 4.2.19.187.359.395.618.68-.196-1.26-.124-2.41-.118-3.558.014-2.457.64-4.803 1.326-7.136.055-.189.123-.373.187-.559.097-.284.054-.426-.292-.512-1.011-.253-1.658-1.048-2.265-1.8-1.947-2.408-3.334-5.116-4.051-8.15a7.033 7.033 0 0 1-.192-1.985c.058-1.137.836-1.57 1.808-.956.887.56 1.58 1.342 2.192 2.19 1.798 2.513 3.142 5.234 3.736 8.444.2-.549.35-.95.493-1.354.726-2.05 1.47-4.095 1.898-6.237.036-.18.091-.326-.066-.483-.769-.772-1.01-1.783-1.27-2.796-.224-.872-.247-1.772-.436-2.646-.037-2.1-.063-4.201.462-6.26.185-.725.422-1.433.803-2.082.583-.992 1.472-.997 2.03.013.625 1.13.93 2.353 1.062 3.643.106 1.034.246 2.06.219 3.104-.015.567-.209 1.122-.107 1.696-.037 1.609-.346 3.154-1.07 4.6-.096.19-.195.424-.36.526-.605.374-.695.983-.842 1.595-.464 1.93-1.132 3.795-1.79 5.664-.062.175-.179.348-.09.653.64-.604 1.249-1.17 1.925-1.651 2.186-1.553 4.497-2.84 7.148-3.408.43-.092.861-.085 1.285-.045.79.076 1.095.61.854 1.387-.187.6-.567 1.07-.984 1.513-2.408 2.553-5.325 4.273-8.646 5.329-.13.041-.256.095-.384.143-.75.038-1.504.28-2.251-.055-.216-.096-.262.127-.306.261a36.205 36.205 0 0 0-1.307 5.417c-.251 1.516-.122 3.053-.129 4.582 0 .212-.015.428.215.604.076-.12.148-.228.217-.34a15.521 15.521 0 0 1 2.487-3.035c1.03-.988 2.154-1.868 3.311-2.702 1.133-.616 2.22-1.333 3.511-1.594.171-.034.347-.061.52-.064.923-.013 1.311.508 1.08 1.41-.277 1.08-.925 1.955-1.613 2.775-1.91 2.275-4.16 4.136-6.86 5.407-.582.274-1.177.535-1.836.561-.323.013-.33.155-.257.422.392 1.42.918 2.795 1.39 4.188.73 2.152 1.499 4.292 1.864 6.536.251.072.282-.126.365-.241 2.018-2.787 4.586-4.909 7.676-6.389.581-.278 1.197-.488 1.855-.495.892-.008 1.287.506 1.071 1.374-.274 1.101-.935 1.993-1.638 2.828-1.911 2.273-4.163 4.133-6.864 5.4-.6.281-1.213.562-1.897.552-.398-.006-.377.252-.367.514.082 2.335-.68 4.436-1.767 6.446-.027.05-.076.088-.115.132" fill="#454E90" mask="url(#8e1knp26yc)" transform="matrix(-1 0 0 1 1456.158 0)"/>
        <path d="M751.02 102.19c-.325-.058-.652-.113-.71-.523.136-.256.266-.515.407-.767 1.501-2.67 2.305-5.515 2.249-8.582-.01-.524-.045-.807-.661-.416-.338.214-.769.238-1.19.245-1.733.028-3.362-.43-4.953-1.024-3.643-1.361-7.008-3.199-9.954-5.734-1.051-.886-2.005-1.856-2.49-3.16-.394-1.055-.059-1.606 1.037-1.939.791-.24 1.557-.029 2.333.055.317.042.646.047.95.133 5.591 1.578 10.606 4.095 14.408 8.577.088.103.151.281.335.175.147-.084.124-.232.096-.383-.195-1.013-.348-2.035-.575-3.041-1.12-4.96-3.285-9.595-4.666-14.475-.074-.261-.18-.509-.547-.31-.875.473-1.83.304-2.76.32-2.936-.566-5.666-1.673-8.257-3.107-2.613-1.447-5.132-3.033-7.01-5.401-.61-.77-1.342-1.62-.785-2.652.524-.968 1.605-.829 2.53-.772 1.803.111 3.505.656 5.157 1.34 3.648 1.508 7.043 3.419 9.898 6.16.285.274.54.578.928.997-.294-1.847-.186-3.534-.177-5.218.021-3.605.96-7.046 1.99-10.468.082-.276.184-.547.28-.82.145-.415.08-.623-.438-.75-1.517-.371-2.487-1.536-3.398-2.639-2.92-3.532-5-7.504-6.077-11.954a10.095 10.095 0 0 1-.288-2.911c.087-1.669 1.255-2.303 2.713-1.402 1.33.822 2.368 1.967 3.288 3.212 2.697 3.685 4.712 7.676 5.604 12.384.3-.805.523-1.394.738-1.986 1.09-3.007 2.207-6.006 2.848-9.148.054-.263.137-.478-.098-.708-1.154-1.132-1.515-2.615-1.906-4.1-.336-1.28-.371-2.6-.654-3.882-.056-3.081-.094-6.162.693-9.18.277-1.064.633-2.102 1.204-3.054.875-1.456 2.208-1.463 3.046.019.938 1.657 1.393 3.45 1.592 5.343.16 1.517.37 3.021.329 4.552-.023.832-.313 1.646-.16 2.487-.055 2.36-.52 4.626-1.607 6.747-.143.28-.29.622-.539.772-.906.549-1.043 1.44-1.263 2.339-.695 2.83-1.697 5.566-2.684 8.306-.093.258-.269.511-.135.959.96-.887 1.873-1.718 2.887-2.422 3.28-2.277 6.745-4.164 10.723-4.998.643-.135 1.291-.125 1.926-.066 1.186.11 1.643.894 1.281 2.034-.28.88-.85 1.57-1.476 2.22-3.612 3.743-7.987 6.266-12.97 7.815-.194.06-.382.14-.574.21-1.127.056-2.257.412-3.377-.08-.323-.142-.392.185-.459.383-.875 2.595-1.504 5.252-1.96 7.944-.378 2.223-.183 4.478-.194 6.72-.001.312-.022.628.322.886.114-.175.223-.335.326-.498 1.041-1.648 2.31-3.12 3.73-4.452 1.544-1.449 3.231-2.74 4.968-3.963 1.698-.903 3.329-1.955 5.266-2.337.256-.05.52-.09.78-.094 1.384-.02 1.966.745 1.62 2.066-.416 1.585-1.387 2.869-2.42 4.072-2.864 3.336-6.24 6.066-10.289 7.93-.874.402-1.767.785-2.755.823-.484.018-.495.226-.385.619.587 2.083 1.376 4.1 2.085 6.143 1.096 3.155 2.248 6.294 2.795 9.585.377.105.423-.184.549-.354 3.026-4.086 6.877-7.199 11.514-9.37.871-.408 1.795-.716 2.782-.726 1.338-.012 1.93.743 1.606 2.015-.412 1.616-1.402 2.923-2.457 4.148-2.867 3.334-6.245 6.062-10.296 7.92-.9.412-1.82.824-2.846.81-.596-.01-.564.37-.55.754.123 3.423-1.019 6.505-2.651 9.453-.04.073-.113.13-.171.194" fill="#6B73AB" mask="url(#8e1knp26yc)"/>
        <g mask="url(#8e1knp26yc)">
            <g transform="translate(646.05 3)">
                <use fill="#464D89" xlink:href="#okqxruqc7f"/>
                <use fill="url(#9iaagghgbg)" xlink:href="#okqxruqc7f"/>
                <use fill="url(#7ted8bby6i)" xlink:href="#ynse5dl70h"/>
            </g>
            <g transform="translate(626 3)">
                <use fill="#FFC62C" xlink:href="#7a2p9s6ibj"/>
                <use fill="url(#wtnv1zwigk)" xlink:href="#7a2p9s6ibj"/>
            </g>
            <g transform="translate(626 3)">
                <use fill="#EFEFFF" xlink:href="#tuhv8e6m7l"/>
                <use fill="url(#r65pzzurym)" xlink:href="#tuhv8e6m7l"/>
            </g>
            <g transform="translate(626 3)">
                <use fill="#EFEFFF" xlink:href="#elu74fr56n"/>
                <use fill="url(#yf5gdjpoqo)" xlink:href="#elu74fr56n"/>
            </g>
            <g fill-rule="nonzero">
                <path d="M664.772 52.254c-.46-2.276-.024-3.77-.024-3.77s-.116.91.8 2.375c-.01 1.817.347 2.765.347 2.765l.073-.054-.073.064s-.544-.444-1.123-1.38zM666.94 51.932c.22.222.426.375.574.448l-.002-.001s.166.06.196.02c.203-.215.252-.616.117-1.37-.774-.441-.872-1.13-.872-1.13s-.14.956-.013 2.033z" fill="#364FDE"/>
                <path d="M664.748 48.484s-.637 2.182.441 5.289c.03.09 0 .19-.078.249l-1.137.797c-.108.08-.265.03-.314-.1-.303-.826-1.136-3.565-.293-6.563.039-.12.166-.19.284-.14l1.097.468z" fill="#56D8FF"/>
                <path d="m666.924 52.867-1.03.757s-.548-1.455-.264-4.213a.213.213 0 0 1 .323-.16l1 .648s-.196 1.344.088 2.639c.03.13-.02.259-.117.329zM668.825 51.183l-.95-.627c-.06-.04-.148.02-.128.09.225 1.006.196 1.504-.04 1.753-.029.04-.195-.02-.195-.02.156.08.196.04.196.04.156-.12.744-.548 1.117-.807.147-.11.147-.329 0-.429z" fill="#667DFF"/>
            </g>
            <g transform="translate(626 3)">
                <use fill="#464D89" xlink:href="#ya8y778jfp"/>
                <use fill="url(#40qi6pxfaq)" xlink:href="#ya8y778jfp"/>
            </g>
            <g transform="translate(662.117 33.241)">
                <use fill="#FFC62C" xlink:href="#w3atceajtr"/>
                <use fill="url(#cknulgfsvs)" xlink:href="#w3atceajtr"/>
            </g>
            <path d="M7.702 6.715c-1.543.723-3.363 1.11-5.577 1.11A8.675 8.675 0 0 1 0 7.569V3.846A3.849 3.849 0 0 1 3.85 0a3.849 3.849 0 0 1 3.852 3.846v2.87z" fill="url(#uwqzm8w77t)" transform="translate(662.117 33.241)"/>
            <g transform="translate(626 3)">
                <use fill="#464D89" xlink:href="#7r6n8f2p7u"/>
                <use fill="url(#u1e053vxjv)" xlink:href="#7r6n8f2p7u"/>
            </g>
            <g transform="translate(626 3)">
                <use fill="#FFC62C" xlink:href="#lfs4twtkgw"/>
                <use fill="url(#qw72fgzeyx)" xlink:href="#lfs4twtkgw"/>
            </g>
            <path d="M29.76 15.784h16.698c2.172 0 4.133 2.702 4.133 6.035s-1.96 6.035-4.133 6.035H29.76c-2.172 0-4.133-2.702-4.133-6.035s1.961-6.035 4.133-6.035z" fill="url(#qwkvpwu3uy)" transform="translate(626 3)"/>
            <path d="M655.76 17.457h16.698c2.172 0 4.133 2.702 4.133 6.035s-1.96 6.035-4.133 6.035H655.76c-2.172 0-4.133-2.702-4.133-6.035s1.961-6.035 4.133-6.035z" fill="#D6DFEA"/>
            <path d="M653.731 19.049h18.1c2.355 0 2.768 1.99 2.768 4.443 0 2.454-.413 4.444-2.767 4.444H653.73c-2.355 0-2.767-1.99-2.767-4.444 0-2.454.412-4.443 2.767-4.443z" fill="#1F1845"/>
            <path d="m673.802 20.375 1.516.076a1.2 1.2 0 0 1 1.14 1.199v.184l-2.656 2.123v-3.582z" fill="#1F1845"/>
            <path d="M660.122 20.508h3.858a3.05 3.05 0 0 1 0 6.101h-3.858a3.05 3.05 0 0 1 0-6.101z" fill="#7BC1EB" opacity=".3"/>
            <path d="M660.124 22.498h3.854a1.061 1.061 0 0 1 0 2.122h-3.854a1.061 1.061 0 0 1 0-2.122z" fill="#7BC1EB"/>
            <path d="M657.683 71.235a.199.199 0 1 1 .105-.385c2.077.563 3.9 1.521 6.368 3.202.55.375 2.475 1.725 2.52 1.756 3.044 2.114 5.184 3.313 7.853 4.198a.199.199 0 1 1-.125.377c-2.713-.898-4.883-2.114-7.956-4.249-.046-.031-1.969-1.38-2.516-1.753-2.434-1.658-4.222-2.598-6.249-3.146z" fill="#FFF" fill-rule="nonzero"/>
            <g transform="translate(626 3)">
                <use fill="#FFC62C" xlink:href="#3x1f6l92vz"/>
                <use fill="url(#aqlkonu3vA)" xlink:href="#3x1f6l92vz"/>
            </g>
        </g>
        <g fill-rule="nonzero" mask="url(#8e1knp26yc)">
            <g transform="translate(134.777 11)">
                <use fill="url(#wkogocufwB)" xlink:href="#0lsw7fzhqC"/>
                <use fill="#000" filter="url(#loh5jfkkcD)" xlink:href="#0lsw7fzhqC"/>
                <path stroke="url(#pdas88f3lE)" d="m8.458 2.395-.066.168-.07.19a.588.588 0 0 0-.044.119c-.05.147-.094.303-.131.455l-.009.033a1.05 1.05 0 0 0-.033.166 5.382 5.382 0 0 0-.065.324l-.006.033a1.44 1.44 0 0 0-.027.201l-.008.054a2.307 2.307 0 0 0-.028.248 1.384 1.384 0 0 0-.018.267v.537c0 .065.003.13.007.196.002.048.005.096.005.145l-.001.044.007.033c.007.047.005.092.005.138v.024a13.218 13.218 0 0 0 .054.493c.003.018.007.035.007.053l-.001.022A9.31 9.31 0 0 0 8.15 7l3.407 16.625c.026.126.055.25.085.377l.012.048.037.134c.024.092.048.183.074.276l.053.168c.012.033.023.067.034.103l.041.125.058.17.084.234c.01.028.02.05.03.074.008.017.015.035.026.068.034.104.076.213.107.28.025.056.048.108.071.164l.115.222.073.155c.037.078.085.175.115.23l.02.04a2.176 2.176 0 0 0 .118.221l.053.095.072.13.012.022a7.944 7.944 0 0 0 .15.255l.035.058.032.053.191.294.038.056c.078.116.156.227.244.349l.068.09.174.234.102.127.068.083c.035.043.068.084.09.109.037.046.078.091.119.135l.15.173.116.122c.054.06.112.12.169.177l.123.124.161.153.135.128.12.108.156.134.118.099.162.13.107.084.12.089.065.048.111.08.197.135.082.054c.115.077.233.148.35.216l.042.013.072.045.136.074.108.057.181.09c.033.018.066.033.097.047l.043.02.177.079.13.056.189.073.131.047.182.061.138.043.18.052.139.036.19.04.128.028.21.034.1.017.067.009c.096.014.19.026.286.028l13.309.992-5.994 3.456a3.647 3.647 0 0 1-1.885.467l-.249-.015-13.581-1.007c-.03-.002-.06-.007-.09-.01a2.087 2.087 0 0 0-.195-.02l-.064-.01-.185-.03-.11-.024a2.087 2.087 0 0 1-.154-.034l-.113-.03-.164-.045-.113-.035-.159-.053-.112-.041-.053-.021-.102-.041-.114-.048-.158-.07-.118-.056a3.209 3.209 0 0 1-.167-.084l-.09-.046-.209-.122-.05-.03a6.488 6.488 0 0 1-.25-.155l-.093-.063a4.2 4.2 0 0 1-.17-.115l-.098-.07-.156-.116-.104-.08-.147-.12-.106-.087-.143-.124-.102-.091-.07-.066a.369.369 0 0 1-.041-.04l-.167-.16-.111-.108-.145-.154-.109-.115-.048-.054-.095-.108-.097-.112-.05-.06c-.032-.039-.065-.078-.103-.127l-.087-.105-.027-.037c-.046-.062-.09-.124-.137-.184l-.077-.102c-.061-.078-.122-.17-.18-.259l-.02-.028-.04-.061a7.034 7.034 0 0 1-.17-.264l-.069-.11-.05-.087c-.028-.046-.055-.09-.078-.132l-.076-.133-.11-.204-.078-.15c-.034-.066-.066-.133-.097-.197l-.07-.147-.097-.214-.005-.01c-.02-.042-.033-.072-.057-.13l-.04-.1-.025-.065-.023-.055c-.02-.049-.038-.098-.054-.14l-.079-.218-.059-.176a1.838 1.838 0 0 1-.065-.195l-.046-.15-.07-.252-.03-.119c-.031-.126-.062-.251-.088-.38L.676 11.685a9.014 9.014 0 0 1-.107-.624.031.031 0 0 1-.009-.014c-.004-.012.004-.024.004-.035v-.031L.56 10.95a6.22 6.22 0 0 0-.015-.11l-.015-.105-.007-.104v-.034a.693.693 0 0 1-.005-.033c-.008-.06-.007-.11-.007-.16v-.027l-.002-.023c-.01-.097-.009-.195-.009-.29v-.222l.006-.121c.003-.062.007-.124.008-.186 0-.015.002-.03.004-.045.005-.053.01-.106.011-.159.009-.093.02-.184.032-.274l.01-.065c.004-.035.008-.07.015-.11.017-.1.038-.206.06-.307l.017-.077.013-.06c.035-.141.074-.28.12-.415l-.005.012.018-.04.015-.05c.038-.107.079-.213.123-.316l.015-.033c.033-.08.074-.158.114-.235.028-.056.056-.112.087-.166.032-.056.065-.11.1-.164l.022-.033.01-.016.03-.045c.042-.064.108-.155.132-.187l.032-.04.042-.051.046-.056.092-.108.052-.055.026-.027.148-.144.093-.083c.051-.045.106-.086.16-.127l6.31-3.664z" stroke-linejoin="square"/>
            </g>
            <path d="m12.805.5.265.012 13.578 1.005c1.543.114 3.088 1 4.35 2.31 1.292 1.341 2.289 3.136 2.684 5.067l3.423 16.636c.385 1.872.136 3.528-.615 4.684a3.51 3.51 0 0 1-1.413 1.27c-.557.27-1.204.39-1.919.337L19.584 30.81c-1.543-.115-3.088-1-4.35-2.31-1.291-1.342-2.289-3.137-2.684-5.07L9.13 6.8c-.388-1.87-.14-3.524.608-4.678.361-.557.838-.993 1.413-1.271.557-.27 1.205-.391 1.92-.34z" stroke="#6097FF" fill="url(#t5ezqjzkaF)" transform="translate(134.777 11)"/>
            <g fill="#F9F9F9">
                <path d="M166.667 27.94c.657.982.935 2.535.672 3.71-.298 1.28-1.242 2.159-2.688 2.467a4.958 4.958 0 0 1-.87.076 6.853 6.853 0 0 1-1.145-.065 5.329 5.329 0 0 1-2.844-1.58c-.274-.301-.823-1.11-.8-1.164l.232-.186.926-.68.696-.517.197.265c.3.427.671.798 1.1 1.096a2.63 2.63 0 0 0 1.292.322c.518-.009.99-.185 1.27-.517a1.15 1.15 0 0 0 .259-.922 1.39 1.39 0 0 0-.274-.776c-.243-.332-.693-.6-1.94-1.19-1.431-.647-2.052-1.065-2.658-1.712a5.027 5.027 0 0 1-.874-1.513c-.143-.441-.281-1.524-.23-1.96.129-1.53 1.026-2.615 2.421-2.945.235-.05.475-.073.715-.071.434-.015.869.024 1.293.114a3.63 3.63 0 0 1 1.745 1.078c.274.301.688.829.728.966 0 .045-1.05.957-1.694 1.465-.043 0-.153-.12-.268-.301-.398-.559-.776-.798-1.324-.834h-.13c-.717.011-1.141.491-1.067 1.245.016.203.076.4.176.578.218.416.572.663 1.647 1.164 1.977.905 2.856 1.507 3.437 2.387zM152.626 20.399c2.54-.043 4.631-.071 4.631-.048.029.014.083.57.15 1.258l.12 1.22-3.434.058 1.106 11.285-2.435.042-1.102-11.291-3.43.058-.122-1.244-.1-1.243 4.616-.095z"/>
            </g>
            <g>
                <path d="m10.663.525 15.141 5.017c2.568 1.5 2.877 1.715 3.036 1.861l.03.028c.195.19.335.33.462.468.139.156.247.28.345.399l1.863 17.688-6.44 7.609.982-14.71c-.12-1.28-.128-1.303-.133-1.325-1.978-3.983-2.125-4.134-2.262-4.287a8.107 8.107 0 0 0-.521-.55c-.258-.241-.451-.41-.658-.58l-16.41-6.31-1.614-.23 3.36-4.194 2.82-.884z" stroke="url(#thyx1mi5hG)" fill="url(#m5b2clgzlH)" transform="translate(129 27.142)"/>
                <path d="M19.557 11.035c3.31 1.148 6.012 4.66 6.032 7.84l.091 13.078c.023 3.176-2.643 4.832-5.953 3.684L6.123 30.923c-3.31-1.148-6.012-4.66-6.032-7.84L0 10.004c-.023-3.176 2.643-4.83 5.953-3.684l13.604 4.714z" fill="url(#48qeiozz2I)" transform="translate(129 27.142)"/>
                <path fill="#3EB17E" d="m149.431 44.84-8.617 10-8.147-15.584 3.31 1.103 4.93 9.401 5.171-6.037z"/>
                <path fill="#33465A" d="m146.078 43.723-5.171 6.037-4.93-9.4 3.101 1.031 1.917 3.624 1.982-2.325z"/>
            </g>
        </g>
        <g fill-rule="nonzero" mask="url(#8e1knp26yc)">
            <path d="M31.352 8.466c.832-.27 1.593-.356 2.258-.27.647.082 1.199.328 1.626.722.88.812 1.209 2.216.883 3.975L33.892 25.12c-.346 1.9-1.389 3.853-2.783 5.477-1.392 1.62-3.137 2.917-4.916 3.493l-11.454 3.717c-.832.27-1.593.355-2.259.27-.646-.083-1.199-.328-1.626-.722-.883-.812-1.215-2.218-.894-3.978l2.227-12.225c.346-1.9 1.387-3.852 2.78-5.474 1.392-1.62 3.139-2.918 4.918-3.496z" stroke="#FFF9E3" fill="url(#r4mim3vrfJ)" transform="translate(691.186 25)"/>
            <path d="M14.18 3.323c.412-.04.7.02.785.17.287.509-.735 3.834-2.583 5.817l-.05.055a4.981 4.981 0 0 0-1.949-2.206c.199-.602.362-1.215.49-1.835a7.19 7.19 0 0 0 .097-.55c1.146-.915 2.41-1.371 3.21-1.451z" fill="url(#fqv2xsmtxK)" transform="translate(707.86 35.889)"/>
            <path d="M717.344 47.913a.214.214 0 0 1 .241.248.438.438 0 0 1-.319.377h-.035a.216.216 0 0 1-.241-.248.438.438 0 0 1 .319-.375l.035-.002z" fill="#CDCDCD"/>
            <g fill="#ECB732">
                <path d="m714.46 46.649.758-.85.254.247-.753.846z"/>
                <path d="m714.55 44.483.983.96.255.249.611.594-.32.351-.607-.59-.254-.248-.986-.963z"/>
            </g>
            <path fill="#ECB732" d="m716.755 44.073.258.242-1.225 1.377-.255-.25zM719.54 50.937l.262.241-1.585 1.808-.248-.255zM716.037 54.936l1.62-1.848.247.256-1.607 1.833z"/>
            <path d="M718.337 49.225c.453-.044.78.063.759.267-.026.232-.498.509-1.058.612a2.592 2.592 0 0 1-.213.03c-.452.045-.778-.06-.757-.264.023-.234.497-.51 1.057-.614.073-.014.144-.024.212-.03z" fill="#EAADCC"/>
            <path d="M718.342 48.146a1.156 1.156 0 0 1-.848.99l-.095.016a.569.569 0 0 1-.639-.655c.051-.474.388-.868.849-.991a.66.66 0 0 1 .095-.017.567.567 0 0 1 .638.657zm-1.076.392a.438.438 0 0 0 .32-.377.214.214 0 0 0-.242-.248h-.035a.438.438 0 0 0-.32.375.216.216 0 0 0 .242.248h.035" fill="#000"/>
            <path fill="#ECB732" d="m711.657 54.21 1.298 1.301-.32.35-1.288-1.29zM709.824 53.045l.321-.35 1.261 1.263-.31.36z"/>
            <path fill="#ECB732" d="m712.545 52.64.263.236-1.15 1.334-.311.361-.77.893-.264-.236.782-.91.311-.36z"/>
            <path d="M713.687 49.884c.02-.003.04.006.05.023.138.22.366.318.707.296h.04c.337-.039.65-.192.887-.435a.095.095 0 0 1 .054-.025.048.048 0 0 1 .047.018c.02.037.01.082-.022.107-.264.27-.613.441-.987.486h-.045c-.371.027-.646-.087-.802-.34a.09.09 0 0 1 .03-.108.078.078 0 0 1 .041-.022z" fill="#000"/>
            <path d="M711.245 50.04a.76.76 0 0 0 .595.17 1.135 1.135 0 0 0 .278-.066.253.253 0 0 1 .128.264c-.05.236-.455.451-.92.497h-.071c-.496.03-.849-.147-.8-.395.046-.195.382-.4.79-.47z" fill="#EAADCC"/>
            <path d="M711.832 48.71a.216.216 0 0 1 .241.247.436.436 0 0 1-.32.375h-.035a.216.216 0 0 1-.242-.248.438.438 0 0 1 .32-.375h.036z" fill="#CDCDCD"/>
            <path d="M712.83 48.94a1.15 1.15 0 0 1-.849.991l-.095.015a.569.569 0 0 1-.631-.65c.05-.474.388-.868.849-.99l.095-.016a.569.569 0 0 1 .63.65zm-1.076.392a.436.436 0 0 0 .319-.375.216.216 0 0 0-.241-.248h-.036a.438.438 0 0 0-.32.375.216.216 0 0 0 .242.248h.036" fill="#000"/>
            <path d="M713.086 48.882a1.546 1.546 0 0 1-.967 1.268 1.135 1.135 0 0 1-.279.066.76.76 0 0 1-.595-.17.82.82 0 0 1-.25-.69 1.527 1.527 0 0 1 1.12-1.314l.126-.02c.513-.056.88.309.845.86zm-1.101 1.05a1.15 1.15 0 0 0 .848-.992.569.569 0 0 0-.638-.655l-.095.015c-.46.123-.798.517-.848.991a.569.569 0 0 0 .638.655l.095-.015" fill="#FFF9E3"/>
            <path d="M12.331 9.363a4.981 4.981 0 0 0-1.948-2.206 4.085 4.085 0 0 0-2.485-.51 5.6 5.6 0 0 0-1.566.4c-1.118.47-2.18 1.298-3.104 2.367a13.694 13.694 0 0 0-3.141 7.393c-.438 4.288 1.664 5.223 4.609 4.932.409-.04.832-.104 1.268-.185 3.582-.68 6.596-2.29 7.094-7.174.2-1.959-.083-3.688-.727-5.017zm-1.096 4.243c-.025.232-.497.509-1.057.613a2.592 2.592 0 0 1-.214.03c-.452.044-.777-.061-.757-.265.024-.234.497-.509 1.057-.614.073-.014.145-.024.212-.03.454-.045.78.062.759.266m-1.342-2.27c.509-.052.884.313.848.866a1.527 1.527 0 0 1-1.12 1.314l-.127.02c-.51.05-.881-.315-.849-.869a1.527 1.527 0 0 1 1.12-1.311.82.82 0 0 1 .124-.02M6.687 8.598l.982.96 1.222-1.372.258.243-1.225 1.376.61.594-.318.351-.608-.59-.753.848-.258-.244.757-.849-.986-.962.319-.351M4.77 19.973l-1.288-1.29-.768.892-.263-.228.783-.91-1.271-1.272.32-.35 1.261 1.263 1.14-1.319.262.236-1.15 1.334 1.298 1.302-.321.35M5.225 13a1.546 1.546 0 0 1-.967 1.268.253.253 0 0 1 .127.265c-.049.236-.454.452-.92.498h-.07c-.496.03-.85-.148-.8-.396.046-.215.382-.412.79-.482a.82.82 0 0 1-.25-.69 1.527 1.527 0 0 1 1.12-1.314l.125-.02c.51-.05.883.315.849.867m2.364.982c-.264.27-.613.441-.988.486h-.044c-.372.027-.646-.087-.803-.34a.09.09 0 0 1 .03-.108.078.078 0 0 1 .047-.022c.02-.003.04.006.05.023.138.22.366.318.707.296h.04c.337-.04.65-.192.886-.435a.095.095 0 0 1 .055-.025.048.048 0 0 1 .047.018c.02.037.01.082-.022.107m2.755 3.118.626.645-.324.348-.615-.635-1.607 1.833-.26-.241 1.62-1.848-.919-.947.323-.34.908.937 1.571-1.794.262.243-1.585 1.799" fill="url(#ha6z8uam8L)" transform="translate(707.86 35.889)"/>
            <path fill="#ECB732" d="m717.06 51.795.909.936.248.255.626.645-.324.348-.615-.635-.247-.256-.919-.947z"/>
            <path d="M718.6 48.088a1.527 1.527 0 0 1-1.12 1.314l-.127.02c-.51.05-.881-.316-.849-.869a1.527 1.527 0 0 1 1.12-1.312.82.82 0 0 1 .124-.02c.52-.051.89.314.852.867zm-1.101 1.049c.46-.124.797-.518.848-.991a.567.567 0 0 0-.636-.657.66.66 0 0 0-.095.017c-.46.123-.798.517-.849.991a.569.569 0 0 0 .638.655l.095-.015" fill="#FFF9E3"/>
            <path d="M9.884.137c.535-.032 1.43 2.17 1.086 4.64a7.19 7.19 0 0 1-.096.55c-.129.62-.292 1.233-.49 1.835a4.085 4.085 0 0 0-2.486-.51 5.6 5.6 0 0 0-1.566.4c.053-.445.14-.937.253-1.468.046-.22.103-.438.17-.656.743-2.447 2.6-4.74 3.13-4.79z" fill="url(#9405biog1M)" transform="translate(707.86 35.889)"/>
            <path d="M4.002 3.903a3.718 3.718 0 0 1 2.753 1.019 7.583 7.583 0 0 0-.17.655c-.114.531-.2 1.018-.253 1.47-1.118.468-2.18 1.296-3.104 2.365-.762-1.867-.35-4.764.126-5.274.183-.15.411-.232.648-.235z" fill="url(#v1x4ocgd3N)" transform="translate(707.86 35.889)"/>
            <path d="M22.623.598 32.63 7.189l-13.058 4.044c-.084.028-.167.058-.25.089l-.253.095a9.7 9.7 0 0 0-.621.268c-.381.196-.612.318-.768.404l-.117.065a6.397 6.397 0 0 0-.2.118c-.062.044-.12.086-.177.125l-.44.316c-.634.456-.791.587-.943.716-.208.177-.358.317-.503.454a19.19 19.19 0 0 0-.501.49c-.643.844-1.103 1.45-1.433 1.89l-.243.325c-.288.386-.441.596-.528.723l-.068.102c-.013.02-.024.037-.032.052l-.016.027-.014.025c-.645 1.347-.722 1.539-.792 1.73L8.97 33.192c-.157.877-.17 1.674-.06 2.378l.037.212-7.328-6.059c-.417-.346-.725-.82-.911-1.396l-.064-.22c-.18-.699-.195-1.526-.025-2.456l2.227-12.227c.527-1.663.608-1.879.7-2.091l.805-1.575C6.304 7.379 6.797 6.809 6.992 6.61l.035-.035c.02-.02.038-.035.054-.05l.023-.02c.21-.177.397-.332.587-.477l.051-.039L22.031.761l.592-.163z" stroke="#AF8822" fill="url(#2oxz7tuj2O)" transform="translate(691.186 25)"/>
            <g>
                <path d="M8.487.525 20.5 4.505c1.632.954 2.104 1.246 2.292 1.384l2.187 14.641-4.87 5.844.757-11.365a147.45 147.45 0 0 0-.293-1.559l-.028-.14a4.16 4.16 0 0 0-.067-.307l-.008-.02c-1.958-2.853-2.25-3.19-2.399-3.321l-.023-.02c-.023-.02-.044-.037-.07-.062L4.88 4.544l-1.12-.16L6.305 1.21 8.487.525z" stroke="url(#t09k17sy3P)" fill="url(#gjzz4cvncQ)" transform="translate(684 42.675)"/>
                <path d="M1.639 5.632c.75-.464 1.792-.524 2.936-.128l10.829 3.753c1.228.426 2.34 1.293 3.15 2.346.799 1.038 1.308 2.26 1.316 3.426l.072 10.41c.007 1.058-.414 1.88-1.14 2.329-.75.465-1.791.524-2.935.128L5.038 24.143c-1.228-.426-2.34-1.294-3.15-2.347-.8-1.038-1.308-2.26-1.316-3.426L.5 7.96C.492 6.903.914 6.08 1.639 5.633z" stroke="#74EFC9" fill="url(#uaaoloz60R)" transform="translate(684 42.675)"/>
                <path d="M693.719 53.457c.374.125.671.412.808.782l.916 2.442-3.99 4.457c-.314.35-.26.89.032 1.286l-3.318-1.06c-.78-.248-1.15-1.237-.667-1.779l5.27-5.908a.881.881 0 0 1 .949-.22z" fill="#80EEC0"/>
                <path d="M697.775 56.514c.31.1.557.336.673.64l2.685 7.065c.247.65-.253 1.203-.898.997l-7.04-2.244c-.646-.206-.953-1.017-.554-1.46l4.351-4.82c.202-.21.51-.28.783-.178z" fill="#00DC82"/>
            </g>
        </g>
    </g>
</svg>
