<svg fill="none" height="424" viewBox="0 0 1370 424" width="1370" xmlns="http://www.w3.org/2000/svg"><path d="m199.723 205.477-80.235-189.477h80.235z" fill="#1697f6"/><path d="m117.949 73.1896h-89.949l171.723 334.9604v-147.051z" fill="#7bc6ff"/><path d="m199.723 16.075v189.402l80.232-189.477h-80.232" fill="#7bc6ff"/><path d="m281.487 73.1896h89.949l-171.713 334.9604v-147.051z" fill="#aeddff"/><path d="m511.361 277.646 60.938-175.927h30.762l-79.102 213.281h-24.902l-78.955-213.281h30.615zm209.912 21.68c-10.546 12.403-26.025 18.604-46.435 18.604-16.895 0-29.785-4.883-38.672-14.649-8.789-9.863-13.232-24.414-13.33-43.652v-103.125h27.1v102.392c0 24.024 9.765 36.036 29.296 36.036 20.704 0 34.473-7.715 41.309-23.145v-115.283h27.1v158.496h-25.782zm133.448 18.604c-21.485 0-38.965-7.032-52.442-21.094-13.476-14.16-20.215-33.057-20.215-56.69v-4.98c0-15.723 2.979-29.736 8.936-42.041 6.055-12.402 14.453-22.07 25.195-29.004 10.84-7.031 22.559-10.547 35.157-10.547 20.605 0 36.621 6.787 48.046 20.362 11.426 13.574 17.139 33.007 17.139 58.3v11.28h-107.373c.391 15.625 4.932 28.271 13.623 37.939 8.789 9.57 19.922 14.356 33.399 14.356 9.57 0 17.675-1.954 24.316-5.86s12.451-9.082 17.432-15.527l16.552 12.89c-13.281 20.411-33.203 30.616-59.765 30.616zm-3.369-142.09c-10.938 0-20.118 4.004-27.54 12.012-7.421 7.91-12.011 19.043-13.769 33.398h79.395v-2.051c-.782-13.769-4.493-24.414-11.133-31.933-6.641-7.618-15.625-11.426-26.953-11.426zm133.447-57.715v38.379h29.591v20.947h-29.591v98.291c0 6.348 1.318 11.133 3.955 14.356 2.637 3.125 7.129 4.687 13.476 4.687 3.13 0 7.42-.586 12.89-1.758v21.973c-7.13 1.953-14.06 2.93-20.8 2.93-12.109 0-21.24-3.662-27.392-10.987-6.153-7.324-9.229-17.724-9.229-31.201v-98.291h-28.857v-20.947h28.857v-38.379zm90.821 196.875h-27.1v-158.496h27.1zm-29.3-200.537c0-4.395 1.32-8.106 3.96-11.133 2.73-3.027 6.74-4.5409 12.01-4.5409s9.28 1.5139 12.01 4.5409c2.74 3.027 4.1 6.738 4.1 11.133 0 4.394-1.36 8.057-4.1 10.986-2.73 2.93-6.74 4.395-12.01 4.395s-9.28-1.465-12.01-4.395c-2.64-2.929-3.96-6.592-3.96-10.986zm86.14 200.537v-137.549h-25.05v-20.947h25.05v-16.26c0-16.992 4.54-30.127 13.62-39.404 9.08-9.2775 21.92-13.9162 38.52-13.9162 6.25 0 12.45.8301 18.61 2.4903l-1.47 21.9729c-4.59-.879-9.47-1.319-14.65-1.319-8.79 0-15.57 2.588-20.36 7.764-4.78 5.078-7.18 12.402-7.18 21.973v16.699h33.84v20.947h-33.84v137.549zm142.82-39.697 36.91-118.799h29.01l-63.73 182.959c-9.86 26.367-25.53 39.551-47.02 39.551l-5.12-.44-10.11-1.904v-21.973l7.32.586c9.18 0 16.31-1.855 21.39-5.566 5.18-3.711 9.42-10.498 12.74-20.362l6.01-16.113-56.54-156.738h29.59z" fill="#fff"/></svg>