<svg fill="none" viewBox="0 0 82 84" height="84" width="82" xmlns="http://www.w3.org/2000/svg" alt="Logo" class="hidden h-[50px] w-[50px] dark:block"><title xmlns="http://www.w3.org/2000/svg">Home</title>
<path xmlns="http://www.w3.org/2000/svg" d="M0 36.2975L4.54024 42.2261L0 48.1495L6.0213 52.5485L3.31963 59.519L10.3317 62.0341L9.69332 69.4872L17.1242 69.9183L18.6053 77.2482L25.8574 75.5543L29.3302 82.1707L35.8112 78.4904L41 83.8543L46.1888 78.4904L52.6698 82.1707L56.1426 75.5543L63.3947 77.2482L64.8758 69.9183L72.3067 69.4872L71.6683 62.0341L78.6804 59.519L75.9787 52.5485L82 48.1495L77.4598 42.2261L82 36.2975L75.9787 31.8986L78.6804 24.9281L71.6683 22.4129L72.3067 14.9599L64.8758 14.5339L63.3947 7.20401L56.1426 8.89275L52.6698 2.28151L46.1888 5.9567L41 0.592773L35.8112 5.9567L29.3302 2.28151L25.8574 8.89275L18.6053 7.20401L17.1242 14.5339L9.69332 14.9599L10.3317 22.4129L3.31963 24.9281L6.0213 31.8986L0 36.2975Z" fill="white"></path>
<path xmlns="http://www.w3.org/2000/svg" d="M20.9512 26.7803L40.691 60.3675L60.4309 26.7803L52.535 26.7803L40.691 46.9326L28.7484 26.7803L20.9512 26.7803Z" fill="#3DD491"></path>
<path xmlns="http://www.w3.org/2000/svg" d="M28.8452 26.7803L40.7383 47.196L52.5331 26.7803L45.2596 26.7803L40.7383 34.6325L36.1187 26.7803L28.8452 26.7803Z" fill="#2C3D4F"></path>
</svg>
