<svg width="3840" height="250" viewBox="0 0 3840 250" fill="none" xmlns="http://www.w3.org/2000/svg">
<mask id="mask0" mask-type="alpha" maskUnits="userSpaceOnUse" x="0" y="0" width="3840" height="250">
<rect width="3840" height="250" fill="#C4C4C4"/>
</mask>
<g mask="url(#mask0)">
<path d="M3125.99 67.667C3143.38 67.667 3157.48 53.5685 3157.48 36.177C3157.48 18.7856 3143.38 4.68701 3125.99 4.68701C3108.59 4.68701 3094.5 18.7856 3094.5 36.177C3094.5 53.5685 3108.59 67.667 3125.99 67.667Z" fill="url(#paint0_radial)"/>
<path d="M3012.62 403.625C3090.01 403.625 3152.74 340.895 3152.74 263.513C3152.74 186.131 3090.01 123.401 3012.62 123.401C2935.24 123.401 2872.51 186.131 2872.51 263.513C2872.51 340.895 2935.24 403.625 3012.62 403.625Z" fill="url(#paint1_radial)"/>
<path d="M3290.39 194.64C3335.33 194.64 3371.77 158.205 3371.77 113.26C3371.77 68.315 3335.33 31.8799 3290.39 31.8799C3245.44 31.8799 3209.01 68.315 3209.01 113.26C3209.01 158.205 3245.44 194.64 3290.39 194.64Z" fill="url(#paint2_radial)"/>
<path d="M3125.99 86.584C3153.83 86.584 3176.39 64.016 3176.39 36.177C3176.39 8.338 3153.83 -14.23 3125.99 -14.23C3098.15 -14.23 3075.58 8.338 3075.58 36.177C3075.58 64.016 3098.15 86.584 3125.99 86.584Z" fill="url(#paint3_radial)"/>
<path d="M3264.55 280.843C3278.82 280.843 3290.39 269.276 3290.39 255.008C3290.39 240.74 3278.82 229.173 3264.55 229.173C3250.29 229.173 3238.72 240.74 3238.72 255.008C3238.72 269.276 3250.29 280.843 3264.55 280.843Z" fill="url(#paint4_radial)"/>
<path d="M3290.39 162.458C3317.56 162.458 3339.59 140.431 3339.59 113.26C3339.59 86.0887 3317.56 64.062 3290.39 64.062C3263.22 64.062 3241.19 86.0887 3241.19 113.26C3241.19 140.431 3263.22 162.458 3290.39 162.458Z" fill="url(#paint5_radial)"/>
<path d="M3840 -123V75.159C3805.25 83.968 3768.87 88.652 3731.39 88.652C3571.9 88.652 3432.22 3.909 3354.88 -122.999H3840V-123Z" fill="url(#paint6_radial)"/>
<path d="M3012.62 339.162C3054.4 339.162 3088.27 305.293 3088.27 263.513C3088.27 221.733 3054.4 187.864 3012.62 187.864C2970.84 187.864 2936.97 221.733 2936.97 263.513C2936.97 305.293 2970.84 339.162 3012.62 339.162Z" fill="url(#paint7_radial)"/>
<path opacity="0.4" d="M2799.73 -18.148C2799.73 128.954 2680.48 248.203 2533.37 248.203C2522.84 248.203 2512.45 247.592 2502.24 246.401V-123H2778.29C2792.09 -90.822 2799.73 -55.377 2799.73 -18.148Z" fill="url(#paint8_radial)"/>
<path opacity="0.4" d="M297.487 -18.148C297.487 128.954 178.238 248.203 31.135 248.203C20.601 248.203 10.212 247.592 -0.00195312 246.401V-123H276.053C289.849 -90.822 297.487 -55.377 297.487 -18.148Z" fill="url(#paint9_radial)"/>
</g>
<defs>
<radialGradient id="paint0_radial" cx="0" cy="0" r="1" gradientUnits="userSpaceOnUse" gradientTransform="translate(3255.35 217.009) scale(336.602)">
<stop stop-color="white"/>
<stop offset="0.0932" stop-color="#E5FFFF" stop-opacity="0.9068"/>
<stop offset="0.3294" stop-color="#AAFFFF" stop-opacity="0.6706"/>
<stop offset="0.5466" stop-color="#7BFFFF" stop-opacity="0.4534"/>
<stop offset="0.7377" stop-color="#59FFFF" stop-opacity="0.2623"/>
<stop offset="0.8954" stop-color="#44FFFF" stop-opacity="0.1046"/>
<stop offset="1" stop-color="#3DFFFF" stop-opacity="0"/>
</radialGradient>
<radialGradient id="paint1_radial" cx="0" cy="0" r="1" gradientUnits="userSpaceOnUse" gradientTransform="translate(3166.4 134.019) scale(316.126 316.126)">
<stop stop-color="white"/>
<stop offset="0.0932" stop-color="#E5FFFF" stop-opacity="0.9068"/>
<stop offset="0.3294" stop-color="#AAFFFF" stop-opacity="0.6706"/>
<stop offset="0.5466" stop-color="#7BFFFF" stop-opacity="0.4534"/>
<stop offset="0.7377" stop-color="#59FFFF" stop-opacity="0.2623"/>
<stop offset="0.8954" stop-color="#44FFFF" stop-opacity="0.1046"/>
<stop offset="1" stop-color="#3DFFFF" stop-opacity="0"/>
</radialGradient>
<radialGradient id="paint2_radial" cx="0" cy="0" r="1" gradientUnits="userSpaceOnUse" gradientTransform="translate(3217.22 280.475) scale(324.18)">
<stop stop-color="white"/>
<stop offset="0.0932" stop-color="#E5FFFF" stop-opacity="0.9068"/>
<stop offset="0.3294" stop-color="#AAFFFF" stop-opacity="0.6706"/>
<stop offset="0.5466" stop-color="#7BFFFF" stop-opacity="0.4534"/>
<stop offset="0.7377" stop-color="#59FFFF" stop-opacity="0.2623"/>
<stop offset="0.8954" stop-color="#44FFFF" stop-opacity="0.1046"/>
<stop offset="1" stop-color="#3DFFFF" stop-opacity="0"/>
</radialGradient>
<radialGradient id="paint3_radial" cx="0" cy="0" r="1" gradientUnits="userSpaceOnUse" gradientTransform="translate(3092.55 128.065) scale(177.13)">
<stop stop-color="white"/>
<stop offset="0.0932" stop-color="#E5FFFF" stop-opacity="0.9068"/>
<stop offset="0.3294" stop-color="#AAFFFF" stop-opacity="0.6706"/>
<stop offset="0.5466" stop-color="#7BFFFF" stop-opacity="0.4534"/>
<stop offset="0.7377" stop-color="#59FFFF" stop-opacity="0.2623"/>
<stop offset="0.8954" stop-color="#44FFFF" stop-opacity="0.1046"/>
<stop offset="1" stop-color="#3DFFFF" stop-opacity="0"/>
</radialGradient>
<radialGradient id="paint4_radial" cx="0" cy="0" r="1" gradientUnits="userSpaceOnUse" gradientTransform="translate(3155.24 95.6988) scale(385.786 385.786)">
<stop stop-color="white"/>
<stop offset="0.0932" stop-color="#E5FFFF" stop-opacity="0.9068"/>
<stop offset="0.3294" stop-color="#AAFFFF" stop-opacity="0.6706"/>
<stop offset="0.5466" stop-color="#7BFFFF" stop-opacity="0.4534"/>
<stop offset="0.7377" stop-color="#59FFFF" stop-opacity="0.2623"/>
<stop offset="0.8954" stop-color="#44FFFF" stop-opacity="0.1046"/>
<stop offset="1" stop-color="#3DFFFF" stop-opacity="0"/>
</radialGradient>
<radialGradient id="paint5_radial" cx="0" cy="0" r="1" gradientUnits="userSpaceOnUse" gradientTransform="translate(3238 210.242) scale(189.699)">
<stop stop-color="white"/>
<stop offset="0.0932" stop-color="#E5FFFF" stop-opacity="0.9068"/>
<stop offset="0.3294" stop-color="#AAFFFF" stop-opacity="0.6706"/>
<stop offset="0.5466" stop-color="#7BFFFF" stop-opacity="0.4534"/>
<stop offset="0.7377" stop-color="#59FFFF" stop-opacity="0.2623"/>
<stop offset="0.8954" stop-color="#44FFFF" stop-opacity="0.1046"/>
<stop offset="1" stop-color="#3DFFFF" stop-opacity="0"/>
</radialGradient>
<radialGradient id="paint6_radial" cx="0" cy="0" r="1" gradientUnits="userSpaceOnUse" gradientTransform="translate(3426.57 342.694) scale(683.391)">
<stop stop-color="white"/>
<stop offset="0.0932" stop-color="#E5FFFF" stop-opacity="0.9068"/>
<stop offset="0.3294" stop-color="#AAFFFF" stop-opacity="0.6706"/>
<stop offset="0.5466" stop-color="#7BFFFF" stop-opacity="0.4534"/>
<stop offset="0.7377" stop-color="#59FFFF" stop-opacity="0.2623"/>
<stop offset="0.8954" stop-color="#44FFFF" stop-opacity="0.1046"/>
<stop offset="1" stop-color="#3DFFFF" stop-opacity="0"/>
</radialGradient>
<radialGradient id="paint7_radial" cx="0" cy="0" r="1" gradientUnits="userSpaceOnUse" gradientTransform="translate(3142.04 136.356) scale(248.948 248.948)">
<stop stop-color="white"/>
<stop offset="0.0932" stop-color="#E5FFFF" stop-opacity="0.9068"/>
<stop offset="0.3294" stop-color="#AAFFFF" stop-opacity="0.6706"/>
<stop offset="0.5466" stop-color="#7BFFFF" stop-opacity="0.4534"/>
<stop offset="0.7377" stop-color="#59FFFF" stop-opacity="0.2623"/>
<stop offset="0.8954" stop-color="#44FFFF" stop-opacity="0.1046"/>
<stop offset="1" stop-color="#3DFFFF" stop-opacity="0"/>
</radialGradient>
<radialGradient id="paint8_radial" cx="0" cy="0" r="1" gradientUnits="userSpaceOnUse" gradientTransform="translate(3411.9 247.332) scale(897.876)">
<stop stop-color="white"/>
<stop offset="0.0932" stop-color="#E5FFFF" stop-opacity="0.9068"/>
<stop offset="0.3294" stop-color="#AAFFFF" stop-opacity="0.6706"/>
<stop offset="0.5466" stop-color="#7BFFFF" stop-opacity="0.4534"/>
<stop offset="0.7377" stop-color="#59FFFF" stop-opacity="0.2623"/>
<stop offset="0.8954" stop-color="#44FFFF" stop-opacity="0.1046"/>
<stop offset="1" stop-color="#3DFFFF" stop-opacity="0"/>
</radialGradient>
<radialGradient id="paint9_radial" cx="0" cy="0" r="1" gradientUnits="userSpaceOnUse" gradientTransform="translate(825.658 231.332) scale(897.876)">
<stop stop-color="white"/>
<stop offset="0.0932" stop-color="#E5FFFF" stop-opacity="0.9068"/>
<stop offset="0.3294" stop-color="#AAFFFF" stop-opacity="0.6706"/>
<stop offset="0.5466" stop-color="#7BFFFF" stop-opacity="0.4534"/>
<stop offset="0.7377" stop-color="#59FFFF" stop-opacity="0.2623"/>
<stop offset="0.8954" stop-color="#44FFFF" stop-opacity="0.1046"/>
<stop offset="1" stop-color="#3DFFFF" stop-opacity="0"/>
</radialGradient>
</defs>
</svg>
