<svg width="3840" height="250" viewBox="0 0 3840 250" fill="none" xmlns="http://www.w3.org/2000/svg">
<path d="M3865 -123H-24.9609V377H3865V-123Z" fill="url(#paint0_radial)"/>
<path d="M3446.65 90.8889C3448.38 90.8889 3449.78 89.4849 3449.78 87.7529C3449.78 86.021 3448.38 84.6169 3446.65 84.6169C3444.92 84.6169 3443.51 86.021 3443.51 87.7529C3443.51 89.4849 3444.92 90.8889 3446.65 90.8889Z" fill="white"/>
<path d="M2458.43 173.851C2458.43 177.533 2455.45 180.517 2451.76 180.517C2448.08 180.517 2445.09 177.533 2445.09 173.851C2445.09 170.165 2448.08 167.183 2451.76 167.183C2455.44 167.182 2458.43 170.165 2458.43 173.851Z" fill="white"/>
<path d="M3518.17 114.24C3519.9 114.24 3521.3 112.836 3521.3 111.104C3521.3 109.372 3519.9 107.968 3518.17 107.968C3516.43 107.968 3515.03 109.372 3515.03 111.104C3515.03 112.836 3516.43 114.24 3518.17 114.24Z" fill="white"/>
<path d="M3503.99 180.12C3505.72 180.12 3507.12 178.717 3507.12 176.985C3507.12 175.254 3505.72 173.85 3503.99 173.85C3502.26 173.85 3500.85 175.254 3500.85 176.985C3500.85 178.717 3502.26 180.12 3503.99 180.12Z" fill="white"/>
<path d="M2202.26 195.964C2204 195.964 2205.4 194.56 2205.4 192.829C2205.4 191.098 2204 189.694 2202.26 189.694C2200.53 189.694 2199.13 191.098 2199.13 192.829C2199.13 194.56 2200.53 195.964 2202.26 195.964Z" fill="white"/>
<path d="M2454.89 117.375C2456.63 117.375 2458.03 115.971 2458.03 114.24C2458.03 112.509 2456.63 111.105 2454.89 111.105C2453.16 111.105 2451.76 112.509 2451.76 114.24C2451.76 115.971 2453.16 117.375 2454.89 117.375Z" fill="white"/>
<path d="M2374.23 213.637C2375.96 213.637 2377.37 212.233 2377.37 210.501C2377.37 208.769 2375.96 207.365 2374.23 207.365C2372.5 207.365 2371.09 208.769 2371.09 210.501C2371.09 212.233 2372.5 213.637 2374.23 213.637Z" fill="white"/>
<path d="M2606.99 180.12C2608.72 180.12 2610.12 178.717 2610.12 176.985C2610.12 175.254 2608.72 173.85 2606.99 173.85C2605.26 173.85 2603.85 175.254 2603.85 176.985C2603.85 178.717 2605.26 180.12 2606.99 180.12Z" fill="white"/>
<path d="M2600.72 32.6221C2602.45 32.6221 2603.85 31.2185 2603.85 29.4871C2603.85 27.7556 2602.45 26.3521 2600.72 26.3521C2598.99 26.3521 2597.58 27.7556 2597.58 29.4871C2597.58 31.2185 2598.99 32.6221 2600.72 32.6221Z" fill="white"/>
<path d="M2643.49 241.84C2645.22 241.84 2646.63 240.436 2646.63 238.705C2646.63 236.974 2645.22 235.57 2643.49 235.57C2641.76 235.57 2640.36 236.974 2640.36 238.705C2640.36 240.436 2641.76 241.84 2643.49 241.84Z" fill="white"/>
<path d="M2311.39 127.945C2313.12 127.945 2314.53 126.541 2314.53 124.81C2314.53 123.079 2313.12 121.675 2311.39 121.675C2309.66 121.675 2308.26 123.079 2308.26 124.81C2308.26 126.541 2309.66 127.945 2311.39 127.945Z" fill="white"/>
<path d="M1893.38 216.772C1895.11 216.772 1896.51 215.368 1896.51 213.636C1896.51 211.904 1895.11 210.5 1893.38 210.5C1891.65 210.5 1890.24 211.904 1890.24 213.636C1890.24 215.368 1891.65 216.772 1893.38 216.772Z" fill="white"/>
<path d="M752.312 155.238C754.184 155.238 755.702 153.72 755.702 151.848C755.702 149.976 754.184 148.458 752.312 148.458C750.44 148.458 748.922 149.976 748.922 151.848C748.922 153.72 750.44 155.238 752.312 155.238Z" fill="white"/>
<path d="M369.89 200.78C371.762 200.78 373.28 199.262 373.28 197.39C373.28 195.518 371.762 194 369.89 194C368.018 194 366.5 195.518 366.5 197.39C366.5 199.262 368.018 200.78 369.89 200.78Z" fill="white"/>
<path d="M259.285 73.289C261.157 73.289 262.675 71.7713 262.675 69.899C262.675 68.0268 261.157 66.509 259.285 66.509C257.412 66.509 255.895 68.0268 255.895 69.899C255.895 71.7713 257.412 73.289 259.285 73.289Z" fill="white"/>
<path d="M667.298 69.8981C668.001 69.8981 668.571 69.3281 668.571 68.6251C668.571 67.922 668.001 67.3521 667.298 67.3521C666.595 67.3521 666.025 67.922 666.025 68.6251C666.025 69.3281 666.595 69.8981 667.298 69.8981Z" fill="white"/>
<path d="M235.726 102.273C236.429 102.273 236.999 101.703 236.999 101C236.999 100.297 236.429 99.7271 235.726 99.7271C235.023 99.7271 234.453 100.297 234.453 101C234.453 101.703 235.023 102.273 235.726 102.273Z" fill="white"/>
<path d="M635.507 87.15C636.694 87.15 637.655 86.1883 637.655 85.002C637.655 83.8157 636.694 82.854 635.507 82.854C634.321 82.854 633.359 83.8157 633.359 85.002C633.359 86.1883 634.321 87.15 635.507 87.15Z" fill="white"/>
<path d="M512 101.875C513.186 101.875 514.148 100.913 514.148 99.7271C514.148 98.5408 513.186 97.5791 512 97.5791C510.813 97.5791 509.852 98.5408 509.852 99.7271C509.852 100.913 510.813 101.875 512 101.875Z" fill="white"/>
<defs>
<radialGradient id="paint0_radial" cx="0" cy="0" r="1" gradientUnits="userSpaceOnUse" gradientTransform="translate(3064.34 172.987) rotate(180) scale(1747.05 1728.08)">
<stop stop-color="#00C9FF"/>
<stop offset="0.0999" stop-color="#00B0E4"/>
<stop offset="0.3903" stop-color="#006C9B"/>
<stop offset="0.5249" stop-color="#00517E"/>
<stop offset="0.5433" stop-color="#004E7A"/>
<stop offset="0.7389" stop-color="#003256"/>
<stop offset="0.898" stop-color="#002040"/>
<stop offset="1" stop-color="#001A38"/>
</radialGradient>
</defs>
</svg>
