<svg width="481" height="83" viewBox="0 0 481 83" fill="none" xmlns="http://www.w3.org/2000/svg">
<path d="M36.5 82.2L47.5 63.2L58.5 82.2H76L47.5 32.9L19 82.2H36.5Z" fill="#36495E"/>
<path d="M47.5 32.9V63.2L58.5 82.2H76L47.5 32.9Z" fill="url(#paint0_linear)"/>
<path d="M115.5 82.2L104.5 63.2L93.5 82.2H76L104.5 32.9L133 82.2H115.5Z" fill="#36495E"/>
<path d="M104.5 32.9V63.2L93.5 82.2H76L104.5 32.9Z" fill="url(#paint1_linear)"/>
<path d="M104.5 0L76 49.3L47.5 0L0 82.2H19L47.5 32.9L76 82.2L104.5 32.9L133 82.2H152L104.5 0Z" fill="url(#paint2_linear)"/>
<path d="M178.9 34.7H189.7L178 70.3H166.7L155.1 34.7H165.9L170.7 52.7C171.7 56.7 172.3 59.5 172.4 61.1C172.5 60 172.7 58.5 173.1 56.8C173.4 55.1 173.7 53.8 174 52.8L178.9 34.7Z" fill="white"/>
<path d="M212.6 70.3L211.4 66.9H210.8C210 68.2 208.9 69.1 207.5 69.8C206.1 70.5 204.4 70.8 202.5 70.8C199.5 70.8 197.1 69.9 195.4 68.2C193.7 66.4 192.9 64 192.9 60.7V42.7H202.4V57.8C202.4 59.6 202.7 61 203.2 61.9C203.7 62.8 204.5 63.3 205.7 63.3C207.3 63.3 208.5 62.7 209.2 61.4C209.9 60.1 210.2 57.9 210.2 54.9V42.7H219.7V70.3H212.6Z" fill="white"/>
<path d="M239.6 70.8C235 70.8 231.4 69.6 228.9 67.1C226.4 64.7 225.1 61.2 225.1 56.7C225.1 52 226.3 48.5 228.6 46C231 43.5 234.3 42.3 238.7 42.3C242.9 42.3 246.1 43.4 248.3 45.5C250.6 47.7 251.7 50.8 251.7 54.9V59.1H234.7C234.8 60.6 235.3 61.8 236.4 62.7C237.5 63.6 238.9 64 240.7 64C242.4 64 243.9 63.8 245.3 63.5C246.7 63.2 248.2 62.6 249.9 61.9V68.7C248.4 69.5 246.9 70 245.3 70.3C243.7 70.6 241.8 70.8 239.6 70.8ZM239.1 48.7C238 48.7 237 49.1 236.3 49.8C235.5 50.5 235.1 51.6 235 53.1H243.2C243.2 51.8 242.8 50.7 242.1 49.9C241.4 49.1 240.3 48.7 239.1 48.7Z" fill="white"/>
<path d="M286.1 70.3L278.8 44.7H278.6C278.9 49.1 279.1 52.5 279.1 54.9V70.3H270.6V34.7H283.4L290.8 59.9H291L298.3 34.7H311.1V70.3H302.3V54.7C302.3 53.9 302.3 53 302.3 52C302.3 51 302.4 48.6 302.6 44.7H302.4L295.2 70.3H286.1Z" fill="white"/>
<path d="M336.2 70.3L334.4 66.7H334.2C332.9 68.3 331.6 69.4 330.3 70C329 70.6 327.3 70.9 325.1 70.9C322.5 70.9 320.5 70.1 319 68.6C317.5 67 316.8 64.9 316.8 62C316.8 59.1 317.8 56.9 319.9 55.4C321.9 54 324.9 53.2 328.8 53L333.4 52.9V52.5C333.4 50.2 332.3 49.1 330 49.1C328 49.1 325.4 49.8 322.3 51.1L319.6 44.8C322.8 43.1 326.9 42.3 331.8 42.3C335.3 42.3 338.1 43.2 340 44.9C341.9 46.7 342.9 49.1 342.9 52.2V70.3H336.2V70.3ZM329.1 64C330.3 64 331.2 63.6 332.1 62.9C333 62.2 333.3 61.2 333.3 60.1V58L331.1 58.1C328 58.2 326.4 59.4 326.4 61.6C326.4 63.2 327.3 64 329.1 64Z" fill="white"/>
<path d="M370.5 61.8C370.5 64.8 369.5 67 367.5 68.5C365.5 70 362.6 70.8 358.8 70.8C356.8 70.8 355 70.7 353.5 70.5C352 70.3 350.5 69.9 348.9 69.3V61.7C350.4 62.3 352 62.9 353.8 63.3C355.6 63.7 357.1 63.9 358.5 63.9C360.6 63.9 361.6 63.4 361.6 62.5C361.6 62 361.3 61.6 360.7 61.2C360.1 60.8 358.5 60.1 355.7 59C353.2 58 351.4 56.8 350.4 55.5C349.4 54.2 348.9 52.5 348.9 50.5C348.9 47.9 349.9 45.9 351.9 44.5C353.9 43.1 356.7 42.4 360.3 42.4C362.1 42.4 363.8 42.6 365.4 43C367 43.4 368.7 44 370.4 44.7L367.8 50.8C366.5 50.2 365.2 49.8 363.8 49.4C362.4 49 361.2 48.8 360.3 48.8C358.7 48.8 358 49.2 358 49.9C358 50.4 358.3 50.8 358.8 51.1C359.3 51.4 360.9 52.1 363.5 53.1C365.4 53.9 366.9 54.7 367.8 55.4C368.7 56.1 369.4 57.1 369.9 58.1C370.4 59.1 370.5 60.3 370.5 61.8Z" fill="white"/>
<path d="M389.3 63.2C390.6 63.2 392.1 62.9 393.9 62.3V69.2C392.6 69.8 391.4 70.1 390.2 70.4C389 70.6 387.7 70.8 386.1 70.8C382.9 70.8 380.6 70 379.2 68.5C377.8 66.9 377.1 64.5 377.1 61.3V49.8H373.8V45.9L378 42.9L380.5 37.1H386.7V42.6H393.5V49.7H386.7V60.4C386.7 62.4 387.6 63.2 389.3 63.2Z" fill="white"/>
<path d="M412 70.8C407.4 70.8 403.8 69.6 401.3 67.1C398.8 64.7 397.5 61.2 397.5 56.7C397.5 52 398.7 48.5 401 46C403.4 43.5 406.7 42.3 411.1 42.3C415.3 42.3 418.5 43.4 420.7 45.5C423 47.7 424.1 50.8 424.1 54.9V59.1H407.1C407.2 60.6 407.7 61.8 408.8 62.7C409.9 63.6 411.3 64 413.1 64C414.8 64 416.3 63.8 417.7 63.5C419.1 63.2 420.6 62.6 422.3 61.9V68.7C420.8 69.5 419.3 70 417.7 70.3C416.1 70.6 414.2 70.8 412 70.8ZM411.5 48.7C410.4 48.7 409.4 49.1 408.7 49.8C407.9 50.5 407.5 51.6 407.4 53.1H415.6C415.6 51.8 415.2 50.7 414.5 49.9C413.8 49.1 412.7 48.7 411.5 48.7Z" fill="white"/>
<path d="M446.2 42.2C447 42.2 447.8 42.3 448.6 42.4L449.1 42.5L448.2 51.5C447.4 51.3 446.3 51.2 445 51.2C442.9 51.2 441.4 51.7 440.5 52.6C439.6 53.5 439.1 54.9 439.1 56.7V70.2H429.6V42.7H436.7L438.2 47.1H438.7C439.5 45.6 440.6 44.5 442 43.6C443.3 42.7 444.7 42.2 446.2 42.2Z" fill="white"/>
<path d="M449.6 42.7H459.6L464.3 58.5C464.5 59.3 464.7 60.3 464.8 61.5H465C465.1 60.4 465.3 59.4 465.6 58.6L470.4 42.7H480.1L469.2 72C467.8 75.7 466.1 78.4 464.1 79.9C462.1 81.4 459.4 82.2 456.1 82.2C454.8 82.2 453.5 82.1 452.2 81.8V74.3C453.1 74.5 454 74.6 455.1 74.6C455.9 74.6 456.7 74.4 457.3 74.1C457.9 73.8 458.5 73.3 459 72.7C459.5 72.1 460 71.1 460.5 69.8L449.6 42.7Z" fill="white"/>
<defs>
<linearGradient id="paint0_linear" x1="61.7617" y1="82.2439" x2="61.7617" y2="32.8712" gradientUnits="userSpaceOnUse">
<stop stop-color="#36495E"/>
<stop offset="1" stop-color="#0A1C33"/>
</linearGradient>
<linearGradient id="paint1_linear" x1="90.2671" y1="82.2439" x2="90.2671" y2="32.8712" gradientUnits="userSpaceOnUse">
<stop stop-color="#36495E"/>
<stop offset="1" stop-color="#0A1C33"/>
</linearGradient>
<linearGradient id="paint2_linear" x1="76.0144" y1="82.2439" x2="76.0144" y2="-0.0439023" gradientUnits="userSpaceOnUse">
<stop offset="0.2" stop-color="#41B782"/>
<stop offset="1" stop-color="#86D169"/>
</linearGradient>
</defs>
</svg>
