<svg width="320" height="182" viewBox="0 0 320 182" fill="none" xmlns="http://www.w3.org/2000/svg">
<rect x="1" y="1" width="318" height="180" rx="23" fill="#1E1E20"/>
<rect x="1" y="1" width="318" height="180" rx="23" fill="url(#paint0_linear_1_3061)" fill-opacity="0.2"/>
<path d="M38.3211 37.5526C37.5439 38.1118 37.3817 39.2086 37.9694 39.9644C38.4434 40.5739 38.4435 41.4277 37.9692 42.037C37.3815 42.7922 37.5441 43.8883 38.3208 44.4472C38.9471 44.8978 39.1918 45.7188 38.9093 46.4368C38.5596 47.3253 39.0302 48.3314 39.9305 48.6494C40.6583 48.9065 41.1302 49.6269 41.0633 50.3959C40.9806 51.3469 41.7001 52.1782 42.6532 52.2326L42.6848 52.2345C43.4562 52.2785 44.1014 52.8362 44.2567 53.5931C44.449 54.5305 45.3909 55.1222 46.3234 54.9076C47.0782 54.734 47.8674 55.0856 48.2317 55.7691C48.6833 56.6164 49.7498 56.9235 50.5878 56.4549C51.2659 56.0756 52.1192 56.1941 52.6636 56.7484C53.339 57.436 54.447 57.436 55.1224 56.7484C55.6668 56.1941 56.5201 56.0756 57.1982 56.4549C58.0362 56.9235 59.1027 56.6164 59.5543 55.7691C59.9186 55.0856 60.7078 54.734 61.4626 54.9076C62.3951 55.1222 63.337 54.5305 63.5293 53.5931C63.6846 52.8362 64.3298 52.2785 65.1013 52.2345L65.1328 52.2326C66.0859 52.1782 66.8054 51.3469 66.7227 50.3959C66.6558 49.6269 67.1278 48.9065 67.8555 48.6494C68.7558 48.3314 69.2264 47.3253 68.8767 46.4368C68.5942 45.7188 68.8389 44.8978 69.4652 44.4472C70.2419 43.8883 70.4045 42.7922 69.8168 42.037C69.3425 41.4277 69.3426 40.5739 69.8166 39.9644C70.4043 39.2086 70.2421 38.1118 69.465 37.5526C68.8387 37.102 68.5942 36.2812 68.8767 35.5632C69.2264 34.6747 68.7556 33.6685 67.8553 33.3505C67.1278 33.0935 66.6558 32.3733 66.7227 31.6046C66.8054 30.6535 66.0683 29.8214 65.1152 29.7675C64.3432 29.7239 63.6845 29.1654 63.5291 28.408C63.3369 27.471 62.3949 26.8795 61.4626 27.0933C60.7079 27.2663 59.9187 26.915 59.5543 26.2319C59.1026 25.385 58.0364 25.0779 57.1984 25.5459C56.5202 25.9247 55.667 25.8061 55.1227 25.2519C54.4472 24.5642 53.3388 24.5642 52.6633 25.2519C52.119 25.8061 51.2658 25.9247 50.5876 25.5459C49.7496 25.0779 48.6834 25.385 48.2317 26.2319C47.8673 26.915 47.0781 27.2663 46.3234 27.0933C45.3911 26.8795 44.4491 27.471 44.2569 28.408C44.1015 29.1654 43.4428 29.7239 42.6708 29.7675C41.7177 29.8214 40.9806 30.6535 41.0633 31.6046C41.1302 32.3733 40.6583 33.0935 39.9307 33.3505C39.0305 33.6685 38.5596 34.6747 38.9093 35.5632C39.1918 36.2812 38.9473 37.102 38.3211 37.5526Z" fill="white"/>
<path d="M45.5784 34.6929L53.7632 48.4083L61.9481 34.6929L58.6741 34.6929L53.7632 42.9221L48.8114 34.6929H45.5784Z" fill="#3DD491"/>
<path d="M48.8521 34.6927L53.7833 43.0295L58.6738 34.6927H55.658L53.7833 37.8992L51.8679 34.6927H48.8521Z" fill="#2C3D4F"/>
<path d="M84.4242 31.8132L87.8035 42.8809H87.929L91.3083 31.8132H95.396L90.2975 46.9243H85.435L80.3365 31.8132H84.4242Z" fill="url(#paint1_linear_1_3061)"/>
<path d="M104.335 42.0324V35.591H107.936V46.9243H104.497V44.814H104.379C104.128 45.5076 103.7 46.0585 103.095 46.4668C102.495 46.8702 101.77 47.0719 100.919 47.0719C100.146 47.0719 99.4677 46.8948 98.8823 46.5406C98.2969 46.1864 97.8419 45.6921 97.5173 45.0575C97.1926 44.4181 97.0279 43.6704 97.0229 42.8145V35.591H100.631V42.1061C100.636 42.721 100.798 43.2055 101.118 43.5597C101.438 43.9139 101.873 44.091 102.424 44.091C102.783 44.091 103.105 44.0123 103.391 43.8548C103.681 43.6925 103.91 43.4589 104.077 43.1539C104.249 42.844 104.335 42.4702 104.335 42.0324Z" fill="url(#paint2_linear_1_3061)"/>
<path d="M115.53 47.1383C114.345 47.1383 113.321 46.9046 112.461 46.4373C111.605 45.9651 110.945 45.2936 110.483 44.423C110.026 43.5474 109.797 42.507 109.797 41.3019C109.797 40.1312 110.028 39.108 110.49 38.2324C110.953 37.352 111.605 36.6682 112.446 36.1812C113.287 35.6893 114.278 35.4434 115.419 35.4434C116.226 35.4434 116.964 35.5688 117.633 35.8197C118.302 36.0706 118.88 36.4419 119.367 36.9338C119.854 37.4257 120.233 38.0332 120.503 38.7563C120.774 39.4745 120.909 40.2984 120.909 41.2281V42.1283H111.059V40.0328H117.552C117.547 39.6491 117.456 39.3072 117.279 39.0072C117.102 38.7071 116.858 38.4735 116.548 38.3062C116.243 38.1341 115.892 38.048 115.493 38.048C115.09 38.048 114.728 38.139 114.408 38.321C114.089 38.4981 113.835 38.7416 113.648 39.0515C113.462 39.3564 113.363 39.7032 113.353 40.0918V42.2242C113.353 42.6866 113.444 43.0924 113.626 43.4417C113.808 43.786 114.067 44.0541 114.401 44.2459C114.736 44.4377 115.134 44.5337 115.596 44.5337C115.916 44.5337 116.206 44.4894 116.467 44.4009C116.728 44.3123 116.952 44.182 117.138 44.0098C117.325 43.8376 117.466 43.6261 117.559 43.3752L120.872 43.4712C120.734 44.2139 120.432 44.8608 119.964 45.4117C119.502 45.9577 118.895 46.3832 118.142 46.6882C117.389 46.9882 116.519 47.1383 115.53 47.1383Z" fill="url(#paint3_linear_1_3061)"/>
<path d="M124.781 47.1383C124.249 47.1383 123.794 46.9513 123.416 46.5775C123.042 46.2037 122.857 45.7511 122.862 45.2199C122.857 44.6985 123.042 44.2533 123.416 43.8844C123.794 43.5105 124.249 43.3236 124.781 43.3236C125.282 43.3236 125.725 43.5105 126.109 43.8844C126.497 44.2533 126.694 44.6985 126.699 45.2199C126.694 45.574 126.601 45.8962 126.419 46.1864C126.242 46.4767 126.008 46.7079 125.718 46.88C125.433 47.0522 125.12 47.1383 124.781 47.1383Z" fill="url(#paint4_linear_1_3061)"/>
<path d="M129.082 35.591H132.69V47.3965C132.69 48.3311 132.499 49.0739 132.115 49.6248C131.736 50.1757 131.2 50.5717 130.506 50.8127C129.813 51.0538 128.994 51.1743 128.049 51.1743C127.922 51.1743 127.801 51.1718 127.688 51.1669C127.575 51.162 127.452 51.1571 127.319 51.1522V48.4147C127.407 48.4246 127.486 48.432 127.555 48.4369C127.624 48.4418 127.693 48.4443 127.762 48.4443C128.258 48.4443 128.603 48.3508 128.795 48.1639C128.986 47.9819 129.082 47.7015 129.082 47.3227V35.591ZM130.883 34.2702C130.376 34.2702 129.941 34.103 129.577 33.7685C129.213 33.4291 129.031 33.0208 129.031 32.5436C129.031 32.0714 129.213 31.6681 129.577 31.3336C129.941 30.9942 130.376 30.8245 130.883 30.8245C131.394 30.8245 131.83 30.9942 132.189 31.3336C132.553 31.6681 132.735 32.0714 132.735 32.5436C132.735 33.0208 132.553 33.4291 132.189 33.7685C131.83 34.103 131.394 34.2702 130.883 34.2702Z" fill="url(#paint5_linear_1_3061)"/>
<path d="M144.882 39.0515L141.569 39.14C141.534 38.9039 141.441 38.6948 141.288 38.5128C141.136 38.3259 140.937 38.1808 140.691 38.0775C140.45 37.9693 140.169 37.9152 139.849 37.9152C139.431 37.9152 139.075 37.9988 138.78 38.166C138.489 38.3333 138.347 38.5596 138.352 38.8449C138.347 39.0662 138.435 39.2581 138.617 39.4204C138.804 39.5827 139.136 39.7131 139.613 39.8114L141.797 40.2246C142.929 40.4411 143.77 40.8002 144.321 41.3019C144.877 41.8036 145.157 42.4677 145.162 43.2941C145.157 44.0713 144.926 44.7476 144.468 45.3232C144.016 45.8987 143.396 46.3463 142.609 46.666C141.822 46.9809 140.922 47.1383 139.908 47.1383C138.29 47.1383 137.014 46.8062 136.079 46.1422C135.149 45.4732 134.618 44.5779 134.485 43.4564L138.049 43.3679C138.128 43.7811 138.332 44.0959 138.661 44.3123C138.991 44.5287 139.412 44.637 139.923 44.637C140.386 44.637 140.762 44.5509 141.052 44.3787C141.342 44.2066 141.49 43.9778 141.495 43.6925C141.49 43.4367 141.377 43.2326 141.155 43.0801C140.934 42.9227 140.587 42.7997 140.115 42.7112L138.138 42.3349C137.001 42.1283 136.155 41.7471 135.599 41.1912C135.044 40.6305 134.768 39.9172 134.773 39.0515C134.768 38.2939 134.97 37.6471 135.378 37.1109C135.786 36.5698 136.367 36.1566 137.119 35.8713C137.872 35.586 138.76 35.4434 139.783 35.4434C141.318 35.4434 142.528 35.7656 143.413 36.41C144.299 37.0494 144.788 37.9299 144.882 39.0515Z" fill="url(#paint6_linear_1_3061)"/>
<path d="M168.486 37.4172H164.797C164.748 37.0384 164.647 36.6965 164.494 36.3915C164.342 36.0866 164.14 35.8259 163.889 35.6094C163.638 35.393 163.341 35.2282 162.996 35.1151C162.657 34.997 162.281 34.938 161.868 34.938C161.135 34.938 160.502 35.1175 159.971 35.4766C159.445 35.8357 159.039 36.3547 158.754 37.0335C158.473 37.7123 158.333 38.5338 158.333 39.4979C158.333 40.5014 158.476 41.3425 158.761 42.0213C159.051 42.6952 159.457 43.2043 159.979 43.5487C160.505 43.8881 161.127 44.0578 161.845 44.0578C162.249 44.0578 162.615 44.0061 162.945 43.9028C163.279 43.7995 163.572 43.6495 163.823 43.4527C164.079 43.2511 164.288 43.0076 164.45 42.7223C164.617 42.4321 164.733 42.1049 164.797 41.7409L168.486 41.7631C168.422 42.4321 168.228 43.0912 167.903 43.7405C167.583 44.3898 167.143 44.9825 166.582 45.5187C166.022 46.05 165.338 46.473 164.531 46.7878C163.729 47.1026 162.809 47.26 161.772 47.26C160.404 47.26 159.179 46.96 158.097 46.3599C157.02 45.7548 156.169 44.8743 155.544 43.7184C154.919 42.5624 154.607 41.1556 154.607 39.4979C154.607 37.8353 154.924 36.426 155.559 35.27C156.193 34.1141 157.052 33.236 158.134 32.6359C159.216 32.0358 160.429 31.7357 161.772 31.7357C162.687 31.7357 163.533 31.8636 164.31 32.1194C165.087 32.3703 165.771 32.7392 166.361 33.2262C166.951 33.7082 167.431 34.301 167.8 35.0044C168.169 35.7078 168.397 36.5121 168.486 37.4172Z" fill="#E8E6E6"/>
<path d="M175.874 47.2674C174.688 47.2674 173.665 47.0338 172.804 46.5665C171.948 46.0942 171.289 45.4228 170.827 44.5521C170.369 43.6766 170.141 42.6362 170.141 41.431C170.141 40.2603 170.372 39.2372 170.834 38.3616C171.297 37.4811 171.948 36.7974 172.789 36.3104C173.631 35.8185 174.622 35.5725 175.763 35.5725C176.57 35.5725 177.308 35.698 177.977 35.9488C178.646 36.1997 179.224 36.5711 179.71 37.063C180.197 37.5549 180.576 38.1624 180.847 38.8855C181.117 39.6036 181.253 40.4276 181.253 41.3573V42.2574H171.402V40.1619H177.895C177.89 39.7783 177.799 39.4364 177.622 39.1363C177.445 38.8363 177.202 38.6026 176.892 38.4354C176.587 38.2632 176.235 38.1771 175.837 38.1771C175.433 38.1771 175.072 38.2681 174.752 38.4501C174.432 38.6272 174.179 38.8707 173.992 39.1806C173.805 39.4856 173.707 39.8324 173.697 40.221V42.3534C173.697 42.8157 173.788 43.2216 173.97 43.5708C174.152 43.9151 174.41 44.1832 174.745 44.3751C175.079 44.5669 175.478 44.6628 175.94 44.6628C176.26 44.6628 176.55 44.6185 176.811 44.53C177.071 44.4415 177.295 44.3111 177.482 44.1389C177.669 43.9668 177.809 43.7553 177.903 43.5044L181.216 43.6003C181.078 44.3431 180.775 44.9899 180.308 45.5409C179.846 46.0869 179.238 46.5124 178.486 46.8173C177.733 47.1174 176.862 47.2674 175.874 47.2674Z" fill="#E8E6E6"/>
<path d="M183.095 47.0534V35.7201H186.6V37.7861H186.718C186.925 37.0384 187.262 36.4825 187.729 36.1185C188.196 35.7496 188.74 35.5652 189.36 35.5652C189.527 35.5652 189.699 35.5775 189.876 35.6021C190.053 35.6217 190.218 35.6537 190.371 35.698V38.8338C190.198 38.7748 189.972 38.7281 189.692 38.6936C189.416 38.6592 189.17 38.642 188.954 38.642C188.526 38.642 188.14 38.7379 187.795 38.9297C187.456 39.1167 187.188 39.3798 186.991 39.7192C186.799 40.0537 186.703 40.4472 186.703 40.8998V47.0534H183.095Z" fill="#E8E6E6"/>
<path d="M198.765 35.7201V38.3764H191.616V35.7201H198.765ZM193.113 33.0048H196.722V43.4896C196.722 43.711 196.756 43.8905 196.825 44.0283C196.899 44.1611 197.004 44.257 197.142 44.316C197.28 44.3701 197.445 44.3972 197.636 44.3972C197.774 44.3972 197.919 44.3849 198.072 44.3603C198.229 44.3308 198.347 44.3062 198.426 44.2865L198.972 46.8911C198.8 46.9403 198.556 47.0018 198.242 47.0756C197.932 47.1494 197.56 47.1961 197.127 47.2158C196.281 47.2551 195.556 47.1567 194.951 46.9206C194.351 46.6796 193.891 46.3058 193.571 45.7991C193.256 45.2924 193.104 44.6554 193.113 43.8881V33.0048Z" fill="#E8E6E6"/>
<path d="M200.606 47.0534V35.7201H204.214V47.0534H200.606ZM202.414 34.3994C201.907 34.3994 201.472 34.2321 201.108 33.8976C200.744 33.5582 200.562 33.1499 200.562 32.6728C200.562 32.2006 200.744 31.7972 201.108 31.4627C201.472 31.1233 201.907 30.9536 202.414 30.9536C202.926 30.9536 203.361 31.1233 203.72 31.4627C204.084 31.7972 204.266 32.2006 204.266 32.6728C204.266 33.1499 204.084 33.5582 203.72 33.8976C203.361 34.2321 202.926 34.3994 202.414 34.3994Z" fill="#E8E6E6"/>
<path d="M212.952 35.7201V38.3764H205.662V35.7201H212.952ZM207.182 47.0534V35.1446C207.182 34.269 207.347 33.5435 207.677 32.9679C208.006 32.3875 208.464 31.9546 209.049 31.6693C209.635 31.3791 210.311 31.234 211.078 31.234C211.58 31.234 212.052 31.2733 212.495 31.3521C212.943 31.4258 213.275 31.4922 213.491 31.5513L212.915 34.1928C212.783 34.1485 212.62 34.1116 212.428 34.0821C212.242 34.0526 212.064 34.0378 211.897 34.0378C211.474 34.0378 211.184 34.1313 211.027 34.3182C210.869 34.5051 210.79 34.7609 210.79 35.0856V47.0534H207.182Z" fill="#E8E6E6"/>
<path d="M214.688 47.0534V35.7201H218.296V47.0534H214.688ZM216.496 34.3994C215.989 34.3994 215.554 34.2321 215.19 33.8976C214.826 33.5582 214.644 33.1499 214.644 32.6728C214.644 32.2006 214.826 31.7972 215.19 31.4627C215.554 31.1233 215.989 30.9536 216.496 30.9536C217.007 30.9536 217.443 31.1233 217.802 31.4627C218.166 31.7972 218.348 32.2006 218.348 32.6728C218.348 33.1499 218.166 33.5582 217.802 33.8976C217.443 34.2321 217.007 34.3994 216.496 34.3994Z" fill="#E8E6E6"/>
<path d="M225.883 47.2674C224.688 47.2674 223.662 47.0215 222.806 46.5296C221.955 46.0377 221.301 45.3539 220.844 44.4784C220.386 43.5979 220.157 42.5796 220.157 41.4237C220.157 40.2628 220.386 39.2446 220.844 38.369C221.306 37.4885 221.963 36.8023 222.814 36.3104C223.67 35.8185 224.69 35.5725 225.876 35.5725C226.924 35.5725 227.836 35.7619 228.613 36.1407C229.395 36.5194 230.005 37.0556 230.443 37.7492C230.886 38.4378 231.119 39.247 231.144 40.1767H227.772C227.703 39.5963 227.506 39.1413 227.182 38.8117C226.862 38.4821 226.444 38.3173 225.927 38.3173C225.509 38.3173 225.143 38.4354 224.828 38.6715C224.513 38.9027 224.267 39.247 224.09 39.7045C223.918 40.157 223.832 40.7178 223.832 41.3868C223.832 42.0558 223.918 42.6214 224.09 43.0838C224.267 43.5413 224.513 43.8881 224.828 44.1242C225.143 44.3554 225.509 44.471 225.927 44.471C226.262 44.471 226.557 44.3996 226.813 44.257C227.074 44.1143 227.288 43.9053 227.455 43.6298C227.622 43.3494 227.728 43.01 227.772 42.6116H231.144C231.11 43.5462 230.876 44.3628 230.443 45.0613C230.015 45.7597 229.413 46.3033 228.635 46.6919C227.863 47.0756 226.946 47.2674 225.883 47.2674Z" fill="#E8E6E6"/>
<path d="M236.185 47.2453C235.462 47.2453 234.82 47.1248 234.26 46.8837C233.704 46.6378 233.263 46.2689 232.939 45.777C232.619 45.2801 232.459 44.6579 232.459 43.9102C232.459 43.2806 232.57 42.7493 232.791 42.3165C233.013 41.8836 233.318 41.5319 233.706 41.2613C234.095 40.9908 234.542 40.7867 235.049 40.6489C235.556 40.5063 236.097 40.4104 236.672 40.3612C237.317 40.3021 237.836 40.2407 238.229 40.1767C238.623 40.1078 238.908 40.0119 239.085 39.8889C239.267 39.761 239.358 39.5815 239.358 39.3503V39.3134C239.358 38.9347 239.228 38.642 238.967 38.4354C238.706 38.2288 238.355 38.1255 237.912 38.1255C237.435 38.1255 237.051 38.2288 236.761 38.4354C236.471 38.642 236.286 38.9273 236.207 39.2913L232.88 39.1732C232.978 38.4846 233.231 37.8697 233.64 37.3286C234.053 36.7826 234.619 36.3547 235.337 36.0448C236.06 35.7299 236.928 35.5725 237.941 35.5725C238.664 35.5725 239.331 35.6586 239.941 35.8308C240.551 35.998 241.082 36.244 241.535 36.5686C241.987 36.8884 242.337 37.2819 242.582 37.7492C242.833 38.2165 242.959 38.7502 242.959 39.3503V47.0534H239.565V45.4744H239.476C239.274 45.8581 239.016 46.1828 238.701 46.4484C238.391 46.714 238.025 46.9132 237.602 47.0461C237.184 47.1789 236.712 47.2453 236.185 47.2453ZM237.299 44.8842C237.688 44.8842 238.037 44.8055 238.347 44.6481C238.662 44.4907 238.913 44.2742 239.1 43.9988C239.287 43.7184 239.38 43.3937 239.38 43.0248V41.9475C239.277 42.0016 239.151 42.0508 239.004 42.0951C238.861 42.1394 238.704 42.1812 238.532 42.2205C238.36 42.2599 238.182 42.2943 238 42.3238C237.818 42.3534 237.644 42.3804 237.477 42.405C237.137 42.4591 236.847 42.5427 236.606 42.6559C236.37 42.769 236.188 42.9166 236.06 43.0986C235.937 43.2757 235.875 43.4872 235.875 43.7331C235.875 44.107 236.008 44.3923 236.274 44.589C236.544 44.7858 236.886 44.8842 237.299 44.8842Z" fill="#E8E6E6"/>
<path d="M251.562 35.7201V38.3764H244.412V35.7201H251.562ZM245.91 33.0048H249.518V43.4896C249.518 43.711 249.553 43.8905 249.622 44.0283C249.695 44.1611 249.801 44.257 249.939 44.316C250.077 44.3701 250.241 44.3972 250.433 44.3972C250.571 44.3972 250.716 44.3849 250.868 44.3603C251.026 44.3308 251.144 44.3062 251.223 44.2865L251.769 46.8911C251.596 46.9403 251.353 47.0018 251.038 47.0756C250.728 47.1494 250.357 47.1961 249.924 47.2158C249.078 47.2551 248.352 47.1567 247.747 46.9206C247.147 46.6796 246.687 46.3058 246.368 45.7991C246.053 45.2924 245.9 44.6554 245.91 43.8881V33.0048Z" fill="#E8E6E6"/>
<path d="M253.403 47.0534V35.7201H257.011V47.0534H253.403ZM255.211 34.3994C254.704 34.3994 254.269 34.2321 253.905 33.8976C253.541 33.5582 253.359 33.1499 253.359 32.6728C253.359 32.2006 253.541 31.7972 253.905 31.4627C254.269 31.1233 254.704 30.9536 255.211 30.9536C255.722 30.9536 256.158 31.1233 256.517 31.4627C256.881 31.7972 257.063 32.2006 257.063 32.6728C257.063 33.1499 256.881 33.5582 256.517 33.8976C256.158 34.2321 255.722 34.3994 255.211 34.3994Z" fill="#E8E6E6"/>
<path d="M264.598 47.2674C263.408 47.2674 262.384 47.0239 261.529 46.5369C260.678 46.045 260.021 45.3613 259.558 44.4857C259.101 43.6052 258.872 42.5845 258.872 41.4237C258.872 40.2579 259.101 39.2372 259.558 38.3616C260.021 37.4811 260.678 36.7974 261.529 36.3104C262.384 35.8185 263.408 35.5725 264.598 35.5725C265.788 35.5725 266.809 35.8185 267.66 36.3104C268.516 36.7974 269.173 37.4811 269.63 38.3616C270.092 39.2372 270.324 40.2579 270.324 41.4237C270.324 42.5845 270.092 43.6052 269.63 44.4857C269.173 45.3613 268.516 46.045 267.66 46.5369C266.809 47.0239 265.788 47.2674 264.598 47.2674ZM264.62 44.5448C265.053 44.5448 265.419 44.4119 265.72 44.1463C266.02 43.8807 266.248 43.5118 266.406 43.0396C266.568 42.5673 266.649 42.0213 266.649 41.4015C266.649 40.7719 266.568 40.221 266.406 39.7488C266.248 39.2765 266.02 38.9076 265.72 38.642C265.419 38.3764 265.053 38.2435 264.62 38.2435C264.172 38.2435 263.794 38.3764 263.484 38.642C263.179 38.9076 262.945 39.2765 262.783 39.7488C262.625 40.221 262.547 40.7719 262.547 41.4015C262.547 42.0213 262.625 42.5673 262.783 43.0396C262.945 43.5118 263.179 43.8807 263.484 44.1463C263.794 44.4119 264.172 44.5448 264.62 44.5448Z" fill="#E8E6E6"/>
<path d="M275.78 40.5899V47.0534H272.172V35.7201H275.603V37.8008H275.728C275.979 37.1073 276.407 36.5637 277.012 36.1702C277.617 35.7718 278.338 35.5725 279.174 35.5725C279.971 35.5725 280.662 35.7521 281.248 36.1112C281.838 36.4653 282.295 36.9621 282.62 37.6016C282.949 38.2362 283.112 38.9789 283.107 39.8299V47.0534H279.499V40.5382C279.504 39.9086 279.344 39.4167 279.019 39.0626C278.699 38.7084 278.254 38.5313 277.684 38.5313C277.305 38.5313 276.97 38.6149 276.68 38.7822C276.395 38.9445 276.174 39.1782 276.016 39.4831C275.864 39.7881 275.785 40.157 275.78 40.5899Z" fill="#E8E6E6"/>
<path d="M70.8079 78.9901V76.4545H82.7539V78.9901H78.3008V91H75.261V78.9901H70.8079ZM87.69 84.6932V91H84.6644V76.4545H87.6048V82.0156H87.7326C87.9788 81.3717 88.3765 80.8674 88.9258 80.5028C89.475 80.1335 90.1639 79.9489 90.9925 79.9489C91.7501 79.9489 92.4106 80.1146 92.9741 80.446C93.5423 80.7727 93.9826 81.2438 94.2951 81.8594C94.6123 82.4702 94.7686 83.2017 94.7638 84.054V91H91.7383V84.5938C91.743 83.9214 91.5726 83.3982 91.2269 83.0241C90.886 82.6501 90.4078 82.4631 89.7923 82.4631C89.3803 82.4631 89.0157 82.5507 88.6985 82.7259C88.386 82.901 88.1398 83.1567 87.9599 83.4929C87.7847 83.8243 87.6947 84.2244 87.69 84.6932ZM102.116 91.2131C100.994 91.2131 100.028 90.9858 99.2188 90.5312C98.4138 90.072 97.7936 89.4233 97.358 88.5852C96.9223 87.7424 96.7045 86.7457 96.7045 85.5952C96.7045 84.473 96.9223 83.4882 97.358 82.6406C97.7936 81.7931 98.4067 81.1326 99.1974 80.6591C99.9929 80.1856 100.926 79.9489 101.996 79.9489C102.715 79.9489 103.385 80.0649 104.006 80.2969C104.631 80.5241 105.175 80.8674 105.639 81.3267C106.108 81.786 106.473 82.3636 106.733 83.0597C106.993 83.7509 107.124 84.5606 107.124 85.4886V86.3196H97.9119V84.4446H104.276C104.276 84.009 104.181 83.6231 103.991 83.2869C103.802 82.9508 103.539 82.688 103.203 82.4986C102.872 82.3045 102.486 82.2074 102.045 82.2074C101.586 82.2074 101.179 82.3139 100.824 82.527C100.473 82.7353 100.199 83.017 100 83.3722C99.8011 83.7225 99.6993 84.1132 99.6946 84.544V86.3267C99.6946 86.8665 99.794 87.3329 99.9929 87.7259C100.196 88.1188 100.483 88.4219 100.852 88.6349C101.222 88.848 101.66 88.9545 102.166 88.9545C102.502 88.9545 102.81 88.9072 103.089 88.8125C103.369 88.7178 103.608 88.5758 103.807 88.3864C104.006 88.197 104.157 87.965 104.261 87.6903L107.06 87.875C106.918 88.5473 106.626 89.1345 106.186 89.6364C105.75 90.1335 105.187 90.5218 104.496 90.8011C103.809 91.0758 103.016 91.2131 102.116 91.2131ZM127.15 83.7273C127.15 85.3134 126.85 86.6629 126.248 87.7756C125.652 88.8883 124.837 89.7382 123.805 90.3253C122.778 90.9077 121.622 91.1989 120.339 91.1989C119.047 91.1989 117.886 90.9053 116.859 90.3182C115.832 89.7311 115.02 88.8812 114.423 87.7685C113.826 86.6558 113.528 85.3087 113.528 83.7273C113.528 82.1411 113.826 80.7917 114.423 79.679C115.02 78.5663 115.832 77.7187 116.859 77.1364C117.886 76.5492 119.047 76.2557 120.339 76.2557C121.622 76.2557 122.778 76.5492 123.805 77.1364C124.837 77.7187 125.652 78.5663 126.248 79.679C126.85 80.7917 127.15 82.1411 127.15 83.7273ZM124.032 83.7273C124.032 82.6998 123.878 81.8333 123.571 81.1278C123.268 80.4223 122.839 79.8873 122.285 79.5227C121.731 79.1581 121.083 78.9759 120.339 78.9759C119.596 78.9759 118.947 79.1581 118.393 79.5227C117.839 79.8873 117.408 80.4223 117.1 81.1278C116.797 81.8333 116.646 82.6998 116.646 83.7273C116.646 84.7547 116.797 85.6212 117.1 86.3267C117.408 87.0322 117.839 87.5672 118.393 87.9318C118.947 88.2964 119.596 88.4787 120.339 88.4787C121.083 88.4787 121.731 88.2964 122.285 87.9318C122.839 87.5672 123.268 87.0322 123.571 86.3267C123.878 85.6212 124.032 84.7547 124.032 83.7273ZM135.238 80.0909V82.3636H128.505V80.0909H135.238ZM130.046 91V79.3026C130.046 78.5118 130.2 77.8561 130.508 77.3352C130.82 76.8144 131.246 76.4238 131.786 76.1634C132.326 75.9029 132.939 75.7727 133.626 75.7727C134.09 75.7727 134.513 75.8082 134.897 75.8793C135.285 75.9503 135.574 76.0142 135.763 76.071L135.224 78.3438C135.105 78.3059 134.959 78.2704 134.783 78.2372C134.613 78.2041 134.438 78.1875 134.258 78.1875C133.813 78.1875 133.503 78.2917 133.327 78.5C133.152 78.7036 133.065 78.9901 133.065 79.3594V91H130.046ZM142.953 80.0909V82.3636H136.22V80.0909H142.953ZM137.761 91V79.3026C137.761 78.5118 137.915 77.8561 138.223 77.3352C138.535 76.8144 138.961 76.4238 139.501 76.1634C140.041 75.9029 140.654 75.7727 141.341 75.7727C141.805 75.7727 142.228 75.8082 142.612 75.8793C143 75.9503 143.289 76.0142 143.478 76.071L142.939 78.3438C142.82 78.3059 142.673 78.2704 142.498 78.2372C142.328 78.2041 142.153 78.1875 141.973 78.1875C141.528 78.1875 141.217 78.2917 141.042 78.5C140.867 78.7036 140.779 78.9901 140.779 79.3594V91H137.761ZM144.801 91V80.0909H147.827V91H144.801ZM146.321 78.6847C145.871 78.6847 145.485 78.5355 145.163 78.2372C144.846 77.9342 144.688 77.572 144.688 77.1506C144.688 76.7339 144.846 76.3764 145.163 76.0781C145.485 75.7751 145.871 75.6236 146.321 75.6236C146.771 75.6236 147.154 75.7751 147.472 76.0781C147.794 76.3764 147.955 76.7339 147.955 77.1506C147.955 77.572 147.794 77.9342 147.472 78.2372C147.154 78.5355 146.771 78.6847 146.321 78.6847ZM155.179 91.2131C154.062 91.2131 153.101 90.9763 152.296 90.5028C151.496 90.0246 150.88 89.3617 150.449 88.5142C150.023 87.6667 149.81 86.6913 149.81 85.5881C149.81 84.4706 150.025 83.4905 150.456 82.6477C150.892 81.8002 151.51 81.1397 152.31 80.6662C153.11 80.188 154.062 79.9489 155.165 79.9489C156.117 79.9489 156.95 80.1217 157.665 80.4673C158.38 80.813 158.946 81.2983 159.363 81.9233C159.779 82.5483 160.009 83.2822 160.051 84.125H157.196C157.116 83.5805 156.903 83.1425 156.557 82.8111C156.216 82.4749 155.769 82.3068 155.215 82.3068C154.746 82.3068 154.337 82.4347 153.986 82.6903C153.641 82.9413 153.371 83.3082 153.176 83.7912C152.982 84.2741 152.885 84.8589 152.885 85.5455C152.885 86.2415 152.98 86.8333 153.169 87.321C153.364 87.8087 153.636 88.1804 153.986 88.4361C154.337 88.6918 154.746 88.8196 155.215 88.8196C155.56 88.8196 155.871 88.7486 156.145 88.6065C156.425 88.4645 156.654 88.2585 156.834 87.9886C157.019 87.714 157.14 87.3849 157.196 87.0014H160.051C160.004 87.8348 159.777 88.5687 159.37 89.2031C158.967 89.8329 158.411 90.3253 157.701 90.6804C156.99 91.0355 156.15 91.2131 155.179 91.2131ZM161.989 91V80.0909H165.014V91H161.989ZM163.509 78.6847C163.059 78.6847 162.673 78.5355 162.351 78.2372C162.034 77.9342 161.875 77.572 161.875 77.1506C161.875 76.7339 162.034 76.3764 162.351 76.0781C162.673 75.7751 163.059 75.6236 163.509 75.6236C163.958 75.6236 164.342 75.7751 164.659 76.0781C164.981 76.3764 165.142 76.7339 165.142 77.1506C165.142 77.572 164.981 77.9342 164.659 78.2372C164.342 78.5355 163.958 78.6847 163.509 78.6847ZM170.549 91.206C169.853 91.206 169.232 91.0852 168.688 90.8438C168.143 90.5975 167.712 90.2353 167.395 89.7571C167.083 89.2741 166.926 88.6728 166.926 87.9531C166.926 87.3471 167.038 86.8381 167.26 86.4261C167.483 86.0142 167.786 85.6828 168.169 85.4318C168.553 85.1809 168.989 84.9915 169.476 84.8636C169.969 84.7358 170.485 84.6458 171.025 84.5938C171.659 84.5275 172.17 84.4659 172.559 84.4091C172.947 84.3475 173.229 84.2576 173.404 84.1392C173.579 84.0208 173.667 83.8456 173.667 83.6136V83.571C173.667 83.1212 173.525 82.7732 173.24 82.527C172.961 82.2808 172.563 82.1577 172.047 82.1577C171.503 82.1577 171.069 82.2784 170.748 82.5199C170.426 82.7566 170.212 83.0549 170.108 83.4148L167.31 83.1875C167.452 82.5246 167.731 81.9517 168.148 81.4688C168.565 80.9811 169.102 80.607 169.76 80.3466C170.423 80.0814 171.19 79.9489 172.061 79.9489C172.667 79.9489 173.248 80.0199 173.801 80.1619C174.36 80.304 174.855 80.5241 175.286 80.8224C175.721 81.1207 176.065 81.5043 176.316 81.973C176.567 82.437 176.692 82.9934 176.692 83.642V91H173.823V89.4872H173.738C173.562 89.8281 173.328 90.1288 173.034 90.3892C172.741 90.6449 172.388 90.8461 171.976 90.9929C171.564 91.1349 171.088 91.206 170.549 91.206ZM171.415 89.1179C171.86 89.1179 172.253 89.0303 172.594 88.8551C172.935 88.6752 173.203 88.4337 173.397 88.1307C173.591 87.8277 173.688 87.4844 173.688 87.1009V85.9432C173.593 86.0047 173.463 86.0616 173.297 86.1136C173.136 86.161 172.954 86.206 172.75 86.2486C172.547 86.2865 172.343 86.322 172.14 86.3551C171.936 86.3835 171.751 86.4096 171.586 86.4332C171.23 86.4853 170.92 86.5682 170.655 86.6818C170.39 86.7955 170.184 86.9493 170.037 87.1435C169.891 87.3329 169.817 87.5696 169.817 87.8537C169.817 88.2656 169.966 88.5805 170.265 88.7983C170.568 89.0114 170.951 89.1179 171.415 89.1179ZM182.065 76.4545V91H179.039V76.4545H182.065ZM191.802 76.4545L195.318 87.5057H195.453L198.975 76.4545H202.385L197.37 91H193.407L188.386 76.4545H191.802ZM211.074 86.3551V80.0909H214.1V91H211.195V89.0185H211.081C210.835 89.6577 210.426 90.1714 209.853 90.5597C209.284 90.9479 208.591 91.142 207.772 91.142C207.042 91.142 206.401 90.9763 205.847 90.6449C205.293 90.3134 204.86 89.8423 204.547 89.2315C204.239 88.6207 204.083 87.8892 204.078 87.0369V80.0909H207.104V86.4972C207.109 87.1411 207.282 87.6501 207.623 88.0241C207.963 88.3982 208.42 88.5852 208.993 88.5852C209.358 88.5852 209.699 88.5024 210.016 88.3366C210.333 88.1662 210.589 87.9152 210.783 87.5838C210.982 87.2524 211.079 86.8428 211.074 86.3551ZM221.491 91.2131C220.369 91.2131 219.403 90.9858 218.594 90.5312C217.789 90.072 217.169 89.4233 216.733 88.5852C216.297 87.7424 216.08 86.7457 216.08 85.5952C216.08 84.473 216.297 83.4882 216.733 82.6406C217.169 81.7931 217.782 81.1326 218.572 80.6591C219.368 80.1856 220.301 79.9489 221.371 79.9489C222.09 79.9489 222.76 80.0649 223.381 80.2969C224.006 80.5241 224.55 80.8674 225.014 81.3267C225.483 81.786 225.848 82.3636 226.108 83.0597C226.368 83.7509 226.499 84.5606 226.499 85.4886V86.3196H217.287V84.4446H223.651C223.651 84.009 223.556 83.6231 223.366 83.2869C223.177 82.9508 222.914 82.688 222.578 82.4986C222.247 82.3045 221.861 82.2074 221.42 82.2074C220.961 82.2074 220.554 82.3139 220.199 82.527C219.848 82.7353 219.574 83.017 219.375 83.3722C219.176 83.7225 219.074 84.1132 219.07 84.544V86.3267C219.07 86.8665 219.169 87.3329 219.368 87.7259C219.571 88.1188 219.858 88.4219 220.227 88.6349C220.597 88.848 221.035 88.9545 221.541 88.9545C221.877 88.9545 222.185 88.9072 222.464 88.8125C222.744 88.7178 222.983 88.5758 223.182 88.3864C223.381 88.197 223.532 87.965 223.636 87.6903L226.435 87.875C226.293 88.5473 226.001 89.1345 225.561 89.6364C225.125 90.1335 224.562 90.5218 223.871 90.8011C223.184 91.0758 222.391 91.2131 221.491 91.2131ZM230.241 91.1847C229.773 91.1847 229.37 91.0189 229.034 90.6875C228.703 90.3513 228.537 89.9489 228.537 89.4801C228.537 89.0161 228.703 88.6184 229.034 88.2869C229.37 87.9555 229.773 87.7898 230.241 87.7898C230.696 87.7898 231.094 87.9555 231.435 88.2869C231.776 88.6184 231.946 89.0161 231.946 89.4801C231.946 89.7926 231.866 90.0791 231.705 90.3395C231.548 90.5952 231.342 90.8011 231.087 90.9574C230.831 91.1089 230.549 91.1847 230.241 91.1847ZM234.43 80.0909H237.456V91.5398C237.456 92.3826 237.29 93.0644 236.958 93.5852C236.627 94.1061 236.151 94.4872 235.531 94.7287C234.915 94.9702 234.179 95.0909 233.322 95.0909C233.218 95.0909 233.118 95.0885 233.024 95.0838C232.924 95.0838 232.82 95.0814 232.711 95.0767V92.7116C232.792 92.7164 232.863 92.7188 232.924 92.7188C232.981 92.7235 233.043 92.7259 233.109 92.7259C233.597 92.7259 233.938 92.6217 234.132 92.4134C234.331 92.2098 234.43 91.902 234.43 91.4901V80.0909ZM235.936 78.6847C235.491 78.6847 235.107 78.5355 234.785 78.2372C234.463 77.9342 234.302 77.572 234.302 77.1506C234.302 76.7339 234.463 76.3764 234.785 76.0781C235.107 75.7751 235.491 75.6236 235.936 75.6236C236.39 75.6236 236.776 75.7751 237.093 76.0781C237.415 76.3764 237.576 76.7339 237.576 77.1506C237.576 77.572 237.415 77.9342 237.093 78.2372C236.776 78.5355 236.39 78.6847 235.936 78.6847ZM248.956 83.2017L246.186 83.3722C246.139 83.1354 246.037 82.9223 245.881 82.733C245.724 82.5388 245.518 82.3849 245.263 82.2713C245.012 82.1529 244.711 82.0938 244.361 82.0938C243.892 82.0938 243.497 82.1932 243.175 82.392C242.853 82.5862 242.692 82.8466 242.692 83.1733C242.692 83.4337 242.796 83.6539 243.004 83.8338C243.213 84.0137 243.57 84.1581 244.077 84.267L246.051 84.6648C247.112 84.8826 247.902 85.233 248.423 85.7159C248.944 86.1989 249.205 86.8333 249.205 87.6193C249.205 88.3343 248.994 88.9616 248.572 89.5014C248.156 90.0412 247.583 90.4626 246.854 90.7656C246.129 91.0639 245.294 91.2131 244.347 91.2131C242.902 91.2131 241.752 90.9124 240.895 90.3111C240.043 89.705 239.543 88.8812 239.396 87.8395L242.372 87.6832C242.462 88.1236 242.68 88.4598 243.026 88.6918C243.371 88.919 243.814 89.0327 244.354 89.0327C244.884 89.0327 245.31 88.9309 245.632 88.7273C245.959 88.5189 246.125 88.2514 246.129 87.9247C246.125 87.6501 246.009 87.4252 245.781 87.25C245.554 87.0701 245.204 86.9328 244.73 86.8381L242.841 86.4616C241.776 86.2486 240.982 85.8793 240.462 85.3537C239.946 84.8281 239.688 84.1581 239.688 83.3438C239.688 82.643 239.877 82.0393 240.256 81.5327C240.639 81.026 241.177 80.6354 241.868 80.3608C242.564 80.0862 243.378 79.9489 244.311 79.9489C245.689 79.9489 246.773 80.2401 247.564 80.8224C248.359 81.4048 248.823 82.1979 248.956 83.2017ZM68.4632 105.547H65.3525C65.2956 105.144 65.1796 104.787 65.0044 104.474C64.8293 104.157 64.6043 103.887 64.3297 103.665C64.0551 103.442 63.7379 103.272 63.378 103.153C63.0229 103.035 62.637 102.976 62.2203 102.976C61.4675 102.976 60.8117 103.163 60.253 103.537C59.6943 103.906 59.2611 104.446 58.9533 105.156C58.6455 105.862 58.4917 106.719 58.4917 107.727C58.4917 108.764 58.6455 109.635 58.9533 110.341C59.2658 111.046 59.7014 111.579 60.2601 111.939C60.8188 112.299 61.4651 112.479 62.199 112.479C62.611 112.479 62.9921 112.424 63.3425 112.315C63.6976 112.206 64.0125 112.048 64.2871 111.839C64.5617 111.626 64.789 111.368 64.9689 111.065C65.1536 110.762 65.2814 110.417 65.3525 110.028L68.4632 110.043C68.3828 110.71 68.1815 111.354 67.8596 111.974C67.5423 112.59 67.1138 113.142 66.574 113.629C66.039 114.112 65.3998 114.496 64.6564 114.78C63.9178 115.059 63.0821 115.199 62.1493 115.199C60.852 115.199 59.6919 114.905 58.6692 114.318C57.6512 113.731 56.8463 112.881 56.2544 111.768C55.6673 110.656 55.3738 109.309 55.3738 107.727C55.3738 106.141 55.6721 104.792 56.2686 103.679C56.8652 102.566 57.6749 101.719 58.6976 101.136C59.7203 100.549 60.8709 100.256 62.1493 100.256C62.9921 100.256 63.7734 100.374 64.4931 100.611C65.2175 100.848 65.8591 101.193 66.4178 101.648C66.9765 102.098 67.431 102.649 67.7814 103.303C68.1365 103.956 68.3638 104.704 68.4632 105.547ZM75.5833 115.213C74.4611 115.213 73.4952 114.986 72.6855 114.531C71.8806 114.072 71.2604 113.423 70.8248 112.585C70.3891 111.742 70.1713 110.746 70.1713 109.595C70.1713 108.473 70.3891 107.488 70.8248 106.641C71.2604 105.793 71.8735 105.133 72.6642 104.659C73.4597 104.186 74.3925 103.949 75.4625 103.949C76.1822 103.949 76.8522 104.065 77.4725 104.297C78.0975 104.524 78.642 104.867 79.106 105.327C79.5748 105.786 79.9393 106.364 80.1998 107.06C80.4602 107.751 80.5904 108.561 80.5904 109.489V110.32H71.3787V108.445H77.7424C77.7424 108.009 77.6477 107.623 77.4583 107.287C77.2689 106.951 77.0061 106.688 76.6699 106.499C76.3385 106.304 75.9526 106.207 75.5123 106.207C75.053 106.207 74.6458 106.314 74.2907 106.527C73.9403 106.735 73.6657 107.017 73.4668 107.372C73.2679 107.723 73.1661 108.113 73.1614 108.544V110.327C73.1614 110.866 73.2608 111.333 73.4597 111.726C73.6633 112.119 73.9498 112.422 74.3191 112.635C74.6884 112.848 75.1264 112.955 75.633 112.955C75.9692 112.955 76.2769 112.907 76.5563 112.812C76.8356 112.718 77.0748 112.576 77.2736 112.386C77.4725 112.197 77.624 111.965 77.7282 111.69L80.5265 111.875C80.3844 112.547 80.0932 113.134 79.6529 113.636C79.2173 114.134 78.6538 114.522 77.9625 114.801C77.276 115.076 76.4829 115.213 75.5833 115.213ZM82.5648 115V104.091H85.498V105.994H85.6117C85.8105 105.317 86.1444 104.806 86.6131 104.46C87.0819 104.11 87.6216 103.935 88.2324 103.935C88.3839 103.935 88.5473 103.944 88.7225 103.963C88.8977 103.982 89.0516 104.008 89.1841 104.041V106.726C89.0421 106.683 88.8456 106.645 88.5946 106.612C88.3437 106.579 88.1141 106.562 87.9057 106.562C87.4606 106.562 87.0629 106.66 86.7125 106.854C86.3669 107.043 86.0923 107.308 85.8887 107.649C85.6898 107.99 85.5904 108.383 85.5904 108.828V115H82.5648ZM97.0978 104.091V106.364H90.5282V104.091H97.0978ZM92.0197 101.477H95.0453V111.648C95.0453 111.927 95.0879 112.145 95.1731 112.301C95.2583 112.453 95.3767 112.559 95.5282 112.621C95.6845 112.682 95.8644 112.713 96.068 112.713C96.21 112.713 96.3521 112.701 96.4941 112.678C96.6362 112.649 96.7451 112.628 96.8208 112.614L97.2967 114.865C97.1452 114.912 96.9321 114.967 96.6575 115.028C96.3829 115.095 96.0491 115.135 95.6561 115.149C94.9269 115.178 94.2877 115.08 93.7385 114.858C93.194 114.635 92.7702 114.29 92.4672 113.821C92.1641 113.352 92.015 112.76 92.0197 112.045V101.477ZM99.0687 115V104.091H102.094V115H99.0687ZM100.589 102.685C100.139 102.685 99.7529 102.536 99.4309 102.237C99.1137 101.934 98.9551 101.572 98.9551 101.151C98.9551 100.734 99.1137 100.376 99.4309 100.078C99.7529 99.7751 100.139 99.6236 100.589 99.6236C101.038 99.6236 101.422 99.7751 101.739 100.078C102.061 100.376 102.222 100.734 102.222 101.151C102.222 101.572 102.061 101.934 101.739 102.237C101.422 102.536 101.038 102.685 100.589 102.685ZM110.384 104.091V106.364H103.651V104.091H110.384ZM105.193 115V103.303C105.193 102.512 105.347 101.856 105.654 101.335C105.967 100.814 106.393 100.424 106.933 100.163C107.472 99.9029 108.086 99.7727 108.772 99.7727C109.236 99.7727 109.66 99.8082 110.044 99.8793C110.432 99.9503 110.721 100.014 110.91 100.071L110.37 102.344C110.252 102.306 110.105 102.27 109.93 102.237C109.759 102.204 109.584 102.188 109.404 102.188C108.959 102.188 108.649 102.292 108.474 102.5C108.299 102.704 108.211 102.99 108.211 103.359V115H105.193ZM112.233 115V104.091H115.258V115H112.233ZM113.753 102.685C113.303 102.685 112.917 102.536 112.595 102.237C112.278 101.934 112.119 101.572 112.119 101.151C112.119 100.734 112.278 100.376 112.595 100.078C112.917 99.7751 113.303 99.6236 113.753 99.6236C114.202 99.6236 114.586 99.7751 114.903 100.078C115.225 100.376 115.386 100.734 115.386 101.151C115.386 101.572 115.225 101.934 114.903 102.237C114.586 102.536 114.202 102.685 113.753 102.685ZM122.611 115.213C121.494 115.213 120.532 114.976 119.727 114.503C118.927 114.025 118.312 113.362 117.881 112.514C117.455 111.667 117.242 110.691 117.242 109.588C117.242 108.471 117.457 107.491 117.888 106.648C118.324 105.8 118.941 105.14 119.742 104.666C120.542 104.188 121.494 103.949 122.597 103.949C123.548 103.949 124.382 104.122 125.097 104.467C125.812 104.813 126.378 105.298 126.794 105.923C127.211 106.548 127.441 107.282 127.483 108.125H124.628C124.548 107.58 124.334 107.143 123.989 106.811C123.648 106.475 123.2 106.307 122.646 106.307C122.178 106.307 121.768 106.435 121.418 106.69C121.072 106.941 120.802 107.308 120.608 107.791C120.414 108.274 120.317 108.859 120.317 109.545C120.317 110.241 120.412 110.833 120.601 111.321C120.795 111.809 121.067 112.18 121.418 112.436C121.768 112.692 122.178 112.82 122.646 112.82C122.992 112.82 123.302 112.749 123.577 112.607C123.856 112.464 124.086 112.259 124.266 111.989C124.45 111.714 124.571 111.385 124.628 111.001H127.483C127.436 111.835 127.209 112.569 126.801 113.203C126.399 113.833 125.843 114.325 125.132 114.68C124.422 115.036 123.582 115.213 122.611 115.213ZM132.531 115.206C131.835 115.206 131.215 115.085 130.67 114.844C130.126 114.598 129.695 114.235 129.378 113.757C129.065 113.274 128.909 112.673 128.909 111.953C128.909 111.347 129.02 110.838 129.243 110.426C129.465 110.014 129.768 109.683 130.152 109.432C130.535 109.181 130.971 108.991 131.459 108.864C131.951 108.736 132.467 108.646 133.007 108.594C133.641 108.527 134.153 108.466 134.541 108.409C134.929 108.348 135.211 108.258 135.386 108.139C135.561 108.021 135.649 107.846 135.649 107.614V107.571C135.649 107.121 135.507 106.773 135.223 106.527C134.943 106.281 134.546 106.158 134.03 106.158C133.485 106.158 133.052 106.278 132.73 106.52C132.408 106.757 132.195 107.055 132.091 107.415L129.292 107.188C129.434 106.525 129.714 105.952 130.131 105.469C130.547 104.981 131.085 104.607 131.743 104.347C132.406 104.081 133.173 103.949 134.044 103.949C134.65 103.949 135.23 104.02 135.784 104.162C136.343 104.304 136.837 104.524 137.268 104.822C137.704 105.121 138.047 105.504 138.298 105.973C138.549 106.437 138.675 106.993 138.675 107.642V115H135.805V113.487H135.72C135.545 113.828 135.31 114.129 135.017 114.389C134.723 114.645 134.371 114.846 133.959 114.993C133.547 115.135 133.071 115.206 132.531 115.206ZM133.398 113.118C133.843 113.118 134.236 113.03 134.577 112.855C134.917 112.675 135.185 112.434 135.379 112.131C135.573 111.828 135.67 111.484 135.67 111.101V109.943C135.576 110.005 135.445 110.062 135.28 110.114C135.119 110.161 134.936 110.206 134.733 110.249C134.529 110.286 134.326 110.322 134.122 110.355C133.918 110.384 133.734 110.41 133.568 110.433C133.213 110.485 132.903 110.568 132.638 110.682C132.372 110.795 132.166 110.949 132.02 111.143C131.873 111.333 131.8 111.57 131.8 111.854C131.8 112.266 131.949 112.58 132.247 112.798C132.55 113.011 132.934 113.118 133.398 113.118ZM146.824 104.091V106.364H140.255V104.091H146.824ZM141.746 101.477H144.772V111.648C144.772 111.927 144.814 112.145 144.9 112.301C144.985 112.453 145.103 112.559 145.255 112.621C145.411 112.682 145.591 112.713 145.795 112.713C145.937 112.713 146.079 112.701 146.221 112.678C146.363 112.649 146.472 112.628 146.547 112.614L147.023 114.865C146.872 114.912 146.659 114.967 146.384 115.028C146.109 115.095 145.776 115.135 145.383 115.149C144.653 115.178 144.014 115.08 143.465 114.858C142.921 114.635 142.497 114.29 142.194 113.821C141.891 113.352 141.742 112.76 141.746 112.045V101.477ZM148.795 115V104.091H151.821V115H148.795ZM150.315 102.685C149.865 102.685 149.479 102.536 149.157 102.237C148.84 101.934 148.682 101.572 148.682 101.151C148.682 100.734 148.84 100.376 149.157 100.078C149.479 99.7751 149.865 99.6236 150.315 99.6236C150.765 99.6236 151.148 99.7751 151.466 100.078C151.788 100.376 151.949 100.734 151.949 101.151C151.949 101.572 151.788 101.934 151.466 102.237C151.148 102.536 150.765 102.685 150.315 102.685ZM159.173 115.213C158.07 115.213 157.116 114.979 156.311 114.51C155.511 114.036 154.893 113.378 154.458 112.536C154.022 111.688 153.804 110.705 153.804 109.588C153.804 108.461 154.022 107.476 154.458 106.634C154.893 105.786 155.511 105.128 156.311 104.659C157.116 104.186 158.07 103.949 159.173 103.949C160.277 103.949 161.228 104.186 162.029 104.659C162.834 105.128 163.454 105.786 163.889 106.634C164.325 107.476 164.543 108.461 164.543 109.588C164.543 110.705 164.325 111.688 163.889 112.536C163.454 113.378 162.834 114.036 162.029 114.51C161.228 114.979 160.277 115.213 159.173 115.213ZM159.188 112.869C159.69 112.869 160.109 112.727 160.445 112.443C160.781 112.154 161.034 111.761 161.205 111.264C161.38 110.767 161.468 110.201 161.468 109.567C161.468 108.932 161.38 108.366 161.205 107.869C161.034 107.372 160.781 106.979 160.445 106.69C160.109 106.402 159.69 106.257 159.188 106.257C158.681 106.257 158.255 106.402 157.909 106.69C157.568 106.979 157.31 107.372 157.135 107.869C156.965 108.366 156.879 108.932 156.879 109.567C156.879 110.201 156.965 110.767 157.135 111.264C157.31 111.761 157.568 112.154 157.909 112.443C158.255 112.727 158.681 112.869 159.188 112.869ZM169.536 108.693V115H166.51V104.091H169.394V106.016H169.521C169.763 105.381 170.168 104.879 170.736 104.51C171.304 104.136 171.993 103.949 172.803 103.949C173.56 103.949 174.221 104.115 174.784 104.446C175.348 104.777 175.786 105.251 176.098 105.866C176.411 106.477 176.567 107.206 176.567 108.054V115H173.541V108.594C173.546 107.926 173.376 107.405 173.03 107.031C172.684 106.652 172.209 106.463 171.602 106.463C171.195 106.463 170.835 106.551 170.523 106.726C170.215 106.901 169.974 107.157 169.798 107.493C169.628 107.824 169.54 108.224 169.536 108.693ZM183.637 115V100.455H189.376C190.479 100.455 191.419 100.665 192.195 101.087C192.972 101.503 193.564 102.083 193.971 102.827C194.383 103.565 194.589 104.418 194.589 105.384C194.589 106.349 194.381 107.202 193.964 107.94C193.547 108.679 192.944 109.254 192.153 109.666C191.367 110.078 190.415 110.284 189.298 110.284H185.64V107.82H188.801C189.392 107.82 189.88 107.718 190.264 107.514C190.652 107.306 190.941 107.019 191.13 106.655C191.324 106.286 191.421 105.862 191.421 105.384C191.421 104.901 191.324 104.479 191.13 104.119C190.941 103.755 190.652 103.473 190.264 103.274C189.875 103.071 189.383 102.969 188.786 102.969H186.713V115H183.637ZM196.53 115V104.091H199.463V105.994H199.577C199.775 105.317 200.109 104.806 200.578 104.46C201.047 104.11 201.586 103.935 202.197 103.935C202.349 103.935 202.512 103.944 202.687 103.963C202.863 103.982 203.016 104.008 203.149 104.041V106.726C203.007 106.683 202.81 106.645 202.559 106.612C202.309 106.579 202.079 106.562 201.871 106.562C201.425 106.562 201.028 106.66 200.677 106.854C200.332 107.043 200.057 107.308 199.854 107.649C199.655 107.99 199.555 108.383 199.555 108.828V115H196.53ZM209.134 115.213C208.031 115.213 207.077 114.979 206.272 114.51C205.472 114.036 204.854 113.378 204.419 112.536C203.983 111.688 203.765 110.705 203.765 109.588C203.765 108.461 203.983 107.476 204.419 106.634C204.854 105.786 205.472 105.128 206.272 104.659C207.077 104.186 208.031 103.949 209.134 103.949C210.238 103.949 211.189 104.186 211.99 104.659C212.794 105.128 213.415 105.786 213.85 106.634C214.286 107.476 214.504 108.461 214.504 109.588C214.504 110.705 214.286 111.688 213.85 112.536C213.415 113.378 212.794 114.036 211.99 114.51C211.189 114.979 210.238 115.213 209.134 115.213ZM209.149 112.869C209.651 112.869 210.07 112.727 210.406 112.443C210.742 112.154 210.995 111.761 211.166 111.264C211.341 110.767 211.428 110.201 211.428 109.567C211.428 108.932 211.341 108.366 211.166 107.869C210.995 107.372 210.742 106.979 210.406 106.69C210.07 106.402 209.651 106.257 209.149 106.257C208.642 106.257 208.216 106.402 207.87 106.69C207.529 106.979 207.271 107.372 207.096 107.869C206.926 108.366 206.84 108.932 206.84 109.567C206.84 110.201 206.926 110.767 207.096 111.264C207.271 111.761 207.529 112.154 207.87 112.443C208.216 112.727 208.642 112.869 209.149 112.869ZM221.386 119.318C220.406 119.318 219.565 119.183 218.865 118.913C218.169 118.648 217.615 118.286 217.203 117.827C216.791 117.367 216.523 116.851 216.4 116.278L219.198 115.902C219.284 116.12 219.419 116.323 219.603 116.513C219.788 116.702 220.032 116.854 220.335 116.967C220.642 117.086 221.017 117.145 221.457 117.145C222.115 117.145 222.657 116.984 223.083 116.662C223.514 116.345 223.73 115.812 223.73 115.064V113.068H223.602C223.469 113.371 223.27 113.658 223.005 113.928C222.74 114.197 222.399 114.418 221.982 114.588C221.566 114.759 221.069 114.844 220.491 114.844C219.672 114.844 218.926 114.654 218.254 114.276C217.586 113.892 217.053 113.307 216.656 112.521C216.263 111.731 216.066 110.732 216.066 109.524C216.066 108.288 216.267 107.256 216.67 106.428C217.072 105.599 217.607 104.979 218.275 104.567C218.947 104.155 219.684 103.949 220.484 103.949C221.095 103.949 221.606 104.053 222.018 104.261C222.43 104.465 222.761 104.721 223.012 105.028C223.268 105.331 223.464 105.63 223.602 105.923H223.715V104.091H226.72V115.107C226.72 116.035 226.492 116.811 226.038 117.436C225.583 118.061 224.954 118.53 224.149 118.842C223.348 119.16 222.427 119.318 221.386 119.318ZM221.45 112.571C221.937 112.571 222.349 112.45 222.686 112.209C223.026 111.963 223.287 111.612 223.467 111.158C223.651 110.698 223.744 110.149 223.744 109.51C223.744 108.871 223.654 108.317 223.474 107.848C223.294 107.375 223.034 107.008 222.693 106.747C222.352 106.487 221.937 106.357 221.45 106.357C220.953 106.357 220.534 106.491 220.193 106.761C219.852 107.027 219.594 107.396 219.419 107.869C219.243 108.343 219.156 108.89 219.156 109.51C219.156 110.14 219.243 110.684 219.419 111.143C219.598 111.598 219.856 111.951 220.193 112.202C220.534 112.448 220.953 112.571 221.45 112.571ZM229.127 115V104.091H232.061V105.994H232.174C232.373 105.317 232.707 104.806 233.176 104.46C233.644 104.11 234.184 103.935 234.795 103.935C234.946 103.935 235.11 103.944 235.285 103.963C235.46 103.982 235.614 104.008 235.747 104.041V106.726C235.605 106.683 235.408 106.645 235.157 106.612C234.906 106.579 234.677 106.562 234.468 106.562C234.023 106.562 233.625 106.66 233.275 106.854C232.929 107.043 232.655 107.308 232.451 107.649C232.252 107.99 232.153 108.383 232.153 108.828V115H229.127ZM240.109 115.206C239.413 115.206 238.793 115.085 238.248 114.844C237.704 114.598 237.273 114.235 236.956 113.757C236.643 113.274 236.487 112.673 236.487 111.953C236.487 111.347 236.598 110.838 236.821 110.426C237.043 110.014 237.346 109.683 237.73 109.432C238.113 109.181 238.549 108.991 239.037 108.864C239.529 108.736 240.045 108.646 240.585 108.594C241.22 108.527 241.731 108.466 242.119 108.409C242.507 108.348 242.789 108.258 242.964 108.139C243.14 108.021 243.227 107.846 243.227 107.614V107.571C243.227 107.121 243.085 106.773 242.801 106.527C242.522 106.281 242.124 106.158 241.608 106.158C241.063 106.158 240.63 106.278 240.308 106.52C239.986 106.757 239.773 107.055 239.669 107.415L236.871 107.188C237.013 106.525 237.292 105.952 237.709 105.469C238.125 104.981 238.663 104.607 239.321 104.347C239.984 104.081 240.751 103.949 241.622 103.949C242.228 103.949 242.808 104.02 243.362 104.162C243.921 104.304 244.416 104.524 244.846 104.822C245.282 105.121 245.625 105.504 245.876 105.973C246.127 106.437 246.253 106.993 246.253 107.642V115H243.383V113.487H243.298C243.123 113.828 242.889 114.129 242.595 114.389C242.301 114.645 241.949 114.846 241.537 114.993C241.125 115.135 240.649 115.206 240.109 115.206ZM240.976 113.118C241.421 113.118 241.814 113.03 242.155 112.855C242.496 112.675 242.763 112.434 242.957 112.131C243.151 111.828 243.248 111.484 243.248 111.101V109.943C243.154 110.005 243.023 110.062 242.858 110.114C242.697 110.161 242.515 110.206 242.311 110.249C242.107 110.286 241.904 110.322 241.7 110.355C241.497 110.384 241.312 110.41 241.146 110.433C240.791 110.485 240.481 110.568 240.216 110.682C239.951 110.795 239.745 110.949 239.598 111.143C239.451 111.333 239.378 111.57 239.378 111.854C239.378 112.266 239.527 112.58 239.825 112.798C240.128 113.011 240.512 113.118 240.976 113.118ZM248.6 115V104.091H251.483V106.016H251.611C251.839 105.376 252.217 104.872 252.748 104.503C253.278 104.134 253.912 103.949 254.651 103.949C255.399 103.949 256.036 104.136 256.562 104.51C257.087 104.879 257.438 105.381 257.613 106.016H257.726C257.949 105.391 258.351 104.891 258.934 104.517C259.521 104.138 260.215 103.949 261.015 103.949C262.033 103.949 262.859 104.273 263.493 104.922C264.133 105.566 264.452 106.48 264.452 107.663V115H261.434V108.26C261.434 107.654 261.273 107.199 260.951 106.896C260.629 106.593 260.226 106.442 259.743 106.442C259.194 106.442 258.766 106.617 258.458 106.967C258.15 107.313 257.996 107.77 257.996 108.338V115H255.063V108.196C255.063 107.661 254.909 107.235 254.601 106.918C254.298 106.6 253.898 106.442 253.401 106.442C253.065 106.442 252.762 106.527 252.492 106.697C252.227 106.863 252.016 107.098 251.86 107.401C251.704 107.699 251.626 108.049 251.626 108.452V115H248.6Z" fill="#E5E7EB"/>
<path d="M110.835 143C110.679 142.522 110.473 142.093 110.218 141.714C109.967 141.331 109.666 141.004 109.316 140.734C108.97 140.464 108.577 140.259 108.137 140.116C107.696 139.974 107.213 139.903 106.688 139.903C105.826 139.903 105.042 140.126 104.337 140.571C103.631 141.016 103.07 141.672 102.654 142.538C102.237 143.405 102.029 144.468 102.029 145.727C102.029 146.987 102.239 148.05 102.661 148.916C103.082 149.783 103.653 150.438 104.372 150.884C105.092 151.329 105.902 151.551 106.801 151.551C107.635 151.551 108.369 151.374 109.003 151.018C109.642 150.659 110.139 150.152 110.494 149.499C110.854 148.84 111.034 148.066 111.034 147.176L111.574 147.29H107.199V145.727H112.739V147.29C112.739 148.488 112.483 149.529 111.972 150.415C111.465 151.3 110.764 151.987 109.869 152.474C108.979 152.957 107.957 153.199 106.801 153.199C105.513 153.199 104.382 152.896 103.406 152.29C102.436 151.684 101.678 150.822 101.134 149.705C100.594 148.587 100.324 147.261 100.324 145.727C100.324 144.577 100.478 143.542 100.786 142.624C101.098 141.7 101.539 140.914 102.107 140.266C102.675 139.617 103.347 139.12 104.124 138.774C104.9 138.429 105.755 138.256 106.688 138.256C107.455 138.256 108.17 138.372 108.833 138.604C109.5 138.831 110.094 139.155 110.615 139.577C111.141 139.993 111.579 140.493 111.929 141.075C112.28 141.653 112.521 142.295 112.654 143H110.835ZM120.102 153.227C119.051 153.227 118.144 152.995 117.382 152.531C116.624 152.062 116.04 151.409 115.628 150.571C115.22 149.728 115.017 148.748 115.017 147.631C115.017 146.513 115.22 145.528 115.628 144.676C116.04 143.819 116.613 143.152 117.346 142.673C118.085 142.19 118.947 141.949 119.932 141.949C120.5 141.949 121.061 142.044 121.615 142.233C122.169 142.422 122.673 142.73 123.128 143.156C123.582 143.578 123.944 144.136 124.214 144.832C124.484 145.528 124.619 146.385 124.619 147.403V148.114H116.21V146.665H122.915C122.915 146.049 122.791 145.5 122.545 145.017C122.304 144.534 121.958 144.153 121.508 143.874C121.063 143.594 120.538 143.455 119.932 143.455C119.264 143.455 118.686 143.62 118.199 143.952C117.716 144.278 117.344 144.705 117.084 145.23C116.823 145.756 116.693 146.319 116.693 146.92V147.886C116.693 148.71 116.835 149.409 117.119 149.982C117.408 150.55 117.808 150.983 118.319 151.281C118.831 151.575 119.425 151.722 120.102 151.722C120.542 151.722 120.94 151.66 121.295 151.537C121.655 151.409 121.965 151.22 122.226 150.969C122.486 150.713 122.687 150.396 122.829 150.017L124.449 150.472C124.278 151.021 123.992 151.504 123.589 151.92C123.187 152.332 122.69 152.654 122.098 152.886C121.506 153.114 120.841 153.227 120.102 153.227ZM131.913 142.091V143.511H126.26V142.091H131.913ZM127.907 139.477H129.584V149.875C129.584 150.348 129.652 150.704 129.79 150.94C129.932 151.172 130.112 151.329 130.329 151.409C130.552 151.485 130.786 151.523 131.032 151.523C131.217 151.523 131.369 151.513 131.487 151.494C131.605 151.471 131.7 151.452 131.771 151.438L132.112 152.943C131.998 152.986 131.84 153.028 131.636 153.071C131.433 153.118 131.175 153.142 130.862 153.142C130.389 153.142 129.925 153.04 129.47 152.837C129.02 152.633 128.646 152.323 128.348 151.906C128.054 151.49 127.907 150.964 127.907 150.33V139.477ZM151.991 143H150.23C150.126 142.493 149.943 142.048 149.683 141.665C149.427 141.281 149.115 140.959 148.746 140.699C148.381 140.434 147.976 140.235 147.531 140.102C147.086 139.97 146.622 139.903 146.139 139.903C145.258 139.903 144.461 140.126 143.746 140.571C143.035 141.016 142.47 141.672 142.048 142.538C141.631 143.405 141.423 144.468 141.423 145.727C141.423 146.987 141.631 148.05 142.048 148.916C142.47 149.783 143.035 150.438 143.746 150.884C144.461 151.329 145.258 151.551 146.139 151.551C146.622 151.551 147.086 151.485 147.531 151.352C147.976 151.22 148.381 151.023 148.746 150.763C149.115 150.498 149.427 150.173 149.683 149.79C149.943 149.402 150.126 148.956 150.23 148.455H151.991C151.859 149.198 151.617 149.863 151.267 150.45C150.916 151.037 150.481 151.537 149.96 151.949C149.439 152.356 148.854 152.666 148.206 152.879C147.562 153.092 146.873 153.199 146.139 153.199C144.898 153.199 143.795 152.896 142.829 152.29C141.863 151.684 141.104 150.822 140.55 149.705C139.996 148.587 139.719 147.261 139.719 145.727C139.719 144.193 139.996 142.867 140.55 141.75C141.104 140.633 141.863 139.771 142.829 139.165C143.795 138.559 144.898 138.256 146.139 138.256C146.873 138.256 147.562 138.362 148.206 138.575C148.854 138.788 149.439 139.101 149.96 139.513C150.481 139.92 150.916 140.417 151.267 141.004C151.617 141.587 151.859 142.252 151.991 143ZM159.184 153.227C158.133 153.227 157.226 152.995 156.464 152.531C155.706 152.062 155.122 151.409 154.71 150.571C154.302 149.728 154.099 148.748 154.099 147.631C154.099 146.513 154.302 145.528 154.71 144.676C155.122 143.819 155.695 143.152 156.428 142.673C157.167 142.19 158.029 141.949 159.014 141.949C159.582 141.949 160.143 142.044 160.697 142.233C161.251 142.422 161.755 142.73 162.21 143.156C162.664 143.578 163.026 144.136 163.296 144.832C163.566 145.528 163.701 146.385 163.701 147.403V148.114H155.292V146.665H161.997C161.997 146.049 161.874 145.5 161.627 145.017C161.386 144.534 161.04 144.153 160.59 143.874C160.145 143.594 159.62 143.455 159.014 143.455C158.346 143.455 157.768 143.62 157.281 143.952C156.798 144.278 156.426 144.705 156.166 145.23C155.905 145.756 155.775 146.319 155.775 146.92V147.886C155.775 148.71 155.917 149.409 156.201 149.982C156.49 150.55 156.89 150.983 157.401 151.281C157.913 151.575 158.507 151.722 159.184 151.722C159.624 151.722 160.022 151.66 160.377 151.537C160.737 151.409 161.047 151.22 161.308 150.969C161.568 150.713 161.769 150.396 161.911 150.017L163.531 150.472C163.36 151.021 163.074 151.504 162.671 151.92C162.269 152.332 161.772 152.654 161.18 152.886C160.588 153.114 159.923 153.227 159.184 153.227ZM166.251 153V142.091H167.87V143.739H167.984C168.183 143.199 168.543 142.761 169.063 142.425C169.584 142.089 170.171 141.92 170.825 141.92C170.948 141.92 171.102 141.923 171.286 141.928C171.471 141.932 171.611 141.939 171.705 141.949V143.653C171.649 143.639 171.518 143.618 171.315 143.589C171.116 143.556 170.905 143.54 170.683 143.54C170.152 143.54 169.679 143.651 169.262 143.874C168.85 144.091 168.524 144.394 168.282 144.783C168.045 145.166 167.927 145.604 167.927 146.097V153H166.251ZM179.12 142.091V143.511H173.467V142.091H179.12ZM175.115 139.477H176.791V149.875C176.791 150.348 176.859 150.704 176.997 150.94C177.139 151.172 177.319 151.329 177.536 151.409C177.759 151.485 177.993 151.523 178.24 151.523C178.424 151.523 178.576 151.513 178.694 151.494C178.812 151.471 178.907 151.452 178.978 151.438L179.319 152.943C179.205 152.986 179.047 153.028 178.843 153.071C178.64 153.118 178.382 153.142 178.069 153.142C177.596 153.142 177.132 153.04 176.677 152.837C176.227 152.633 175.853 152.323 175.555 151.906C175.261 151.49 175.115 150.964 175.115 150.33V139.477ZM181.642 153V142.091H183.318V153H181.642ZM182.494 140.273C182.167 140.273 181.885 140.161 181.649 139.939C181.417 139.716 181.301 139.449 181.301 139.136C181.301 138.824 181.417 138.556 181.649 138.334C181.885 138.111 182.167 138 182.494 138C182.82 138 183.1 138.111 183.332 138.334C183.569 138.556 183.687 138.824 183.687 139.136C183.687 139.449 183.569 139.716 183.332 139.939C183.1 140.161 182.82 140.273 182.494 140.273ZM191.246 142.091V143.511H185.365V142.091H191.246ZM187.126 153V140.585C187.126 139.96 187.273 139.439 187.567 139.023C187.86 138.606 188.241 138.294 188.71 138.085C189.179 137.877 189.674 137.773 190.194 137.773C190.606 137.773 190.943 137.806 191.203 137.872C191.463 137.938 191.657 138 191.785 138.057L191.302 139.506C191.217 139.477 191.099 139.442 190.947 139.399C190.8 139.357 190.606 139.335 190.365 139.335C189.811 139.335 189.411 139.475 189.165 139.754C188.923 140.034 188.802 140.443 188.802 140.983V153H187.126ZM193.595 153V142.091H195.271V153H193.595ZM194.447 140.273C194.12 140.273 193.838 140.161 193.602 139.939C193.37 139.716 193.254 139.449 193.254 139.136C193.254 138.824 193.37 138.556 193.602 138.334C193.838 138.111 194.12 138 194.447 138C194.774 138 195.053 138.111 195.285 138.334C195.522 138.556 195.64 138.824 195.64 139.136C195.64 139.449 195.522 139.716 195.285 139.939C195.053 140.161 194.774 140.273 194.447 140.273ZM202.915 153.227C201.863 153.227 200.957 152.995 200.194 152.531C199.437 152.062 198.852 151.409 198.44 150.571C198.033 149.728 197.829 148.748 197.829 147.631C197.829 146.513 198.033 145.528 198.44 144.676C198.852 143.819 199.425 143.152 200.159 142.673C200.898 142.19 201.759 141.949 202.744 141.949C203.312 141.949 203.873 142.044 204.427 142.233C204.981 142.422 205.486 142.73 205.94 143.156C206.395 143.578 206.757 144.136 207.027 144.832C207.297 145.528 207.432 146.385 207.432 147.403V148.114H199.023V146.665H205.727C205.727 146.049 205.604 145.5 205.358 145.017C205.116 144.534 204.771 144.153 204.321 143.874C203.876 143.594 203.35 143.455 202.744 143.455C202.077 143.455 201.499 143.62 201.011 143.952C200.528 144.278 200.157 144.705 199.896 145.23C199.636 145.756 199.506 146.319 199.506 146.92V147.886C199.506 148.71 199.648 149.409 199.932 149.982C200.22 150.55 200.621 150.983 201.132 151.281C201.643 151.575 202.238 151.722 202.915 151.722C203.355 151.722 203.753 151.66 204.108 151.537C204.468 151.409 204.778 151.22 205.038 150.969C205.299 150.713 205.5 150.396 205.642 150.017L207.261 150.472C207.091 151.021 206.804 151.504 206.402 151.92C205.999 152.332 205.502 152.654 204.91 152.886C204.318 153.114 203.653 153.227 202.915 153.227ZM214.101 153.227C213.192 153.227 212.389 152.998 211.693 152.538C210.997 152.074 210.452 151.421 210.059 150.578C209.666 149.731 209.47 148.729 209.47 147.574C209.47 146.428 209.666 145.434 210.059 144.591C210.452 143.748 210.999 143.097 211.7 142.638C212.401 142.179 213.211 141.949 214.129 141.949C214.839 141.949 215.4 142.067 215.812 142.304C216.229 142.536 216.546 142.801 216.764 143.099C216.987 143.393 217.159 143.634 217.282 143.824H217.425V138.455H219.101V153H217.481V151.324H217.282C217.159 151.523 216.984 151.774 216.757 152.077C216.53 152.375 216.205 152.643 215.784 152.879C215.363 153.111 214.801 153.227 214.101 153.227ZM214.328 151.722C215 151.722 215.568 151.546 216.032 151.196C216.497 150.841 216.849 150.351 217.091 149.726C217.332 149.096 217.453 148.369 217.453 147.545C217.453 146.731 217.335 146.018 217.098 145.408C216.861 144.792 216.511 144.314 216.047 143.973C215.583 143.627 215.01 143.455 214.328 143.455C213.618 143.455 213.026 143.637 212.552 144.001C212.084 144.361 211.731 144.851 211.494 145.472C211.262 146.087 211.146 146.778 211.146 147.545C211.146 148.322 211.265 149.027 211.501 149.662C211.743 150.292 212.098 150.794 212.567 151.168C213.04 151.537 213.627 151.722 214.328 151.722Z" fill="#E5E7EB"/>
<path d="M99.1309 156.977H220.862V158.341H99.1309V156.977Z" fill="#E5E7EB"/>
<rect x="1" y="1" width="318" height="180" rx="23" stroke="#27272A" stroke-width="2"/>
<defs>
<linearGradient id="paint0_linear_1_3061" x1="0" y1="0" x2="323.092" y2="176.335" gradientUnits="userSpaceOnUse">
<stop stop-color="#42B883"/>
<stop offset="0.0001" stop-color="#42B883"/>
<stop offset="1" stop-color="#0EBBD2"/>
</linearGradient>
<linearGradient id="paint1_linear_1_3061" x1="79.7915" y1="34.0999" x2="107.744" y2="34.0999" gradientUnits="userSpaceOnUse">
<stop stop-color="#42B883"/>
<stop offset="0.0001" stop-color="#42B883"/>
<stop offset="1" stop-color="#0EBBD2"/>
</linearGradient>
<linearGradient id="paint2_linear_1_3061" x1="79.7915" y1="34.0999" x2="107.744" y2="34.0999" gradientUnits="userSpaceOnUse">
<stop stop-color="#42B883"/>
<stop offset="0.0001" stop-color="#42B883"/>
<stop offset="1" stop-color="#0EBBD2"/>
</linearGradient>
<linearGradient id="paint3_linear_1_3061" x1="79.7915" y1="34.0999" x2="107.744" y2="34.0999" gradientUnits="userSpaceOnUse">
<stop stop-color="#42B883"/>
<stop offset="0.0001" stop-color="#42B883"/>
<stop offset="1" stop-color="#0EBBD2"/>
</linearGradient>
<linearGradient id="paint4_linear_1_3061" x1="79.7915" y1="34.0999" x2="107.744" y2="34.0999" gradientUnits="userSpaceOnUse">
<stop stop-color="#42B883"/>
<stop offset="0.0001" stop-color="#42B883"/>
<stop offset="1" stop-color="#0EBBD2"/>
</linearGradient>
<linearGradient id="paint5_linear_1_3061" x1="79.7915" y1="34.0999" x2="107.744" y2="34.0999" gradientUnits="userSpaceOnUse">
<stop stop-color="#42B883"/>
<stop offset="0.0001" stop-color="#42B883"/>
<stop offset="1" stop-color="#0EBBD2"/>
</linearGradient>
<linearGradient id="paint6_linear_1_3061" x1="79.7915" y1="34.0999" x2="107.744" y2="34.0999" gradientUnits="userSpaceOnUse">
<stop stop-color="#42B883"/>
<stop offset="0.0001" stop-color="#42B883"/>
<stop offset="1" stop-color="#0EBBD2"/>
</linearGradient>
</defs>
</svg>
